<svg width="164" height="145" viewBox="0 0 164 145" fill="none" xmlns="http://www.w3.org/2000/svg">
<path opacity="0.57" d="M155.197 45.246C160.057 45.246 163.997 41.3136 163.997 36.4628C163.997 31.612 160.057 27.6797 155.197 27.6797C150.337 27.6797 146.397 31.612 146.397 36.4628C146.397 41.3136 150.337 45.246 155.197 45.246Z" fill="#EC2028"/>
<path d="M151.445 104.939C154.255 104.939 156.533 102.665 156.533 99.8604C156.533 97.0557 154.255 94.7821 151.445 94.7821C148.635 94.7821 146.357 97.0557 146.357 99.8604C146.357 102.665 148.635 104.939 151.445 104.939Z" fill="#79BC7D"/>
<path opacity="0.46" d="M135.398 91.789C144.248 91.789 151.422 84.6285 151.422 75.7957C151.422 66.9629 144.248 59.8025 135.398 59.8025C126.549 59.8025 119.375 66.9629 119.375 75.7957C119.375 84.6285 126.549 91.789 135.398 91.789Z" fill="#FE6B02"/>
<path d="M135.612 100.103C132.228 100.104 128.885 99.3692 125.815 97.9511C122.744 96.5329 120.019 94.465 117.829 91.8907C115.64 89.3164 114.037 86.2974 113.133 83.0432C112.229 79.789 112.045 76.3774 112.594 73.0451C113.144 69.7129 114.412 66.5398 116.313 63.746C118.214 60.9522 120.701 58.6045 123.601 56.8659C126.502 55.1273 129.746 54.0393 133.11 53.6776C136.474 53.3158 139.877 53.6888 143.082 54.7708C135.158 23.2998 106.623 0 72.6371 0C32.5201 0 0 32.4587 0 72.5C0 112.541 32.5201 145 72.6371 145C87.1084 145.001 101.25 140.689 113.25 132.615C125.25 124.542 134.561 113.077 139.99 99.6875C138.547 99.9629 137.081 100.102 135.612 100.103Z" fill="#AADDF9"/>
<path d="M107.453 58.9046C106.453 57.9901 101.869 57.8005 98.8331 57.7573H98.45C98.3134 57.7573 98.1901 57.7573 98.0635 57.7573C97.5803 57.7573 97.1572 57.7573 96.824 57.7573C94.375 57.7573 93.3587 60.2582 93.1588 61.216C92.9256 62.4797 92.0093 65.6791 91.4062 67.7776L91.1096 67.425V67.4084L90.8331 67.0492C91.4262 64.9906 92.2158 62.1937 92.4291 61.083C92.6423 59.9722 93.8485 57.0156 96.8106 57.0156C97.2771 57.0156 97.7536 57.0156 98.2301 57.0156C98.5633 55.4492 98.2834 54.1955 97.457 53.4339C96.8473 52.8685 94.225 52.5625 89.6469 52.5359C89.3403 52.5359 89.0371 52.5359 88.7139 52.5359C86.8114 52.5359 86.0284 54.4815 85.8851 55.2264C85.7152 56.121 85.1487 57.9236 84.7022 59.2838L84.4223 58.9246L84.1525 58.592C84.5556 57.3183 85.0054 55.8516 85.152 55.0967C85.332 54.1822 86.3116 51.801 88.7173 51.801C89.0838 51.801 89.4603 51.801 89.8401 51.801C90.0534 50.5106 89.7835 49.473 89.0838 48.8278C88.2241 48.0296 83.6793 47.6073 82.02 47.6073C80.3607 47.6073 79.6143 49.2701 79.471 49.9918C79.3277 50.7135 79.0012 51.9107 78.768 52.7521C77.8394 52.2966 76.8562 51.9613 75.8425 51.7544V46.7991C75.8425 45.0132 72.8437 43.5632 69.1785 43.5632C65.5134 43.5632 62.5146 45.0132 62.5146 46.7991V51.7344C61.5385 51.9354 60.5907 52.2548 59.6924 52.6856C59.4492 51.8442 59.136 50.6902 59.0027 49.9785C58.8694 49.2668 58.123 47.594 56.4604 47.594C54.7977 47.594 50.2496 48.0163 49.3866 48.8145C48.6769 49.4796 48.417 50.4973 48.6502 51.7877C49.0301 51.7877 49.3966 51.7877 49.7631 51.7877C52.1721 51.7877 53.1484 54.1689 53.3183 55.0834C53.4616 55.8184 53.8948 57.2351 54.2879 58.4723L54.0114 58.8049L53.7315 59.1541C53.295 57.8005 52.7552 56.0711 52.592 55.2031C52.4487 54.4582 51.659 52.5127 49.7631 52.5127C49.4299 52.5127 49.1367 52.5127 48.8302 52.5127C44.2453 52.5393 41.6231 52.8452 41.01 53.4106C40.187 54.1722 39.9171 55.426 40.2403 56.9924C40.7268 56.9924 41.1999 56.9924 41.6664 56.9924C44.6219 56.9924 45.8347 59.9289 46.0479 61.0597C46.2612 62.1904 47.0176 64.8676 47.6106 66.9195L47.3308 67.2787L47.0442 67.6113C46.4345 65.5128 45.5448 62.4132 45.3116 61.1761C45.1217 60.2183 44.1187 57.7174 41.6664 57.7174C41.3332 57.7174 40.9134 57.7174 40.4169 57.7174C40.2936 57.7174 40.167 57.7174 40.0404 57.7174H39.6505C36.6151 57.7606 32.027 57.9502 31.0407 58.8647C29.7746 60.0287 29.5247 62.0707 30.321 64.5982C31.3706 67.8773 34.1561 83.1223 34.2727 83.7641C34.2727 83.7641 35.1257 85.5401 40.1437 86.3382V91.8023L35.3656 89.9034C35.1781 89.8291 34.9709 89.8203 34.7777 89.8781C34.5844 89.936 34.4164 90.0573 34.3007 90.2223C34.1851 90.3873 34.1287 90.5865 34.1405 90.7875C34.1524 90.9886 34.2318 91.1797 34.366 91.3301C34.2265 91.5089 34.1504 91.7287 34.1495 91.9553C34.1551 92.2137 34.2549 92.4612 34.43 92.6516C34.6051 92.842 34.8437 92.9623 35.1012 92.99C35.3587 93.0177 35.6174 92.9509 35.8292 92.8021C36.0409 92.6534 36.1912 92.4327 36.2519 92.1815L38.9608 93.2656L34.7092 94.9584C34.4887 95.0473 34.3119 95.2191 34.2172 95.4369C34.1224 95.6547 34.1173 95.9009 34.2028 96.1224C34.2288 96.1829 34.2624 96.2399 34.3027 96.292C34.2015 96.4571 34.1484 96.6472 34.1495 96.8408C34.1495 97.1212 34.2611 97.3902 34.4598 97.5886C34.6585 97.7869 34.928 97.8983 35.209 97.8983C35.49 97.8983 35.7595 97.7869 35.9583 97.5886C36.157 97.3902 36.2686 97.1212 36.2686 96.8408C36.2667 96.6586 36.221 96.4795 36.1353 96.3186L41.3865 94.2334L46.5311 96.2854C46.4876 96.3908 46.4661 96.5039 46.4678 96.6179C46.4597 96.7611 46.481 96.9045 46.5304 97.0392C46.5797 97.1739 46.6561 97.2971 46.7548 97.4014C46.8535 97.5056 46.9725 97.5886 47.1045 97.6454C47.2365 97.7021 47.3786 97.7314 47.5223 97.7314C47.666 97.7314 47.8082 97.7021 47.9402 97.6454C48.0722 97.5886 48.1912 97.5056 48.2899 97.4014C48.3886 97.2971 48.465 97.1739 48.5143 97.0392C48.5637 96.9045 48.585 96.7611 48.5769 96.6179C48.5778 96.4829 48.5541 96.3488 48.5069 96.2222C48.5293 96.1892 48.5472 96.1534 48.5603 96.1158C48.6054 96.0065 48.6282 95.8894 48.6273 95.7712C48.6264 95.6531 48.6017 95.5363 48.5548 95.4278C48.5079 95.3193 48.4397 95.2213 48.3542 95.1395C48.2688 95.0578 48.1677 94.9939 48.0571 94.9518L43.8022 93.259L46.6844 92.1116C46.7798 92.2426 46.9051 92.3489 47.05 92.4218C47.1949 92.4947 47.3551 92.532 47.5173 92.5307C47.7984 92.5307 48.0679 92.4192 48.2666 92.2209C48.4653 92.0226 48.5769 91.7536 48.5769 91.4731C48.5797 91.3599 48.5616 91.2472 48.5236 91.1405C48.5847 91.0256 48.6197 90.8987 48.626 90.7688C48.6323 90.6389 48.6099 90.5092 48.5603 90.3889C48.4706 90.1686 48.2976 89.9923 48.0787 89.8983C47.8598 89.8044 47.6127 89.8002 47.3907 89.8867L42.616 91.7857V86.5976C42.7959 86.5976 42.9759 86.6176 43.1625 86.6342C43.449 86.7706 43.7456 86.9136 44.0621 87.0366C44.3786 87.1597 44.6818 87.306 45.0117 87.4324C47.4407 88.3505 49.9385 89.0756 52.482 89.6007C53.7848 90.4521 54.951 91.6693 54.951 93.2756V101.7C54.951 101.7 56.3071 104.719 69.5417 104.719C82.7764 104.719 84.1391 101.7 84.1391 101.7V93.3322C84.1391 91.8356 85.1387 90.6716 86.3382 89.8369C89.2371 89.3263 92.0786 88.5321 94.8214 87.4656H94.8414C94.9581 87.4656 95.0747 87.4656 95.1913 87.4656V91.8822L90.4066 89.9732C90.2194 89.9024 90.0139 89.8959 89.8226 89.9548C89.6313 90.0136 89.4652 90.1345 89.3504 90.2983C89.2357 90.462 89.179 90.6592 89.1892 90.8588C89.1995 91.0583 89.2761 91.2487 89.407 91.3999C89.2675 91.5787 89.1913 91.7986 89.1904 92.0252C89.1961 92.2836 89.2958 92.5311 89.471 92.7215C89.6461 92.9119 89.8847 93.0322 90.1421 93.0598C90.3996 93.0875 90.6584 93.0208 90.8701 92.872C91.0819 92.7232 91.2322 92.5026 91.2929 92.2513L94.0051 93.3355L89.7502 95.0283C89.5296 95.1171 89.3531 95.2891 89.2589 95.507C89.1647 95.725 89.1605 95.9712 89.2471 96.1922C89.2707 96.2532 89.3033 96.3104 89.3437 96.3619C89.2439 96.5276 89.1909 96.7172 89.1904 96.9106C89.1904 97.1911 89.302 97.4601 89.5007 97.6584C89.6995 97.8567 89.969 97.9682 90.25 97.9682C90.531 97.9682 90.8005 97.8567 90.9992 97.6584C91.1979 97.4601 91.3095 97.1911 91.3095 96.9106C91.3077 96.7284 91.262 96.5493 91.1763 96.3885L96.4275 94.3033L101.572 96.3452C101.528 96.4564 101.507 96.575 101.509 96.6944C101.509 96.974 101.62 97.2422 101.818 97.4399C102.016 97.6376 102.285 97.7487 102.565 97.7487C102.845 97.7487 103.114 97.6376 103.312 97.4399C103.51 97.2422 103.621 96.974 103.621 96.6944C103.621 96.5592 103.596 96.4251 103.548 96.2987C103.57 96.265 103.589 96.2294 103.605 96.1922C103.649 96.0833 103.671 95.9667 103.67 95.8491C103.669 95.7315 103.645 95.6153 103.599 95.5071C103.553 95.3989 103.486 95.3009 103.402 95.2187C103.317 95.1365 103.218 95.0718 103.108 95.0283L98.8531 93.3355L101.725 92.1881C101.822 92.3189 101.948 92.4251 102.093 92.498C102.238 92.5708 102.399 92.6082 102.562 92.6072C102.843 92.6072 103.112 92.4957 103.311 92.2974C103.51 92.0991 103.621 91.8301 103.621 91.5496C103.624 91.4364 103.606 91.3237 103.568 91.217C103.633 91.1028 103.672 90.9754 103.682 90.8443C103.692 90.7131 103.672 90.5814 103.625 90.4588C103.536 90.2397 103.365 90.0642 103.148 89.9702C102.931 89.8762 102.686 89.8713 102.465 89.9566L97.6803 91.8655V86.4679C103.345 85.7263 104.241 83.7542 104.261 83.7276C104.358 83.1555 107.143 67.9106 108.183 64.6315C108.956 62.1106 108.712 60.0686 107.453 58.9046ZM97.6869 79.2711C97.6809 79.3084 97.6685 79.3444 97.6503 79.3776C96.5108 82.221 83.1529 85.6964 69.1719 85.6964C54.871 85.6964 42.2595 81.6025 41.0633 78.9486C41.038 78.8924 41.02 78.8331 41.01 78.7723C40.9933 78.7158 40.9933 78.6558 41.01 78.5994V78.4863H41.0466C41.0906 78.37 41.1575 78.2637 41.2432 78.1737L46.5744 71.3992L48.2737 69.2475L53.2717 62.9287L55.031 60.7072L59.1693 55.4559C60.0489 54.3883 62.5013 53.1279 69.1652 53.1279C74.4964 53.1279 77.855 53.9161 79.1612 55.4326L83.4061 60.8003L84.549 62.2536V62.2702L90.1434 69.3573L91.4195 70.9702L97.0839 78.1471L97.1838 78.2535C97.7136 78.7789 97.7303 79.0916 97.6869 79.2711Z" fill="#3992CE"/>
</svg>
