<svg width="141" height="135" viewBox="0 0 141 135" fill="none" xmlns="http://www.w3.org/2000/svg">
<path d="M125.397 34.8874C121.526 37.2035 116.971 38.3859 112.342 38.276C107.714 38.1661 103.232 36.7692 99.4992 34.2726C95.7659 31.776 92.9592 28.2989 91.455 24.3073C89.9508 20.3158 89.8211 16.0006 91.0834 11.94C84.0451 9.8132 76.6774 8.73176 69.2625 8.73708C31.0093 8.73708 0 37.0014 0 71.8686C0 106.736 31.0093 135 69.2625 135C107.516 135 138.525 106.736 138.525 71.8686C138.546 58.5867 133.951 45.6402 125.397 34.8874Z" fill="#AADDF9"/>
<path opacity="0.57" d="M114.41 27.8619C121.603 27.8619 127.433 22.5473 127.433 15.9914C127.433 9.43556 121.603 4.12097 114.41 4.12097C107.218 4.12097 101.387 9.43556 101.387 15.9914C101.387 22.5473 107.218 27.8619 114.41 27.8619Z" fill="#EC2028"/>
<path d="M136.148 34.0881C138.828 34.0881 141 32.1083 141 29.666C141 27.2237 138.828 25.2439 136.148 25.2439C133.469 25.2439 131.297 27.2237 131.297 29.666C131.297 32.1083 133.469 34.0881 136.148 34.0881Z" fill="#79BC7D"/>
<path opacity="0.46" d="M96.2367 4.4192C97.5756 4.4192 98.6609 3.42993 98.6609 2.2096C98.6609 0.989273 97.5756 0 96.2367 0C94.8979 0 93.8125 0.989273 93.8125 2.2096C93.8125 3.42993 94.8979 4.4192 96.2367 4.4192Z" fill="#FE6B02"/>
<path d="M96.9739 34.4125V38.0324H95.1914V64.5216C94.2796 64.4607 93.3137 64.4347 92.3479 64.426V39.2516H47.95V64.426C47.502 64.426 47.0127 64.426 46.5171 64.4434C46.0214 64.4607 45.5322 64.4781 45.1064 64.5042V38.0324H42.9936V34.4125H96.9739Z" fill="#3992CE"/>
<path d="M109.978 71.3906C108.945 70.4987 104.157 70.3104 100.983 70.267H100.574C100.434 70.267 100.3 70.267 100.167 70.267C99.6649 70.267 99.2137 70.267 98.877 70.267C96.3352 70.267 95.2677 72.7112 95.0643 73.661C94.807 74.8976 93.8602 78.0252 93.2152 80.0813L92.9134 79.728L92.6179 79.3718C93.2343 77.3447 94.0604 74.6225 94.2764 73.5249C94.4925 72.4274 95.776 69.5401 98.8643 69.5401C99.3504 69.5401 99.8428 69.5401 100.345 69.5401C100.685 68.0024 100.402 66.7687 99.5378 66.0071C99.1025 65.6277 97.6315 65.3758 95.1787 65.2397C94.108 65.1788 92.8371 65.1528 91.3661 65.1441C91.0484 65.1441 90.7307 65.1441 90.3875 65.1441C88.6337 65.1441 87.7822 66.6905 87.5281 67.5101C87.4972 67.5985 87.4717 67.6884 87.4518 67.7794C87.2739 68.6482 86.6861 70.4234 86.2223 71.7613L85.9268 71.4167L85.6313 71.0692C86.0507 69.8355 86.5241 68.3933 86.6766 67.6491C86.6859 67.602 86.6986 67.5556 86.7147 67.5101C86.8831 66.8295 87.4423 65.6017 88.5702 64.9037C89.1109 64.5726 89.7488 64.3979 90.4002 64.4027C90.7783 64.4027 91.1691 64.4027 91.5567 64.4027C91.8046 63.1343 91.5281 62.1236 90.791 61.4836C89.8887 60.6959 85.142 60.2818 83.4073 60.2818C81.6725 60.2818 80.8941 61.8977 80.7416 62.6246C80.6272 63.2038 80.3635 64.1276 80.1348 64.895H78.9497C78.2983 64.6758 77.6304 64.4996 76.9512 64.368V60.7191C76.9512 58.9815 73.8313 57.5336 69.9837 57.5336C66.1361 57.5336 62.9939 58.9613 62.9939 60.7191V64.3912L62.7588 64.4433C62.1759 64.5628 61.6026 64.7186 61.0431 64.9095H59.9343C59.7055 64.1421 59.4482 63.2357 59.3243 62.6391C59.1845 61.9122 58.4061 60.2963 56.6713 60.2963C54.9366 60.2963 50.1772 60.7104 49.278 61.4981C48.5377 62.1381 48.2645 63.1488 48.5091 64.4172H48.6108C49.0175 64.4172 49.3988 64.4172 49.6911 64.4172C50.3403 64.4079 50.9765 64.583 51.5116 64.9182C51.973 65.2107 52.3661 65.5837 52.6681 66.0158C52.9954 66.4741 53.236 66.9792 53.3798 67.5101C53.3798 67.5709 53.3988 67.623 53.4084 67.6578C53.5482 68.376 54.0438 69.8355 54.4123 70.9505L54.1264 71.2951L53.8246 71.6484C53.3226 70.1801 52.8015 68.599 52.6299 67.7794C52.6109 67.7012 52.5918 67.6056 52.5632 67.4898C52.4367 67.101 52.2483 66.7312 52.004 66.3922C51.7713 66.0175 51.4364 65.7039 51.0318 65.4817C50.6272 65.2595 50.1664 65.1362 49.6942 65.1238C49.4178 65.1238 49.0779 65.1238 48.7061 65.1238H48.6203C47.9849 65.1238 47.2859 65.1238 46.5266 65.1499C46.0055 65.1673 45.5321 65.1846 45.0969 65.2107C41.7576 65.3902 40.8108 65.7638 40.5567 65.9868C39.6734 66.7484 39.397 67.9647 39.7401 69.5199C40.3089 69.5199 40.8204 69.5199 41.2271 69.5199C44.3089 69.5199 45.5798 72.3984 45.8054 73.5047C45.8244 73.606 45.853 73.7277 45.8912 73.858C45.9293 74.0491 45.9865 74.2721 46.0532 74.524C46.139 74.8426 46.2311 75.1959 46.336 75.5782C46.3836 75.7143 46.4217 75.8678 46.4599 76.0097C46.5552 76.2992 46.641 76.6062 46.7268 76.9074C46.7839 77.0725 46.8316 77.2433 46.8761 77.4084C47.0286 77.9181 47.1938 78.4278 47.3241 78.894C47.3622 79.0156 47.4003 79.1373 47.4384 79.2502L47.143 79.6035L46.8411 79.9568C46.2533 78.0745 45.2843 74.8773 45.0301 73.6408C44.83 72.6909 43.7593 70.2467 41.2175 70.2467C40.7346 70.2467 40.1087 70.2467 39.4192 70.2467H39.1015C32.3437 70.3162 30.5708 70.9823 30.126 71.3617C28.7979 72.52 28.5374 74.5154 29.3762 77.003C30.466 80.2175 33.3762 95.1547 33.5065 95.7947C33.5065 95.7947 34.7107 98.1694 42.6917 98.6096C42.984 98.7486 43.2223 98.8789 43.5528 99.0063H43.6195C43.8673 99.1019 44.1119 99.2061 44.3788 99.2959C44.4551 99.322 44.5409 99.3567 44.6235 99.3828C45.745 99.7882 46.946 100.176 48.2264 100.524L48.5441 100.599V109.466H91.7537V100.886C91.843 100.871 91.931 100.85 92.0174 100.825C92.9928 100.59 93.9619 100.324 94.9087 100.023L95.0993 99.9706C95.6871 99.7795 96.2367 99.5797 96.7482 99.3915C97.0977 99.2525 97.4313 99.1019 97.7427 98.9773C98.0604 98.8383 98.3781 98.6877 98.6514 98.5516C105.524 97.9406 106.569 95.7889 106.594 95.7542C106.699 95.1923 109.6 80.2464 110.69 77.0232C111.56 74.5356 111.297 72.5316 109.978 71.3906ZM99.7793 91.2944V91.3205C99.7836 91.3317 99.7836 91.344 99.7793 91.3552C99.6748 91.666 99.474 91.9425 99.201 92.1516C99.1343 92.2037 99.0676 92.2646 99.0009 92.3138C95.3439 95.2358 82.2349 97.6626 70.0059 97.6626C56.1852 97.6626 43.4574 94.1469 41.0015 91.5811C40.7973 91.3885 40.6536 91.1495 40.5853 90.889V90.6747C40.5858 90.6533 40.5923 90.6323 40.6043 90.6139C40.6162 90.5832 40.6322 90.5541 40.652 90.527L40.6996 90.4488C40.7371 90.392 40.7819 90.3395 40.8331 90.2924L41.3637 89.664L46.4154 83.6405L48.1597 81.567L53.3766 75.3552L53.3956 75.3291L55.2162 73.1601L59.5467 68.0024C59.7209 67.8154 59.9181 67.6473 60.1344 67.5014C60.3549 67.3476 60.5898 67.2119 60.8366 67.096L60.9224 67.0525C61.6659 66.7173 62.4526 66.4683 63.264 66.3112C64.9987 65.9289 67.2545 65.732 69.9932 65.732C71.3499 65.732 72.608 65.7841 73.755 65.8768C76.068 66.0766 77.8504 66.4733 79.0641 67.0525L79.2166 67.1307C79.4342 67.2366 79.6405 67.3607 79.833 67.5014C80.0479 67.639 80.2423 67.8016 80.4112 67.985L84.8592 73.2643L86.0729 74.7123V74.7296L91.9126 81.6654L93.2502 83.2553L99.1629 90.2953L99.2487 90.3822C99.3525 90.4766 99.4481 90.5783 99.5346 90.6863C99.7012 90.8515 99.7892 91.0702 99.7793 91.2944Z" fill="#3992CE"/>
<path d="M82.4033 53.3258L80.8687 54.3538C79.59 52.7619 77.9097 51.4739 75.9697 50.5987C74.0297 49.7236 71.887 49.287 69.7229 49.326C67.5587 49.3649 65.4366 49.8781 63.536 50.8223C61.6353 51.7665 60.012 53.1139 58.8032 54.7506L57.2146 53.7746C58.5964 51.9107 60.4495 50.3768 62.6177 49.3021C64.7859 48.2274 67.2057 47.6435 69.6733 47.5995C72.1409 47.5555 74.5839 48.0527 76.7965 49.0493C79.0092 50.0458 80.9267 51.5125 82.3874 53.3258H82.4033Z" fill="#3992CE"/>
<path d="M80.0458 54.7592L78.5271 55.8047C77.5119 54.5704 76.1889 53.574 74.6676 52.8979C73.1463 52.2218 71.4703 51.8854 69.7781 51.9165C68.086 51.9477 66.4262 52.3454 64.9361 53.0769C63.4459 53.8084 62.1681 54.8526 61.2083 56.1232L59.6547 55.1386C60.7863 53.6447 62.2912 52.4173 64.0453 51.5574C65.7993 50.6975 67.7525 50.2297 69.7438 50.1927C71.735 50.1556 73.7075 50.5504 75.4986 51.3443C77.2897 52.1382 78.8482 53.3087 80.0458 54.7592Z" fill="#3992CE"/>
<path d="M77.6661 56.2016L76.1665 57.2644C75.44 56.4031 74.5054 55.7063 73.4352 55.2281C72.365 54.75 71.1882 54.5033 69.9964 54.5074C68.7517 54.5111 67.5256 54.7832 66.4184 55.3017C65.3112 55.8201 64.3543 56.5701 63.6262 57.4903L62.0916 56.4709C62.994 55.3281 64.1811 54.397 65.5554 53.7541C66.9296 53.1112 68.4517 52.7748 69.9964 52.7728C71.4781 52.7678 72.9411 53.0746 74.2714 53.6693C75.6017 54.264 76.7634 55.1306 77.6661 56.2016Z" fill="#3992CE"/>
</svg>
