<svg width="155" height="148" viewBox="0 0 155 148" fill="none" xmlns="http://www.w3.org/2000/svg">
<path opacity="0.46" d="M115.1 31.7617C123.952 31.7617 131.127 24.6516 131.127 15.8808C131.127 7.1101 123.952 0 115.1 0C106.249 0 99.073 7.1101 99.073 15.8808C99.073 24.6516 106.249 31.7617 115.1 31.7617Z" fill="#FE6B02"/>
<path opacity="0.57" d="M141.336 100.797C148.88 100.797 154.997 94.7364 154.997 87.2606C154.997 79.7847 148.88 73.7244 141.336 73.7244C133.791 73.7244 127.675 79.7847 127.675 87.2606C127.675 94.7364 133.791 100.797 141.336 100.797Z" fill="#EC2028"/>
<path d="M149.814 76.1878C152.625 76.1878 154.903 73.9302 154.903 71.1452C154.903 68.3602 152.625 66.1025 149.814 66.1025C147.004 66.1025 144.725 68.3602 144.725 71.1452C144.725 73.9302 147.004 76.1878 149.814 76.1878Z" fill="#79BC7D"/>
<path d="M122.736 87.376C122.724 84.613 123.313 81.8798 124.461 79.362C125.61 76.8443 127.292 74.6008 129.393 72.784C131.494 70.9672 133.965 69.6196 136.638 68.8325C139.311 68.0455 142.124 67.8375 144.885 68.2226C143.537 55.8064 138.935 43.9554 131.537 33.8455C127.477 36.4866 122.699 37.8348 117.844 37.7095C112.988 37.5842 108.288 35.9913 104.371 33.1444C100.455 30.2974 97.5112 26.3324 95.9334 21.7807C94.3556 17.2291 94.2195 12.3083 95.5436 7.6779C88.161 5.25042 80.4326 4.015 72.6542 4.01893C32.5277 4.01893 0 36.2496 0 76.0095C0 115.769 32.5277 148 72.6542 148C86.496 148.004 100.051 144.09 111.724 136.719C123.397 129.347 132.701 118.825 138.543 106.391C134.087 105.538 130.071 103.173 127.186 99.702C124.301 96.2314 122.727 91.8726 122.736 87.376Z" fill="#AADDF9"/>
<path d="M98.0465 70.3129V66.5846C98.0465 66.0897 97.8481 65.6151 97.495 65.2652C97.1418 64.9153 96.6629 64.7188 96.1635 64.7188H43.4792C43.2319 64.7187 42.987 64.767 42.7586 64.8608C42.5301 64.9545 42.3226 65.092 42.1477 65.2652C41.9728 65.4385 41.8341 65.6442 41.7395 65.8705C41.6449 66.0969 41.5962 66.3395 41.5962 66.5846V70.3129C41.5962 70.5579 41.6449 70.8005 41.7395 71.0269C41.8341 71.2533 41.9728 71.4589 42.1477 71.6322C42.3226 71.8055 42.5301 71.9429 42.7586 72.0367C42.987 72.1304 43.2319 72.1787 43.4792 72.1787H66.0586V102.009C66.0586 102.503 66.2566 102.977 66.609 103.327C66.9614 103.677 67.4395 103.873 67.9383 103.874H71.7043C72.2032 103.873 72.6813 103.677 73.0337 103.327C73.3861 102.977 73.584 102.503 73.584 102.009V72.1787H96.1635C96.4107 72.1787 96.6556 72.1304 96.8841 72.0367C97.1125 71.9429 97.3201 71.8055 97.495 71.6322C97.6698 71.4589 97.8085 71.2533 97.9031 71.0269C97.9978 70.8005 98.0465 70.5579 98.0465 70.3129Z" fill="#3992CE"/>
<path d="M47.9917 79.7839C47.76 79.6858 47.5106 79.6352 47.2585 79.6353H30.3081V49.8055C30.3081 49.5605 30.2594 49.3179 30.1648 49.0915C30.0702 48.8651 29.9315 48.6594 29.7566 48.4862C29.5817 48.3129 29.3742 48.1755 29.1457 48.0817C28.9172 47.988 28.6724 47.9397 28.4251 47.9397H26.5454C26.046 47.9397 25.5671 48.1363 25.2139 48.4862C24.8608 48.8361 24.6624 49.3107 24.6624 49.8055V102.009C24.6624 102.503 24.8608 102.978 25.2139 103.328C25.5671 103.678 26.046 103.874 26.5454 103.874H28.4251C28.9245 103.874 29.4035 103.678 29.7566 103.328C30.1097 102.978 30.3081 102.503 30.3081 102.009V88.9578H43.4792V102.009C43.4792 102.503 43.6771 102.977 44.0295 103.327C44.3819 103.677 44.86 103.873 45.3589 103.874H47.2419C47.7413 103.874 48.2202 103.678 48.5734 103.328C48.9265 102.978 49.1249 102.503 49.1249 102.009V81.5012C49.1264 81.1364 49.0199 80.7793 48.8185 80.474C48.617 80.1687 48.3296 79.9288 47.9917 79.7839Z" fill="#3992CE"/>
<path d="M113.097 47.9397H111.218C110.718 47.9397 110.239 48.1363 109.886 48.4862C109.533 48.8361 109.335 49.3107 109.335 49.8055V79.6353H92.4008C91.9014 79.6353 91.4224 79.8319 91.0693 80.1818C90.7161 80.5317 90.5178 81.0063 90.5178 81.5012V102.009C90.5178 102.503 90.7161 102.978 91.0693 103.328C91.4224 103.678 91.9014 103.874 92.4008 103.874H94.2838C94.7826 103.873 95.2607 103.677 95.6131 103.327C95.9655 102.977 96.1635 102.503 96.1635 102.009V88.9578H109.335V102.009C109.335 102.503 109.533 102.978 109.886 103.328C110.239 103.678 110.718 103.874 111.218 103.874H113.097C113.344 103.874 113.589 103.826 113.818 103.732C114.046 103.639 114.254 103.501 114.429 103.328C114.604 103.155 114.742 102.949 114.837 102.723C114.932 102.496 114.98 102.254 114.98 102.009V49.8055C114.98 49.3107 114.782 48.8361 114.429 48.4862C114.076 48.1363 113.597 47.9397 113.097 47.9397Z" fill="#3992CE"/>
</svg>
