<svg width="141" height="135" viewBox="0 0 141 135" fill="none" xmlns="http://www.w3.org/2000/svg">
<g clip-path="url(#clip0)">
<path d="M73.7999 0C36.6843 0 6.59688 30.0145 6.59688 67.0549C6.59219 73.2075 7.43586 79.3315 9.10417 85.2547C13.4255 83.4092 18.2625 83.1507 22.7567 84.525C27.251 85.8994 31.1118 88.8177 33.6539 92.7621C36.196 96.7065 37.255 101.422 36.6429 106.071C36.0309 110.721 33.7873 115.003 30.3105 118.159C35.8263 122.83 42.0624 126.581 48.7776 129.268C49.8928 124.661 52.6245 120.606 56.4781 117.835C60.3316 115.065 65.0523 113.762 69.7854 114.163C74.5184 114.565 78.951 116.643 82.2806 120.023C85.6101 123.403 87.6165 127.86 87.9365 132.588C118.274 126.114 141.009 99.2265 141.009 67.0401C141 30.0145 110.913 0 73.7999 0Z" fill="#AADDF9"/>
<path opacity="0.57" d="M16.0877 120.918C24.971 120.918 32.1724 113.735 32.1724 104.873C32.1724 96.0109 24.971 88.827 16.0877 88.827C7.20436 88.827 0.00299072 96.0109 0.00299072 104.873C0.00299072 113.735 7.20436 120.918 16.0877 120.918Z" fill="#EC2028"/>
<path d="M62.8934 134.923C67.2135 134.923 70.7157 131.429 70.7157 127.12C70.7157 122.81 67.2135 119.316 62.8934 119.316C58.5733 119.316 55.0711 122.81 55.0711 127.12C55.0711 131.429 58.5733 134.923 62.8934 134.923Z" fill="#79BC7D"/>
<path opacity="0.46" d="M77.607 135C80.1761 135 82.2587 132.922 82.2587 130.36C82.2587 127.797 80.1761 125.719 77.607 125.719C75.0379 125.719 72.9553 127.797 72.9553 130.36C72.9553 132.922 75.0379 135 77.607 135Z" fill="#FE6B02"/>
<path d="M75.174 55.5785H49.8365V59.7086H52.0047V97.2594H69.9156V59.7086H75.174V55.5785Z" fill="#3992CE"/>
<path d="M88.2756 74.3301H88.2964C91.5978 74.4785 93.4864 72.9771 93.7779 68.9895L95.1193 50.6265C95.3691 47.2055 93.5786 44.5945 91.7881 43.5976H91.7733C91.3836 43.4091 90.9748 43.2628 90.5538 43.1614C90.1527 43.0907 89.7411 43.1059 89.3463 43.2059C87.9484 43.4522 86.5683 44.9594 86.5683 44.9594C83.9986 47.7455 80.025 48.3478 74.716 46.7397C73.3835 46.3332 72.0897 47.6565 71.825 49.6859C71.5603 51.7154 72.4199 53.6885 73.7583 54.092C75.7615 54.7302 77.848 55.0701 79.9507 55.1008C81.5759 55.1142 83.1895 54.8265 84.7094 54.2522V54.5103L83.8558 66.2153C79.3945 66.4615 76.563 67.8649 75.4566 70.4166C73.9695 73.8821 71.5365 87.8568 70.8287 92.1442C70.4628 94.3576 71.3462 96.5947 72.8006 97.1644C73.0117 97.248 73.2367 97.2913 73.4638 97.292C74.6773 97.292 75.7867 96.0399 76.096 94.1647C77.3422 86.6136 79.0703 78.7866 79.8555 76.3062C80.483 74.1521 84.7957 74.0364 88.2756 74.3301Z" fill="#3992CE"/>
<path d="M89.9025 42.6897C92.9381 42.6897 95.3989 38.941 95.3989 34.3167C95.3989 29.6924 92.9381 25.9437 89.9025 25.9437C86.8669 25.9437 84.4061 29.6924 84.4061 34.3167C84.4061 38.941 86.8669 42.6897 89.9025 42.6897Z" fill="#3992CE"/>
<path d="M98.8847 66.2064L99.6164 51.7896C99.6186 51.7125 99.599 51.6364 99.5599 51.57C99.5458 51.5439 99.5254 51.5217 99.5004 51.5056C99.4754 51.4895 99.4468 51.48 99.4171 51.478H96.4131C96.306 51.478 96.2198 51.6056 96.2168 51.7747L95.5387 66.2034C95.4495 70.654 94.5869 76.1222 89.6824 76.1222L84.2603 76.1044C84.2316 76.1057 84.2038 76.1143 84.1793 76.1294C84.1548 76.1445 84.1346 76.1655 84.1205 76.1904C84.0824 76.2551 84.0629 76.329 84.064 76.4041V80.8546C84.064 81.0208 84.1503 81.1513 84.2603 81.1513H89.1827V91.3994H87.6391C85.6136 91.3994 83.9064 94.1054 83.9064 97.3068C83.9064 97.4759 83.9927 97.6035 84.1027 97.6035H86.0538C86.1609 97.6035 86.2501 97.47 86.2501 97.3068C86.2501 96.12 86.8866 95.1349 87.6361 95.1349H94.0486C94.7981 95.1349 95.4346 96.1289 95.4346 97.3068C95.4346 97.4759 95.5238 97.6035 95.6339 97.6035H97.582C97.692 97.6035 97.7813 97.47 97.7813 97.3068C97.7813 94.1054 96.0711 91.3994 94.0486 91.3994H92.499V80.6083C97.3381 80.4066 98.4475 73.1107 98.8847 66.2064Z" fill="#3992CE"/>
<path d="M70.4361 51.1754H61.1535L58.0127 33.6373C57.9889 33.5127 57.9056 33.4415 57.8253 33.4741L56.1508 34.1713C56.1072 34.1936 56.0742 34.2319 56.0586 34.2782C56.0436 34.3366 56.0436 34.3978 56.0586 34.4562L59.5801 54.1098C59.5979 54.2107 59.6574 54.2819 59.7258 54.2819H70.4509C70.5342 54.2819 70.6026 54.178 70.6026 54.0505V51.4068C70.5878 51.2793 70.5194 51.1754 70.4361 51.1754Z" fill="#3992CE"/>
</g>
<defs>
<clipPath id="clip0">
<rect width="141" height="135" fill="white"/>
</clipPath>
</defs>
</svg>
