<svg width="167" height="158" viewBox="0 0 167 158" fill="none" xmlns="http://www.w3.org/2000/svg">
<path d="M132.833 30.2916C128.917 32.8583 124.332 34.223 119.646 34.2165C115.927 34.2175 112.259 33.3591 108.929 31.7088C105.599 30.0585 102.698 27.6611 100.454 24.705C98.2106 21.7489 96.685 18.3146 95.9973 14.6718C95.3097 11.0289 95.4787 7.2768 96.4911 3.71005C89.0334 1.24574 81.2265 -0.00697135 73.3696 -9.39059e-05C32.8481 -9.39059e-05 4.48595e-06 32.7405 4.48595e-06 73.1294C-0.00459789 86.2476 3.53224 99.1253 10.2396 110.412C16.947 121.699 26.5778 130.979 38.1219 137.279C39.2991 131.195 42.8243 125.815 47.9396 122.295C53.0549 118.776 59.3517 117.397 65.4761 118.456C71.6005 119.515 77.0633 122.927 80.69 127.959C84.3166 132.991 85.8175 139.24 84.8698 145.363C119.929 139.862 146.739 109.617 146.739 73.1294C146.762 57.7442 141.894 42.7473 132.833 30.2916Z" fill="#AADDF9"/>
<path opacity="0.46" d="M57.336 158C66.2748 158 73.5211 150.777 73.5211 141.868C73.5211 132.958 66.2748 125.736 57.336 125.736C48.3972 125.736 41.1509 132.958 41.1509 141.868C41.1509 150.777 48.3972 158 57.336 158Z" fill="#FE6B02"/>
<path opacity="0.57" d="M158.108 90.2546C163.017 90.2546 166.997 86.2881 166.997 81.3952C166.997 76.5023 163.017 72.5358 158.108 72.5358C153.199 72.5358 149.22 76.5023 149.22 81.3952C149.22 86.2881 153.199 90.2546 158.108 90.2546Z" fill="#EC2028"/>
<path d="M117.795 28.8492C125.602 28.8492 131.931 22.5413 131.931 14.7601C131.931 6.97884 125.602 0.670898 117.795 0.670898C109.988 0.670898 103.66 6.97884 103.66 14.7601C103.66 22.5413 109.988 28.8492 117.795 28.8492Z" fill="#79BC7D"/>
<path d="M52.1665 26.2059C50.9952 26.9204 50.9952 26.8399 50.9952 39.0404C50.9952 49.973 50.9952 50.1742 51.4126 50.7277C52.365 52.0159 51.8501 51.9756 66.036 51.9756H78.8925L79.5656 53.2034C80.5215 54.9847 83.1836 57.6784 85.4689 59.1846C87.7541 60.6908 87.9123 60.7478 88.4474 60.3721C88.9825 59.9964 88.9657 59.7985 88.4676 58.2923C87.9405 56.635 87.5753 54.9307 87.3771 53.2034L87.2358 51.9756H89.1878C91.3519 51.9756 92.1866 51.6972 92.89 50.7277C93.3073 50.1742 93.3073 49.973 93.3073 38.9431C93.3073 28.5842 93.2871 27.6718 92.9505 27.0781C92.2337 25.7362 93.4251 25.8302 72.1042 25.8302C53.5564 25.8302 52.7622 25.8503 52.1665 26.2059Z" fill="#3992CE"/>
<path d="M41.1577 54.3439C39.2898 54.9377 37.4555 56.6418 36.907 58.2654C36.5391 59.5775 36.4975 60.9592 36.7858 62.2909C37.218 63.5806 38.028 64.7117 39.1114 65.5381C42.8135 68.2218 47.835 66.3902 49.0062 61.9353C49.7635 59.141 48.3129 56.0715 45.6103 54.7431C44.5771 54.2332 42.1505 54.0085 41.1577 54.3439Z" fill="#3992CE"/>
<path d="M99.0422 54.5687C98.3216 54.8802 97.6618 55.3163 97.0936 55.8568C96.3533 56.5693 95.7966 57.4492 95.4705 58.422C95.1444 59.3948 95.0586 60.4316 95.2205 61.4445C95.3824 62.4573 95.7871 63.4163 96.4003 64.2399C97.0135 65.0636 97.817 65.7276 98.7427 66.1755C99.5571 66.5531 100.443 66.7521 101.342 66.7591C102.24 66.766 103.129 66.5807 103.949 66.2157C106.356 65.1054 107.547 63.3811 107.685 60.8652C107.806 58.886 107.409 57.6582 106.197 56.3298C104.885 54.884 103.633 54.2903 101.667 54.2131C100.412 54.1728 99.8567 54.2332 99.0422 54.5687Z" fill="#3992CE"/>
<path d="M35.8333 67.0276C34.7687 67.8464 33.9731 68.9629 33.5481 70.2345C33.2115 71.1872 31.5826 88.4364 31.559 91.0127C31.559 93.2704 32.4543 94.5786 34.7193 95.5682C35.5944 95.9641 36.3684 96.0446 41.7534 96.3197L47.8114 96.6383L47.9494 99.0134C48.2859 104.857 48.5653 107.769 48.8042 108.363C49.4 109.788 51.665 110.305 52.8429 109.292C53.1887 109.034 53.4841 108.716 53.7146 108.352C54.0747 107.739 54.5123 94.8235 54.2531 93.2804C53.7348 90.4089 52.5703 89.6575 47.5556 88.9631L44.4357 88.527L44.3987 85.0617C44.3583 81.734 44.3583 81.6132 44.6949 82.0896C45.242 82.9564 45.9929 83.6772 46.8825 84.1895C47.5556 84.525 48.1917 84.5653 54.7108 84.5653H61.7786L62.3137 84.0721C63.4849 82.9819 63.7037 81.7743 62.9868 80.4861C62.7254 80.0515 62.3644 79.6847 61.9334 79.416C61.516 79.2382 59.6481 78.9799 56.6494 78.7216C54.0848 78.5069 51.6212 78.2855 51.1635 78.2285L50.3289 78.1077L48.3331 74.4714C47.2393 72.4586 46.068 70.409 45.7483 69.8756L45.1526 68.9464L43.0054 68.9263C40.986 68.9263 40.7605 68.886 39.5085 68.2923C38.7636 67.9424 38.0526 67.5247 37.3848 67.0444L36.6478 66.4204L35.8333 67.0276Z" fill="#3992CE"/>
<path d="M106.793 67.108C106.138 67.5817 105.439 67.9927 104.706 68.3358C103.572 68.8491 103.256 68.9094 101.287 68.9094L99.1028 68.9296L98.5273 69.899C98.2076 70.4525 97.0565 72.5122 95.9627 74.4948L93.9939 78.0976L93.1592 78.2184C92.7048 78.2787 90.2379 78.4968 87.6969 78.7148C82.5307 79.1476 81.9922 79.2885 81.3359 80.476C80.6022 81.7641 80.821 82.9718 82.009 84.062L82.5475 84.5585H89.6152C96.131 84.5585 96.7671 84.5182 97.4436 84.1794C98.3329 83.6678 99.0828 82.9468 99.6278 82.0795C99.9644 81.6065 99.9644 81.7239 99.9274 85.0516L99.887 88.5169L96.7873 88.953C92.4356 89.5467 91.1634 90.1606 90.3085 92.0828C90.0124 92.7772 89.972 93.3911 90.0124 96.7389C90.0494 98.8556 90.1302 102.244 90.211 104.263C90.3893 108.265 90.5475 108.839 91.6413 109.493C92.0976 109.704 92.5962 109.808 93.0989 109.797C93.6016 109.787 94.0954 109.662 94.5425 109.433C95.7339 108.721 95.7743 108.426 96.37 98.8187L96.5079 96.6383L102.566 96.3229C107.951 96.0445 108.728 95.964 109.6 95.5682C111.865 94.5786 112.74 93.3105 112.74 91.0328C112.74 89.5668 111.172 71.6233 110.973 70.8115C110.637 69.3657 109.29 67.4234 108.19 66.786C107.628 66.474 107.587 66.474 106.793 67.108Z" fill="#3992CE"/>
<path d="M32.2759 97.9265C31.4816 98.3995 31.2225 98.8758 31.2225 99.8855C31.2077 100.154 31.2515 100.422 31.3509 100.671C31.4502 100.921 31.6028 101.146 31.798 101.331L32.3735 101.979L39.5287 102.039L46.6604 102.096L46.5628 100.157C46.5224 99.0872 46.4214 98.1445 46.344 98.0976C46.2027 97.9567 37.2031 97.5239 34.5981 97.5239C33.2889 97.5273 32.774 97.6179 32.2759 97.9265Z" fill="#3992CE"/>
<path d="M101.923 97.8056C99.7793 97.9264 97.9888 98.0639 97.9316 98.1243C97.8184 98.7989 97.751 99.4803 97.7297 100.164L97.6321 102.103L104.784 102.046L111.939 101.979L112.515 101.325C112.753 101.073 112.928 100.77 113.028 100.439C113.127 100.108 113.148 99.7583 113.088 99.4179C113.029 99.0775 112.89 98.7557 112.683 98.4782C112.477 98.2006 112.208 97.9749 111.899 97.819C111.222 97.4701 108.065 97.4701 101.923 97.8056Z" fill="#3992CE"/>
<path d="M57.9149 90.4659H87.0002C87.9221 90.4659 88.6695 89.721 88.6695 88.8021V87.893C88.6695 86.9741 87.9221 86.2291 87.0002 86.2291H57.9149C56.9929 86.2291 56.2455 86.9741 56.2455 87.893V88.8021C56.2455 89.721 56.9929 90.4659 57.9149 90.4659Z" fill="#3992CE"/>
<path d="M58.4029 111.372C58.1733 110.869 58.0544 110.322 58.0544 109.77C58.0544 109.217 58.1733 108.671 58.4029 108.168L66.8168 92.2002C67.2813 91.3146 68.0385 91.3146 68.4996 92.2002C68.7307 92.7028 68.8503 93.2492 68.8503 93.802C68.8503 94.3549 68.7307 94.9012 68.4996 95.4038L60.0856 111.372C59.6279 112.264 58.8707 112.264 58.4029 111.372Z" fill="#3992CE"/>
<path d="M87.5319 110.543C86.9833 110.461 86.4589 110.262 85.9943 109.96C85.5297 109.658 85.1358 109.259 84.8395 108.792L76.025 93.0423C75.5337 92.1667 75.9476 91.5361 76.9472 91.63C77.4956 91.7115 78.0199 91.9098 78.4845 92.2114C78.9491 92.513 79.3431 92.9108 79.6397 93.3777L88.4575 109.144C88.9455 110.006 88.5315 110.637 87.5319 110.543Z" fill="#3992CE"/>
</svg>
