<svg width="131" height="145" viewBox="0 0 131 145" fill="none" xmlns="http://www.w3.org/2000/svg">
<g clip-path="url(#clip0)">
<path d="M118.585 26.4482C115.09 28.6892 110.997 29.8807 106.813 29.8751C103.493 29.876 100.218 29.1265 97.2451 27.6856C94.2723 26.2447 91.6827 24.1515 89.6796 21.5705C87.6765 18.9894 86.3145 15.9908 85.7006 12.8102C85.0867 9.62957 85.2376 6.3535 86.1415 3.23931C79.4837 1.08767 72.5142 -0.00610231 65.5 -9.74794e-05C29.3248 -9.74794e-05 0 28.5863 0 63.8508C0 99.1152 29.3248 127.702 65.5 127.702C101.675 127.702 131 99.1152 131 63.8508C131.02 50.4176 126.674 37.3235 118.585 26.4482Z" fill="#AADDF9"/>
<path d="M112.197 55.1666H106.537C106.366 53.7066 105.886 52.2969 105.129 51.0262C104.372 49.7555 103.354 48.6512 102.138 47.7827V46.0517C102.138 43.4724 101.088 40.9986 99.2179 39.1737C97.3481 37.3487 94.8116 36.322 92.1657 36.3188H87.8361C85.1926 36.3219 82.6583 37.3472 80.7893 39.1697C78.9203 40.9922 77.8693 43.463 77.8669 46.04V53.4678C77.6654 52.7726 77.3916 52.0994 77.0496 51.4585V46.04C77.0465 43.4627 75.9948 40.9919 74.1253 39.1695C72.2559 37.3471 69.7212 36.3219 67.0774 36.3188H62.7478C60.104 36.3219 57.5694 37.3471 55.6999 39.1695C53.8304 40.9919 52.7788 43.4627 52.7756 46.04V51.4585C52.4346 52.0995 52.1618 52.7727 51.9613 53.4678V46.0517C51.9613 43.4724 50.9111 40.9986 49.0413 39.1737C47.1715 37.3487 44.635 36.322 41.9891 36.3188H37.6595C35.0157 36.3219 32.4811 37.3471 30.6116 39.1695C28.7421 40.9919 27.6905 43.4627 27.6873 46.04V47.7739C26.4715 48.6419 25.4531 49.7457 24.6961 51.016C23.9391 52.2862 23.4599 53.6954 23.2886 55.1548H14.8937C14.5151 55.1556 14.1403 55.2291 13.7908 55.3712C13.4414 55.5132 13.124 55.721 12.857 55.9827C12.5899 56.2444 12.3784 56.5548 12.2345 56.8962C12.0906 57.2377 12.0172 57.6034 12.0184 57.9725V88.987C12.0184 89.6659 12.295 90.3171 12.7875 90.7971C13.28 91.2772 13.9479 91.5469 14.6444 91.5469C15.3408 91.5469 16.0088 91.2772 16.5012 90.7971C16.9937 90.3171 17.2704 89.6659 17.2704 88.987V66.6158H23.2195V75.057C23.2195 75.7349 23.4953 76.3851 23.9865 76.865C24.4776 77.3449 25.144 77.6153 25.8395 77.6169H27.6813V78.9935C26.9856 78.9935 26.3184 79.2629 25.8265 79.7424C25.3346 80.2219 25.0583 80.8723 25.0583 81.5504C25.0583 82.2286 25.3346 82.879 25.8265 83.3585C26.3184 83.838 26.9856 84.1074 27.6813 84.1074V93.2515C27.6813 93.9305 27.9579 94.5816 28.4504 95.0617C28.9429 95.5417 29.6108 95.8114 30.3073 95.8114C31.0037 95.8114 31.6717 95.5417 32.1642 95.0617C32.6566 94.5816 32.9333 93.9305 32.9333 93.2515V84.1103H40.2194V93.2515C40.2425 93.9159 40.5294 94.5455 41.0196 95.0075C41.5099 95.4695 42.1651 95.7277 42.8469 95.7277C43.5288 95.7277 44.184 95.4695 44.6742 95.0075C45.1645 94.5455 45.4514 93.9159 45.4744 93.2515V84.1074C46.1701 84.1074 46.8373 83.838 47.3292 83.3585C47.8211 82.879 48.0974 82.2286 48.0974 81.5504C48.0974 80.8723 47.8211 80.2219 47.3292 79.7424C46.8373 79.2629 46.1701 78.9935 45.4744 78.9935V77.6169H47.3162C47.6614 77.6169 48.0031 77.5506 48.3219 77.4217C48.6407 77.2929 48.9303 77.1041 49.1742 76.8661C49.4181 76.628 49.6114 76.3455 49.7432 76.0346C49.875 75.7237 49.9427 75.3905 49.9423 75.0541V66.6158H51.5437V75.057C51.5433 75.3934 51.6109 75.7266 51.7427 76.0375C51.8745 76.3484 52.0679 76.631 52.3118 76.869C52.5557 77.107 52.8453 77.2958 53.1641 77.4247C53.4829 77.5535 53.8246 77.6198 54.1697 77.6198H56.0115V78.9935C55.3159 78.9935 54.6487 79.2629 54.1568 79.7424C53.6649 80.2219 53.3885 80.8723 53.3885 81.5504C53.3885 82.2286 53.6649 82.879 54.1568 83.3585C54.6487 83.838 55.3159 84.1074 56.0115 84.1074V93.2515C56.0115 93.5877 56.0795 93.9206 56.2114 94.2312C56.3434 94.5417 56.5368 94.824 56.7807 95.0617C57.0245 95.2994 57.314 95.4879 57.6326 95.6166C57.9512 95.7452 58.2927 95.8114 58.6375 95.8114C58.9824 95.8114 59.3239 95.7452 59.6425 95.6166C59.9611 95.4879 60.2506 95.2994 60.4944 95.0617C60.7383 94.824 60.9317 94.5417 61.0637 94.2312C61.1956 93.9206 61.2635 93.5877 61.2635 93.2515V84.1103H68.5497V93.2515C68.5497 93.9305 68.8263 94.5816 69.3188 95.0617C69.8113 95.5417 70.4792 95.8114 71.1757 95.8114C71.8721 95.8114 72.5401 95.5417 73.0325 95.0617C73.525 94.5816 73.8017 93.9305 73.8017 93.2515V84.1074C74.4974 84.1074 75.1645 83.838 75.6564 83.3585C76.1483 82.879 76.4247 82.2286 76.4247 81.5504C76.4247 80.8723 76.1483 80.2219 75.6564 79.7424C75.1645 79.2629 74.4974 78.9935 73.8017 78.9935V77.6169H75.6465C76.3432 77.6161 77.0112 77.3457 77.5036 76.8652C77.9959 76.3847 78.2725 75.7332 78.2725 75.0541V66.6158H79.874V75.057C79.874 75.3936 79.9421 75.727 80.0744 76.038C80.2068 76.3489 80.4007 76.6314 80.6452 76.8692C80.8897 77.107 81.1799 77.2954 81.4992 77.4237C81.8185 77.552 82.1606 77.6176 82.506 77.6169H84.3478V78.9905C83.6521 78.9905 82.985 79.2599 82.493 79.7395C82.0011 80.219 81.7248 80.8694 81.7248 81.5475C81.7248 82.2257 82.0011 82.876 82.493 83.3556C82.985 83.8351 83.6521 84.1045 84.3478 84.1045V93.2486C84.3478 93.9275 84.6245 94.5787 85.1169 95.0587C85.6094 95.5388 86.2773 95.8085 86.9738 95.8085C87.6703 95.8085 88.3382 95.5388 88.8307 95.0587C89.3231 94.5787 89.5998 93.9275 89.5998 93.2486V84.1103H96.8859V93.2515C96.8859 93.9305 97.1626 94.5816 97.6551 95.0617C98.1475 95.5417 98.8155 95.8114 99.512 95.8114C100.208 95.8114 100.876 95.5417 101.369 95.0617C101.861 94.5816 102.138 93.9305 102.138 93.2515V84.1074C102.834 84.1074 103.501 83.838 103.993 83.3585C104.485 82.879 104.761 82.2286 104.761 81.5504C104.761 80.8723 104.485 80.2219 103.993 79.7424C103.501 79.2629 102.834 78.9935 102.138 78.9935V77.6169H103.983C104.68 77.6161 105.347 77.3457 105.84 76.8652C106.332 76.3847 106.609 75.7332 106.609 75.0541V66.6158H109.824V88.987C109.824 89.6659 110.1 90.3171 110.593 90.7971C111.085 91.2772 111.753 91.5469 112.45 91.5469C113.146 91.5469 113.814 91.2772 114.307 90.7971C114.799 90.3171 115.076 89.6659 115.076 88.987V57.9725C115.075 57.2285 114.771 56.5153 114.232 55.9893C113.692 55.4632 112.96 55.1673 112.197 55.1666ZM96.8739 77.6169V78.9905H89.5998V77.6169H96.8739ZM101.342 72.4971H85.117V56.3645C85.1186 54.8999 85.7161 53.4958 86.7784 52.4602C87.8408 51.4246 89.2812 50.8421 90.7836 50.8405H95.6721C97.1745 50.8421 98.6149 51.4246 99.6772 52.4602C100.74 53.4958 101.337 54.8999 101.339 56.3645L101.342 72.4971ZM62.7358 41.4503H67.0654C67.6871 41.448 68.3031 41.5653 68.8782 41.7954C69.4533 42.0256 69.9762 42.364 70.4169 42.7915C70.8576 43.2189 71.2074 43.7269 71.4464 44.2863C71.6854 44.8458 71.8089 45.4457 71.8096 46.0517V46.6375C70.4127 46.0282 68.8993 45.7138 67.3689 45.7149H62.4684C60.9389 45.7135 59.4265 46.028 58.0306 46.6375V46.0517C58.0314 44.8321 58.5286 43.6626 59.4129 42.7999C60.2973 41.9373 61.4967 41.4519 62.7478 41.4503H62.7358ZM92.1537 41.4503C93.3572 41.4514 94.5148 41.9009 95.3895 42.7067C96.2642 43.5126 96.7899 44.6139 96.8589 45.7852C96.4658 45.743 96.0706 45.7214 95.6751 45.7207H90.7986C87.9206 45.7191 85.1592 46.8291 83.1189 48.8078V46.0517C83.1197 44.8321 83.6169 43.6626 84.5012 42.7999C85.3856 41.9373 86.585 41.4519 87.8361 41.4503H92.1537ZM49.9483 60.2863H51.5497V61.5077H49.9483V60.2863ZM78.2785 60.2863H79.877V61.5077H78.2785V60.2863ZM46.7093 46.0517V48.8078C44.6683 46.8302 41.9073 45.7204 39.0296 45.7207H34.1381C33.7426 45.7214 33.3474 45.743 32.9543 45.7852C33.0233 44.6139 33.549 43.5126 34.4237 42.7067C35.2984 41.9009 36.456 41.4514 37.6595 41.4503H41.9891C43.2405 41.4519 44.4402 41.9372 45.3251 42.7998C46.2099 43.6624 46.7077 44.8318 46.7093 46.0517ZM17.2644 60.2863H23.2135V61.5077H17.2704L17.2644 60.2863ZM40.2254 77.6169V78.9905H32.9393V77.6169H40.2254ZM44.6962 72.4971H28.4715V56.3645C28.4731 54.8999 29.0706 53.4958 30.133 52.4602C31.1953 51.4246 32.6357 50.8421 34.1381 50.8405H39.0296C40.532 50.8421 41.9724 51.4246 43.0348 52.4602C44.0971 53.4958 44.6947 54.8999 44.6962 56.3645V72.4971ZM68.5557 77.6169V78.9905H61.2696V77.6169H68.5557ZM73.0265 72.4971H56.8017V56.3645C56.8033 54.8999 57.4009 53.4958 58.4632 52.4602C59.5256 51.4246 60.966 50.8421 62.4684 50.8405H67.3568C68.8595 50.8421 70.3002 51.4245 71.3631 52.46C72.4259 53.4955 73.0241 54.8997 73.0265 56.3645V72.4971ZM106.609 60.2863H109.824V61.5077H106.609V60.2863Z" fill="#3992CE"/>
<path opacity="0.57" d="M103.436 144.994C114.222 144.994 122.966 136.471 122.966 125.956C122.966 115.442 114.222 106.918 103.436 106.918C92.6499 106.918 83.9061 115.442 83.9061 125.956C83.9061 136.471 92.6499 144.994 103.436 144.994Z" fill="#EC2028"/>
<path d="M103.358 22.8457C109.829 22.8457 115.076 17.7315 115.076 11.4229C115.076 5.11419 109.829 0 103.358 0C96.8862 0 91.6399 5.11419 91.6399 11.4229C91.6399 17.7315 96.8862 22.8457 103.358 22.8457Z" fill="#79BC7D"/>
<path opacity="0.46" d="M125.141 17.2808C128.377 17.2808 131 14.7237 131 11.5693C131 8.415 128.377 5.85791 125.141 5.85791C121.905 5.85791 119.282 8.415 119.282 11.5693C119.282 14.7237 121.905 17.2808 125.141 17.2808Z" fill="#FE6B02"/>
</g>
<defs>
<clipPath id="clip0">
<rect width="131" height="145" fill="white"/>
</clipPath>
</defs>
</svg>
