<svg width="174" height="146" viewBox="0 0 174 146" fill="none" xmlns="http://www.w3.org/2000/svg">
<g clip-path="url(#clip0)">
<path opacity="0.57" d="M128.469 127.934C133.365 127.934 137.333 123.975 137.333 119.091C137.333 114.206 133.365 110.247 128.469 110.247C123.574 110.247 119.606 114.206 119.606 119.091C119.606 123.975 123.574 127.934 128.469 127.934Z" fill="#EC2028"/>
<path d="M121.334 140.488C124.165 140.488 126.459 138.199 126.459 135.375C126.459 132.551 124.165 130.261 121.334 130.261C118.504 130.261 116.209 132.551 116.209 135.375C116.209 138.199 118.504 140.488 121.334 140.488Z" fill="#79BC7D"/>
<path d="M110.42 118.541C110.419 115.185 111.355 111.896 113.122 109.04C114.888 106.184 117.417 103.876 120.424 102.372C123.431 100.869 126.798 100.23 130.148 100.527C133.499 100.824 136.7 102.046 139.394 104.055C143.976 94.3414 146.345 83.7358 146.331 73C146.331 32.6826 113.575 0 73.1656 0C32.7567 0 0 32.6826 0 73C0 113.317 32.7567 146 73.1656 146C88.6975 146.027 103.831 141.099 116.357 131.936C114.483 130.242 112.987 128.174 111.964 125.867C110.942 123.56 110.415 121.064 110.42 118.541Z" fill="#AADDF9"/>
<path opacity="0.46" d="M157.863 121.555C166.777 121.555 174.003 114.345 174.003 105.452C174.003 96.5578 166.777 89.348 157.863 89.348C148.949 89.348 141.723 96.5578 141.723 105.452C141.723 114.345 148.949 121.555 157.863 121.555Z" fill="#FE6B02"/>
<path d="M72.9475 29.8027C64.2419 29.8055 55.7377 32.416 48.5361 37.2962C41.3345 42.1763 35.7673 49.1013 32.5554 57.1744C33.9173 57.6083 35.2353 58.1689 36.4922 58.8487C39.582 51.0126 45.1241 44.3808 52.2946 39.9395C59.465 35.4982 67.8807 33.4846 76.2901 34.1982C84.6995 34.9118 92.6535 38.3145 98.9692 43.9002C105.285 49.4859 109.625 56.9562 111.344 65.2004C113.063 73.4445 112.069 82.0221 108.51 89.6575C104.951 97.2929 99.0176 103.578 91.5912 107.579C84.1647 111.58 75.6425 113.082 67.2917 111.862C58.9409 110.643 51.2076 106.767 45.2419 100.81C43.1516 98.7246 41.302 96.4119 39.7276 93.9155C38.6051 94.7959 37.4015 95.5685 36.1331 96.2227C40.1531 102.612 45.7741 107.845 52.4411 111.404C59.108 114.962 66.5902 116.724 74.1484 116.515C81.7067 116.306 89.0795 114.134 95.5387 110.212C101.998 106.29 107.32 100.755 110.979 94.1534C114.638 87.5516 116.508 80.1116 116.403 72.5683C116.299 65.0249 114.224 57.6393 110.383 51.1409C106.543 44.6425 101.07 39.2562 94.5042 35.514C87.9389 31.7718 80.5087 29.8033 72.9475 29.8027Z" fill="#3992CE"/>
<path d="M41.2952 60.1472L29.1261 55.704C25.4166 54.3497 21.3094 56.2513 19.9522 59.9514C18.5951 63.6516 20.502 67.7491 24.2114 69.1035L36.3806 73.5467C40.09 74.9011 44.1972 72.9994 45.5544 69.2993C46.9115 65.5991 45.0046 61.5016 41.2952 60.1472Z" fill="#3992CE"/>
<path d="M26.0258 71.504C26.3366 70.6564 25.9 69.7179 25.0506 69.4078C24.2011 69.0976 23.2605 69.5333 22.9496 70.3808L20.2357 77.7802C19.9248 78.6278 20.3614 79.5663 21.2109 79.8764C22.0604 80.1866 23.001 79.7509 23.3118 78.9034L26.0258 71.504Z" fill="#3992CE"/>
<path d="M36.2362 75.2298C36.547 74.3823 36.1104 73.4438 35.261 73.1336C34.4115 72.8235 33.4709 73.2591 33.16 74.1066L30.4461 81.506C30.1352 82.3536 30.5718 83.2921 31.4213 83.6022C32.2707 83.9124 33.2114 83.4767 33.5222 82.6292L36.2362 75.2298Z" fill="#3992CE"/>
<path d="M86.5905 66.718L70.7223 58.3464C69.5983 57.7528 68.3375 57.465 67.0666 57.5119C65.7958 57.5588 64.5597 57.9387 63.4827 58.6134C62.4057 59.2882 61.5257 60.234 60.9313 61.3557C60.3369 62.4774 60.049 63.7355 60.0965 65.0035L60.7678 82.9019C60.8161 84.1675 61.1969 85.3982 61.8721 86.4708C62.5474 87.5433 63.4933 88.4199 64.615 89.0128C65.7368 89.6056 66.9951 89.8939 68.2637 89.8487C69.5323 89.8035 70.7668 89.4264 71.8433 88.7552L87.047 79.2351C88.1255 78.5612 89.007 77.6159 89.6031 76.4941C90.1991 75.3724 90.4885 74.1138 90.4422 72.845C90.396 71.5762 90.0156 70.342 89.3395 69.2664C88.6633 68.1908 87.7152 67.3119 86.5905 66.718Z" fill="#3992CE"/>
</g>
<defs>
<clipPath id="clip0">
<rect width="174" height="146" fill="white"/>
</clipPath>
</defs>
</svg>
