<svg width="131" height="145" viewBox="0 0 131 145" fill="none" xmlns="http://www.w3.org/2000/svg">
<g clip-path="url(#clip0)">
<path opacity="0.46" d="M104.336 22.5739C110.579 22.5739 115.639 17.5206 115.639 11.287C115.639 5.05335 110.579 0 104.336 0C98.0938 0 93.0332 5.05335 93.0332 11.287C93.0332 17.5206 98.0938 22.5739 104.336 22.5739Z" fill="#FE6B02"/>
<path d="M119.024 26.1337C115.494 28.4483 111.339 29.6299 107.116 29.5201C102.894 29.4103 98.806 28.0143 95.4005 25.5193C91.9951 23.0242 89.4347 19.5494 88.0626 15.5604C86.6905 11.5714 86.5722 7.25889 87.7236 3.20089C81.3033 1.07546 74.5825 -0.00529327 67.8186 1.94922e-05C32.9239 1.94922e-05 4.63718 28.2464 4.63718 63.0913C4.63718 97.9362 32.9239 126.183 67.8186 126.183C102.713 126.183 131 97.9362 131 63.0913C131.02 49.8179 126.827 36.8796 119.024 26.1337Z" fill="#AADDF9"/>
<path d="M104.53 41.8197H31.1067C29.5333 41.8197 28.2578 43.0934 28.2578 44.6646V92.5156C28.2578 94.0868 29.5333 95.3605 31.1067 95.3605H104.53C106.104 95.3605 107.379 94.0868 107.379 92.5156V44.6646C107.379 43.0934 106.104 41.8197 104.53 41.8197Z" fill="white"/>
<path d="M104.53 42.8326C105.017 42.8334 105.483 43.0267 105.827 43.37C106.171 43.7134 106.364 44.179 106.365 44.6646V92.5156C106.364 93.0012 106.171 93.4667 105.827 93.8101C105.483 94.1535 105.017 94.3468 104.53 94.3475H31.1067C30.6204 94.3468 30.1542 94.1535 29.8103 93.8101C29.4664 93.4667 29.2729 93.0012 29.2721 92.5156V44.6646C29.2729 44.179 29.4664 43.7134 29.8103 43.37C30.1542 43.0267 30.6204 42.8334 31.1067 42.8326H104.53ZM104.53 40.8068H31.1067C30.0821 40.8068 29.0994 41.2132 28.3749 41.9367C27.6504 42.6602 27.2433 43.6414 27.2433 44.6646V92.5156C27.2433 93.5387 27.6504 94.52 28.3749 95.2435C29.0994 95.967 30.0821 96.3734 31.1067 96.3734H104.53C105.038 96.3734 105.54 96.2736 106.009 96.0798C106.478 95.8859 106.903 95.6017 107.262 95.2435C107.621 94.8852 107.906 94.46 108.1 93.9919C108.294 93.5239 108.394 93.0222 108.394 92.5156V44.6646C108.394 44.158 108.294 43.6563 108.1 43.1883C107.906 42.7202 107.621 42.2949 107.262 41.9367C106.903 41.5785 106.478 41.2943 106.009 41.1004C105.54 40.9065 105.038 40.8068 104.53 40.8068Z" fill="#3992CE"/>
<path d="M98.963 42.8326C98.671 44.069 97.9695 45.1706 96.9721 45.959C95.9748 46.7475 94.74 47.1764 93.4679 47.1764C92.1959 47.1764 90.9611 46.7475 89.9637 45.959C88.9663 45.1706 88.2648 44.069 87.9729 42.8326H49.1366C49.1366 44.0991 48.6328 45.3137 47.736 46.2093C46.8391 47.1048 45.6228 47.6079 44.3545 47.6079C43.0862 47.6079 41.8699 47.1048 40.9731 46.2093C40.0763 45.3137 39.5724 44.0991 39.5724 42.8326H29.2721V52.6726H107.235V42.8326H98.963Z" fill="#3992CE"/>
<path d="M53.0202 75.5359C54.0037 76.1263 55.1275 76.4431 56.2749 76.4533C58.1327 76.4533 59.2195 75.4751 59.2195 74.057C59.2195 72.7431 58.4689 71.9935 56.5676 71.2642C54.2722 70.451 52.855 69.2644 52.855 67.2848C52.855 65.0969 54.6693 63.4704 57.4023 63.4704C58.4806 63.4336 59.5506 63.6706 60.5121 64.1592L60.0107 65.6381C59.1901 65.1983 58.2728 64.9696 57.3415 64.9724C55.4199 64.9724 54.6896 66.1301 54.6896 67.0764C54.6896 68.3904 55.5446 69.0357 57.4864 69.7853C59.8658 70.7027 61.0773 71.8488 61.0773 73.9123C61.0773 76.08 59.4688 77.964 56.1503 77.964C54.7939 77.964 53.3129 77.5675 52.5623 77.0669L53.0202 75.5359Z" fill="#3992CE"/>
<path d="M71.9486 75.0033C71.9486 76.0452 71.9688 76.9626 72.0326 77.7556H70.4038L70.2995 76.1089H70.2589C69.9181 76.689 69.4292 77.1683 68.842 77.4978C68.2549 77.8273 67.5907 77.9952 66.9172 77.9842C65.3319 77.9842 63.4394 77.116 63.4394 73.5649V67.6697H65.2768V73.2524C65.2768 75.1712 65.8565 76.4619 67.5288 76.4619C67.8708 76.4635 68.2097 76.3971 68.5258 76.2665C68.8418 76.1359 69.1286 75.9437 69.3695 75.7013C69.6104 75.4588 69.8006 75.1709 69.9289 74.8543C70.0572 74.5377 70.1211 74.1988 70.1169 73.8573V67.6697H71.9544L71.9486 75.0033Z" fill="#3992CE"/>
<path d="M74.9946 70.3989C74.9946 69.357 74.9743 68.5033 74.9106 67.6698H76.5394L76.6437 69.3368H76.6843C77.0137 68.7453 77.499 68.2551 78.0875 67.9194C78.6761 67.5837 79.3455 67.4153 80.023 67.4325C81.4229 67.4325 83.5908 68.266 83.5908 71.7273V77.7499H81.7562V71.9415C81.7562 70.315 81.1505 68.9605 79.4173 68.9605C78.7151 68.9899 78.0521 69.2913 77.5688 69.8008C77.0856 70.3104 76.8203 70.988 76.8292 71.6897V77.7673H74.9946V70.3989Z" fill="#3992CE"/>
<path d="M44.1632 29.5198C43.73 29.5194 43.301 29.6043 42.9006 29.7697C42.5003 29.9351 42.1366 30.1777 41.8302 30.4836C41.5239 30.7895 41.281 31.1527 41.1153 31.5524C40.9497 31.9522 40.8647 32.3806 40.8651 32.8133V43.3044C40.8905 44.1606 41.249 44.9732 41.8644 45.5698C42.4799 46.1665 43.304 46.5002 44.1618 46.5002C45.0196 46.5002 45.8437 46.1665 46.4591 45.5698C47.0746 44.9732 47.4331 44.1606 47.4585 43.3044V32.8133C47.4589 32.3809 47.374 31.9527 47.2085 31.5531C47.0431 31.1535 46.8004 30.7905 46.4944 30.4846C46.1883 30.1787 45.825 29.9361 45.425 29.7705C45.025 29.605 44.5962 29.5198 44.1632 29.5198ZM44.198 35.308C43.8827 35.308 43.5746 35.2146 43.3124 35.0397C43.0503 34.8648 42.846 34.6162 42.7253 34.3254C42.6047 34.0345 42.5731 33.7145 42.6346 33.4057C42.6961 33.0969 42.8479 32.8133 43.0709 32.5907C43.2938 32.3681 43.5778 32.2165 43.887 32.155C44.1962 32.0936 44.5168 32.1252 44.808 32.2456C45.0993 32.3661 45.3482 32.5701 45.5234 32.8319C45.6986 33.0936 45.792 33.4014 45.792 33.7162C45.792 34.1384 45.6241 34.5432 45.3252 34.8418C45.0262 35.1403 44.6208 35.308 44.198 35.308Z" fill="#3992CE"/>
<path d="M93.1433 29.5198C92.7101 29.5194 92.281 29.6043 91.8807 29.7697C91.4804 29.9351 91.1167 30.1777 90.8103 30.4836C90.504 30.7895 90.2611 31.1527 90.0954 31.5524C89.9298 31.9522 89.8448 32.3806 89.8452 32.8133V43.3044C89.8706 44.1606 90.2291 44.9732 90.8445 45.5698C91.46 46.1665 92.2841 46.5002 93.1419 46.5002C93.9997 46.5002 94.8237 46.1665 95.4392 45.5698C96.0547 44.9732 96.4132 44.1606 96.4386 43.3044V32.8133C96.439 32.3809 96.354 31.9527 96.1886 31.5531C96.0232 31.1535 95.7805 30.7905 95.4745 30.4846C95.1684 30.1787 94.805 29.9361 94.405 29.7705C94.005 29.605 93.5763 29.5198 93.1433 29.5198ZM93.1781 35.308C92.8628 35.308 92.5546 35.2146 92.2925 35.0397C92.0304 34.8648 91.8261 34.6162 91.7054 34.3254C91.5848 34.0345 91.5532 33.7145 91.6147 33.4057C91.6762 33.0969 91.828 32.8133 92.051 32.5907C92.2739 32.3681 92.5579 32.2165 92.8671 32.155C93.1763 32.0936 93.4968 32.1252 93.7881 32.2456C94.0794 32.3661 94.3283 32.5701 94.5035 32.8319C94.6786 33.0936 94.7721 33.4014 94.7721 33.7162C94.7721 34.1384 94.6042 34.5432 94.3053 34.8418C94.0063 35.1403 93.6009 35.308 93.1781 35.308Z" fill="#3992CE"/>
<path d="M11.3031 40.8067C17.5456 40.8067 22.6062 35.7534 22.6062 29.5198C22.6062 23.2861 17.5456 18.2328 11.3031 18.2328C5.06057 18.2328 0 23.2861 0 29.5198C0 35.7534 5.06057 40.8067 11.3031 40.8067Z" fill="#79BC7D"/>
<path opacity="0.57" d="M29.2721 144.994C39.6763 144.994 48.1106 136.572 48.1106 126.183C48.1106 115.793 39.6763 107.371 29.2721 107.371C18.8679 107.371 10.4336 115.793 10.4336 126.183C10.4336 136.572 18.8679 144.994 29.2721 144.994Z" fill="#EC2028"/>
</g>
<defs>
<clipPath id="clip0">
<rect width="131" height="145" fill="white"/>
</clipPath>
</defs>
</svg>
