<svg width="141" height="135" viewBox="0 0 141 135" fill="none" xmlns="http://www.w3.org/2000/svg">
<path opacity="0.46" d="M20.5391 46.9445C29.551 46.9445 36.8565 39.7823 36.8565 30.9473C36.8565 22.1123 29.551 14.9501 20.5391 14.9501C11.5273 14.9501 4.22171 22.1123 4.22171 30.9473C4.22171 39.7823 11.5273 46.9445 20.5391 46.9445Z" fill="#FE6B02"/>
<path d="M40.5626 8.48333C42.952 8.48333 44.8891 6.58427 44.8891 4.24167C44.8891 1.89906 42.952 0 40.5626 0C38.1731 0 36.236 1.89906 36.236 4.24167C36.236 6.58427 38.1731 8.48333 40.5626 8.48333Z" fill="#79BC7D"/>
<path opacity="0.57" d="M7.48608 97.2361C11.6188 97.2361 14.969 93.9516 14.969 89.9C14.969 85.8483 11.6188 82.5638 7.48608 82.5638C3.35337 82.5638 0.00314331 85.8483 0.00314331 89.9C0.00314331 93.9516 3.35337 97.2361 7.48608 97.2361Z" fill="#EC2028"/>
<path d="M74.274 4.16658C60.3104 4.14554 46.6952 8.4397 35.3633 16.4388C39.2441 19.7911 41.7029 24.4471 42.2549 29.4889C42.8069 34.5307 41.4122 39.5923 38.3456 43.6757C35.279 47.7591 30.7632 50.5679 25.6885 51.5483C20.6139 52.5288 15.3487 51.6096 10.9312 48.9721C7.35952 59.5737 6.60089 70.8924 8.72679 81.861C9.76145 81.4783 10.8647 81.3057 11.9694 81.3538C13.0742 81.4019 14.1575 81.6696 15.1535 82.1407C16.1495 82.6119 17.0374 83.2765 17.7633 84.0944C18.4892 84.9123 19.038 85.8663 19.3763 86.8984C19.7147 87.9306 19.8355 89.0194 19.7314 90.0988C19.6273 91.1781 19.3006 92.2255 18.771 93.1772C18.2413 94.129 17.5199 94.9652 16.6505 95.6353C15.7812 96.3053 14.7819 96.7951 13.7135 97.0749C19.0656 108.402 27.6115 117.991 38.3423 124.711C49.0731 131.431 61.5409 135.001 74.274 135C111.125 135 141 105.711 141 69.5832C141 33.4555 111.125 4.16658 74.274 4.16658Z" fill="#AADDF9"/>
<path d="M110.759 33.8889H73.475C73.2541 33.8889 73.0354 33.9316 72.8314 34.0146C72.6274 34.0975 72.442 34.2191 72.2859 34.3724C72.1299 34.5256 72.0062 34.7075 71.9219 34.9077C71.8376 35.1079 71.7945 35.3224 71.7948 35.5389V48.3917L73.6592 47.2556C74.1204 46.9754 74.6275 46.7752 75.158 46.6639V37.1806H109.085V60.9695H75.158V57.1195L71.7948 59.1667V62.6167C71.7945 62.8332 71.8376 63.0477 71.9219 63.2479C72.0062 63.4481 72.1299 63.63 72.2859 63.7833C72.442 63.9365 72.6274 64.0581 72.8314 64.141C73.0354 64.224 73.2541 64.2667 73.475 64.2667H110.759C111.205 64.266 111.633 64.0918 111.948 63.7824C112.263 63.4731 112.44 63.0538 112.44 62.6167V35.5306C112.437 35.0949 112.259 34.6778 111.945 34.3702C111.63 34.0627 111.204 33.8896 110.759 33.8889Z" fill="#3992CE"/>
<path d="M86.296 43.0389C86.191 42.908 86.0607 42.7987 85.9125 42.7172C85.7644 42.6357 85.6013 42.5837 85.4326 42.5641C85.2639 42.5445 85.0929 42.5577 84.9294 42.6029C84.7659 42.6482 84.6132 42.7246 84.4798 42.8278L78.6828 47.3056C79.4258 47.7756 80.0158 48.4446 80.3828 49.2334L86.092 44.8195C86.225 44.7159 86.3359 44.5877 86.4181 44.442C86.5004 44.2964 86.5525 44.1362 86.5715 43.9708C86.5904 43.8053 86.5759 43.6378 86.5286 43.4779C86.4813 43.318 86.4023 43.1688 86.296 43.0389Z" fill="#3992CE"/>
<path d="M58.325 40.8834C60.9993 40.8834 63.1672 38.758 63.1672 36.1361C63.1672 33.5143 60.9993 31.3889 58.325 31.3889C55.6507 31.3889 53.4828 33.5143 53.4828 36.1361C53.4828 38.758 55.6507 40.8834 58.325 40.8834Z" fill="#3992CE"/>
<path d="M78.1104 49.9305C77.7826 49.4152 77.2596 49.0482 76.6563 48.9103C76.0529 48.7723 75.4183 48.8745 74.8917 49.1944L70.16 52.075C70.1401 48.2278 70.16 50.2694 70.1373 47.7917C70.1268 46.3584 69.5391 44.9872 68.5021 43.9768C67.4651 42.9664 66.0629 42.3986 64.6009 42.3972H62.3002C60.3367 47.3972 60.9713 45.5361 59.3025 49.775L60.0052 46.7833C60.0526 46.5593 60.0175 46.326 59.906 46.125L58.9625 44.4444L59.8125 42.9417C59.8408 42.8903 59.8551 42.8327 59.854 42.7743C59.8529 42.716 59.8365 42.6589 59.8063 42.6086C59.776 42.5583 59.7331 42.5165 59.6816 42.4872C59.63 42.458 59.5717 42.4423 59.5122 42.4417H57.1945C57.1349 42.4423 57.0766 42.458 57.025 42.4872C56.9735 42.5165 56.9306 42.5583 56.9004 42.6086C56.8701 42.6589 56.8537 42.716 56.8526 42.7743C56.8515 42.8327 56.8658 42.8903 56.8941 42.9417L57.7441 44.4472L56.7921 46.1444C56.6826 46.342 56.6465 46.5708 56.6901 46.7917L57.2993 49.7889C56.9706 48.9555 54.7068 43.2028 54.3951 42.4111H52.0519C50.5908 42.414 49.1901 42.9824 48.1543 43.9926C47.1186 45.0029 46.5316 46.3732 46.5211 47.8056L46.4361 64.6333C46.4343 64.9341 46.4929 65.2324 46.6087 65.511C46.7245 65.7895 46.8951 66.043 47.1109 66.2569C47.3267 66.4707 47.5834 66.6408 47.8663 66.7574C48.1491 66.8739 48.4527 66.9346 48.7595 66.9361C49.3772 66.9368 49.9701 66.6975 50.4082 66.2706C50.8464 65.8437 51.094 65.2639 51.097 64.6583L51.182 47.8278C51.182 47.7069 51.231 47.5911 51.3181 47.5056C51.4053 47.4202 51.5235 47.3722 51.6467 47.3722C51.77 47.3722 51.8881 47.4202 51.9753 47.5056C52.0624 47.5911 52.1114 47.7069 52.1114 47.8278V71.6667C54.1766 71.5777 56.1933 72.296 57.7186 73.6639V64.35H58.9342V75.0194C59.7776 76.2339 60.2469 77.6605 60.286 79.1293C60.3252 80.598 59.9327 82.0468 59.1552 83.3028C59.8764 83.3069 60.5941 83.4002 61.2915 83.5806C62.2265 82.7813 63.3411 82.2102 64.5442 81.9139C64.5442 40.3861 64.4932 66.0639 64.4932 47.8083C64.5026 47.6875 64.5582 47.5747 64.6488 47.4924C64.7394 47.41 64.8584 47.3643 64.982 47.3643C65.1055 47.3643 65.2245 47.41 65.3152 47.4924C65.4058 47.5747 65.4614 47.6875 65.4707 47.8083C65.4707 49.4167 65.5047 54.4389 65.5132 56.1861C65.5128 56.5947 65.624 56.9959 65.8352 57.3481C66.0463 57.7004 66.3498 57.9908 66.7141 58.1892C67.0784 58.3876 67.4902 58.4868 67.9069 58.4765C68.3235 58.4662 68.7297 58.3467 69.0833 58.1305L77.3511 53.0861C77.6124 52.9279 77.8393 52.7207 78.0189 52.4765C78.1985 52.2322 78.3272 51.9556 78.3977 51.6626C78.4683 51.3695 78.4792 51.0657 78.4299 50.7685C78.3806 50.4713 78.272 50.1866 78.1104 49.9305Z" fill="#3992CE"/>
<path d="M104.982 84.4084C107.813 84.4084 110.108 82.1586 110.108 79.3834C110.108 76.6082 107.813 74.3584 104.982 74.3584C102.151 74.3584 99.8566 76.6082 99.8566 79.3834C99.8566 82.1586 102.151 84.4084 104.982 84.4084Z" fill="#3992CE"/>
<path d="M117.452 91.7196C117.441 90.204 116.821 88.7538 115.725 87.6847C114.629 86.6156 113.147 86.0141 111.601 86.0112H98.7431C99.3524 87.1778 99.6464 88.478 99.5968 89.7877C99.5472 91.0974 99.1557 92.3728 98.4597 93.4918C99.832 93.5486 101.17 93.9281 102.361 94.5981C103.553 95.2681 104.562 96.2091 105.305 97.3418H111.459V91.7862C111.455 91.6514 111.505 91.5204 111.599 91.4219C111.693 91.3234 111.823 91.2656 111.961 91.2612C112.098 91.2568 112.232 91.3061 112.332 91.3983C112.433 91.4905 112.492 91.6181 112.496 91.7529L112.525 97.3501H117.472L117.452 91.7196Z" fill="#3992CE"/>
<path d="M83.9415 89.5111C83.94 88.2725 84.2463 87.0521 84.834 85.9556H73.4212C74.01 87.1146 74.2895 88.401 74.2335 89.6946C74.1775 90.9883 73.7879 92.2469 73.101 93.3528C74.2425 93.3586 75.3713 93.5888 76.4205 94.0296C77.4698 94.4705 78.4182 95.1131 79.2098 95.9194C80.7828 94.4055 82.896 93.5525 85.1003 93.5417C84.3402 92.3296 83.9389 90.934 83.9415 89.5111Z" fill="#3992CE"/>
<path d="M80.0513 74.3027C79.0376 74.3027 78.0466 74.5975 77.2037 75.1496C76.3608 75.7018 75.7038 76.4866 75.3159 77.4048C74.9279 78.323 74.8264 79.3333 75.0242 80.3081C75.222 81.2828 75.7101 82.1782 76.427 82.8809C77.1438 83.5837 78.0571 84.0623 79.0513 84.2562C80.0456 84.4501 81.0762 84.3506 82.0128 83.9702C82.9493 83.5899 83.7498 82.9458 84.3131 82.1195C84.8763 81.2931 85.1769 80.3216 85.1769 79.3277C85.1769 77.995 84.6369 76.7169 83.6756 75.7745C82.7144 74.8322 81.4107 74.3027 80.0513 74.3027Z" fill="#3992CE"/>
<path d="M58.58 89.3778C58.5788 88.1921 58.8591 87.0223 59.3988 85.9612C59.1778 85.9612 60.1072 85.9612 45.8298 85.9612C44.2843 85.9648 42.8027 86.566 41.7066 87.6343C40.6106 88.7025 39.9887 90.1516 39.9761 91.6667L39.9477 97.3445H44.8948L44.9231 91.6917C44.9328 91.5638 44.9915 91.4441 45.0874 91.3568C45.1833 91.2695 45.3093 91.2209 45.4402 91.2209C45.5711 91.2209 45.6972 91.2695 45.7931 91.3568C45.889 91.4441 45.9476 91.5638 45.9573 91.6917V97.3417H52.8934C53.6255 96.1904 54.6327 95.2312 55.828 94.5473C57.0232 93.8634 58.3704 93.4754 59.753 93.4167C58.9834 92.2049 58.5769 90.8053 58.58 89.3778Z" fill="#3992CE"/>
<path d="M52.4486 74.3027C51.4348 74.3027 50.4439 74.5975 49.601 75.1496C48.7581 75.7018 48.1011 76.4866 47.7132 77.4048C47.3252 78.323 47.2237 79.3333 47.4215 80.3081C47.6193 81.2828 48.1074 82.1782 48.8242 82.8809C49.5411 83.5837 50.4544 84.0623 51.4486 84.2562C52.4429 84.4501 53.4735 84.3506 54.41 83.9702C55.3466 83.5899 56.1471 82.9458 56.7103 82.1195C57.2735 81.2931 57.5741 80.3216 57.5741 79.3277C57.5741 77.995 57.0341 76.7169 56.0729 75.7745C55.1117 74.8322 53.808 74.3027 52.4486 74.3027Z" fill="#3992CE"/>
<path d="M103.968 101.828C103.959 100.31 103.338 98.8582 102.242 97.7874C101.145 96.7165 99.6617 96.114 98.114 96.1111H85.1485C81.9383 96.1111 79.1446 98.6722 79.1276 101.819L79.0851 101.686C79.0739 100.17 78.4526 98.7201 77.3563 97.6511C76.2601 96.582 74.7776 95.9807 73.2313 95.9778H60.2658C57.0556 95.9778 54.2619 98.5389 54.2449 101.686L54.2166 107.497H59.1636L59.192 101.711C59.192 101.595 59.2389 101.485 59.3223 101.403C59.4057 101.321 59.5188 101.275 59.6368 101.275C59.7548 101.275 59.8679 101.321 59.9514 101.403C60.0348 101.485 60.0817 101.595 60.0817 101.711V107.5H73.1832V101.722C73.1781 101.658 73.1867 101.593 73.2084 101.532C73.2301 101.471 73.2644 101.415 73.3092 101.367C73.3541 101.32 73.4084 101.282 73.4689 101.256C73.5293 101.23 73.5946 101.217 73.6606 101.217C73.7266 101.217 73.7919 101.23 73.8523 101.256C73.9128 101.282 73.9671 101.32 74.012 101.367C74.0568 101.415 74.0911 101.471 74.1128 101.532C74.1345 101.593 74.1431 101.658 74.138 101.722L74.1692 107.508H84.0435L84.0747 101.856C84.0747 101.74 84.1215 101.629 84.205 101.547C84.2884 101.465 84.4015 101.419 84.5195 101.419C84.6375 101.419 84.7506 101.465 84.834 101.547C84.9175 101.629 84.9643 101.74 84.9643 101.856V107.5H98.0658V101.856C98.0608 101.791 98.0694 101.726 98.0911 101.665C98.1127 101.604 98.1471 101.548 98.1919 101.501C98.2367 101.453 98.2911 101.415 98.3516 101.389C98.412 101.363 98.4773 101.35 98.5433 101.35C98.6093 101.35 98.6745 101.363 98.735 101.389C98.7955 101.415 98.8498 101.453 98.8946 101.501C98.9395 101.548 98.9738 101.604 98.9955 101.665C99.0172 101.726 99.0258 101.791 99.0207 101.856L99.049 107.508H103.985L103.968 101.828Z" fill="#3992CE"/>
<path d="M66.5729 94.4417C69.4366 94.4417 71.758 92.1658 71.758 89.3584C71.758 86.5509 69.4366 84.275 66.5729 84.275C63.7093 84.275 61.3878 86.5509 61.3878 89.3584C61.3878 92.1658 63.7093 94.4417 66.5729 94.4417Z" fill="#3992CE"/>
<path d="M91.7673 94.575C94.6309 94.575 96.9523 92.2991 96.9523 89.4917C96.9523 86.6842 94.6309 84.4083 91.7673 84.4083C88.9037 84.4083 86.5822 86.6842 86.5822 89.4917C86.5822 92.2991 88.9037 94.575 91.7673 94.575Z" fill="#3992CE"/>
</svg>
