<svg xmlns="http://www.w3.org/2000/svg" xmlns:xlink="http://www.w3.org/1999/xlink" width="790" height="551" viewBox="0 0 790 551"><defs><clipPath id="a"><rect width="790" height="551" fill="#fff"/></clipPath></defs><g clip-path="url(#a)"><path d="M315.056,70.435A186.324,186.324,0,0,0,91.243,45.243C162.977,70.91,242.128,71.854,315.056,70.435Z" fill="#2386c8" opacity="0.1"/><path d="M730.818,487.292,652.483,351.669a2.492,2.492,0,0,0-4.328,0L569.82,487.292a2.491,2.491,0,0,0,2.16,3.774h23.367a2.506,2.506,0,0,1,2.5,2.5v28.944a2.5,2.5,0,0,0,2.493,2.5h30.489a2.5,2.5,0,0,0,2.5-2.5V508.52a2.492,2.492,0,0,1,2.493-2.491h28.986a2.5,2.5,0,0,1,2.5,2.491v13.989a2.5,2.5,0,0,0,2.5,2.5H700.29a2.5,2.5,0,0,0,2.5-2.5V493.535a2.5,2.5,0,0,1,2.5-2.5h23.368a2.5,2.5,0,0,0,2.16-3.744ZM621.577,502.3a2.494,2.494,0,0,1-1.767.754H608.836a2.5,2.5,0,1,1,0-5h11a2.5,2.5,0,0,1,1.767,4.265Zm71.961,0a2.494,2.494,0,0,1-1.767.754H680.8a2.5,2.5,0,1,1,0-5h11.011a2.5,2.5,0,0,1,1.768,4.265Z" fill="#2386c8" opacity="0.1"/><path d="M246.63,488.484,168.294,352.861a2.5,2.5,0,0,0-4.327,0L96.3,470a206.631,206.631,0,0,0,28.315,29.223h11.026a2.5,2.5,0,1,1,0,5h-4.652A121.155,121.155,0,0,0,149.118,515.5V509.72a2.5,2.5,0,0,1,2.5-2.5H180.6a2.5,2.5,0,0,1,2.492,2.5V523.7a2.438,2.438,0,0,0,.234,1.049,2.505,2.505,0,0,0,2.266,1.45h30.49a2.452,2.452,0,0,0,1.986-1,2.4,2.4,0,0,0,.506-1.51V494.735a2.5,2.5,0,0,1,2.5-2.5h23.368a2.5,2.5,0,0,0,2.183-3.752Zm-51.773,11.475a2.5,2.5,0,0,1,1.767-.755h11a2.5,2.5,0,1,1,0,5h-11a2.5,2.5,0,0,1-1.767-4.265Zm-49.205-50.187a2.5,2.5,0,0,1-2.5-2.5V428.294a2.5,2.5,0,0,1,2.5-2.5h40.972a2.5,2.5,0,0,1,2.493,2.5v18.979a2.5,2.5,0,0,1-2.493,2.5Z" fill="#2386c8" opacity="0.1"/><path d="M556.27,244.854H459.333V223.9a5.014,5.014,0,0,0-5.015-5.013H425.852V196.561A3.155,3.155,0,0,0,422.7,193.4H386.028a3.155,3.155,0,0,0-3.157,3.156v22.316H349.4a5.014,5.014,0,0,0-5.015,5.012v20.957H251.954a1.019,1.019,0,0,0-1.012,1.019V524.079a1.019,1.019,0,0,0,1.012,1.019h61.433a1.018,1.018,0,0,0,1.019-1.019V486.65a1.026,1.026,0,0,1,1.02-1.019h25.951a1.026,1.026,0,0,1,1.019,1.019v37.429a1.019,1.019,0,0,0,1.012,1.019H464.816a1.026,1.026,0,0,0,1.02-1.019V486.65a1.019,1.019,0,0,1,1.012-1.019H492.8a1.019,1.019,0,0,1,1.02,1.019v37.429a1.026,1.026,0,0,0,1.02,1.019H556.27a1.026,1.026,0,0,0,1.02-1.019V245.873a1.026,1.026,0,0,0-1.02-1.019ZM303.41,472.631a1.012,1.012,0,0,1-1.012,1.011H264.454a1.006,1.006,0,0,1-.721-.293,1.014,1.014,0,0,1-.3-.718V459.7a1.019,1.019,0,0,1,1.02-1.019H302.4a1.019,1.019,0,0,1,1.012,1.019Zm0-33.474a1.021,1.021,0,0,1-.075.39,1,1,0,0,1-.219.33,1,1,0,0,1-.718.3H264.454a1.013,1.013,0,0,1-1.02-1.019V426.21a1.013,1.013,0,0,1,1.02-1.019H302.4a1.012,1.012,0,0,1,.937.63,1.016,1.016,0,0,1,.075.389Zm0-33.466a1.019,1.019,0,0,1-1.012,1.019H264.454a1.029,1.029,0,0,1-.391-.077,1.022,1.022,0,0,1-.629-.942V392.737a1.019,1.019,0,0,1,1.02-1.019H302.4a1.019,1.019,0,0,1,1.012,1.019Zm0-33.473a1.013,1.013,0,0,1-.294.72,1,1,0,0,1-.329.221,1.019,1.019,0,0,1-.389.078H264.454a1.01,1.01,0,0,1-.392-.076,1.029,1.029,0,0,1-.332-.22,1.02,1.02,0,0,1-.3-.723V359.293a1.02,1.02,0,0,1,.3-.723,1.029,1.029,0,0,1,.332-.22,1.011,1.011,0,0,1,.392-.076H302.4a1.019,1.019,0,0,1,.389.078,1.011,1.011,0,0,1,.548.552,1.016,1.016,0,0,1,.075.389Zm0-33.466a1.019,1.019,0,0,1-1.012,1.019H264.454a1.021,1.021,0,0,1-1.02-1.019V325.8a1.014,1.014,0,0,1,.3-.718,1.006,1.006,0,0,1,.721-.293H302.4a1.012,1.012,0,0,1,1.012,1.011Zm0-33.466A1.012,1.012,0,0,1,302.4,306.3H264.454a1.006,1.006,0,0,1-.721-.293,1.014,1.014,0,0,1-.3-.718V292.331a1.019,1.019,0,0,1,1.02-1.019H302.4a1.019,1.019,0,0,1,1.012,1.019Zm0-33.474a1.021,1.021,0,0,1-.075.39,1,1,0,0,1-.219.33,1,1,0,0,1-.718.3H264.454a1.013,1.013,0,0,1-1.02-1.019V258.888a1.01,1.01,0,0,1,1.02-1.019H302.4a1,1,0,0,1,.718.3,1,1,0,0,1,.219.33,1.021,1.021,0,0,1,.075.39Zm89.959,200.811a1.012,1.012,0,0,1-1.02,1.012H354.4a1.021,1.021,0,0,1-1.02-1.012V459.7a1.026,1.026,0,0,1,1.02-1.019h37.944a1.019,1.019,0,0,1,1.02,1.019Zm0-33.473a1.014,1.014,0,0,1-1.02,1.019H354.4a1.022,1.022,0,0,1-.942-.629,1.024,1.024,0,0,1-.078-.39V426.21a1.024,1.024,0,0,1,.078-.39,1.022,1.022,0,0,1,.942-.629h37.944a1.013,1.013,0,0,1,1.02,1.019Zm0-33.466a1.021,1.021,0,0,1-1.02,1.019H354.4a1.028,1.028,0,0,1-1.02-1.019V392.737a1.026,1.026,0,0,1,1.02-1.019h37.944a1.019,1.019,0,0,1,1.02,1.019Zm0-33.474a1.011,1.011,0,0,1-1.02,1.019H354.4a1.02,1.02,0,0,1-1.02-1.019V359.293a1.028,1.028,0,0,1,.078-.39,1.021,1.021,0,0,1,.552-.551,1.02,1.02,0,0,1,.39-.078h37.944a1.013,1.013,0,0,1,1.02,1.019Zm0-33.466a1.019,1.019,0,0,1-1.02,1.019H354.4a1.026,1.026,0,0,1-1.02-1.019V325.8a1.019,1.019,0,0,1,1.02-1.011h37.944a1.021,1.021,0,0,1,.39.074,1.033,1.033,0,0,1,.331.219,1.014,1.014,0,0,1,.3.718Zm0-33.466a1.012,1.012,0,0,1-1.02,1.012H354.4a1.021,1.021,0,0,1-1.02-1.012V292.331a1.028,1.028,0,0,1,1.02-1.019h37.944a1.019,1.019,0,0,1,1.02,1.019Zm0-33.473a1.014,1.014,0,0,1-1.02,1.019H354.4a1.023,1.023,0,0,1-.721-.3,1.008,1.008,0,0,1-.221-.33,1.028,1.028,0,0,1-.078-.39V258.888a1.019,1.019,0,0,1,1.02-1.019h37.944a1.013,1.013,0,0,1,1.02,1.019Zm61.47,200.811a1.014,1.014,0,0,1-.3.718,1.006,1.006,0,0,1-.72.293H415.875a1.018,1.018,0,0,1-1.019-1.011V459.7a1.026,1.026,0,0,1,1.019-1.019H453.82a1.019,1.019,0,0,1,1.019,1.019Zm0-33.474a1.026,1.026,0,0,1-.075.391,1.01,1.01,0,0,1-.944.628H415.875a1.017,1.017,0,0,1-.721-.3,1.044,1.044,0,0,1-.221-.331,1.019,1.019,0,0,1-.077-.39V426.21a1.023,1.023,0,0,1,.077-.39,1.04,1.04,0,0,1,.221-.33,1.023,1.023,0,0,1,.721-.3H453.82a1.012,1.012,0,0,1,.944.628,1.026,1.026,0,0,1,.075.391Zm0-33.466a1.019,1.019,0,0,1-1.019,1.019H415.875a1.026,1.026,0,0,1-1.019-1.019V392.737a1.026,1.026,0,0,1,1.019-1.019H453.82a1.019,1.019,0,0,1,1.019,1.019Zm0-33.473a1.026,1.026,0,0,1-.075.391,1.016,1.016,0,0,1-.221.332,1.029,1.029,0,0,1-.332.22,1.009,1.009,0,0,1-.391.076H415.875a1.025,1.025,0,0,1-.39-.078,1.012,1.012,0,0,1-.331-.221,1.039,1.039,0,0,1-.221-.33,1.027,1.027,0,0,1-.077-.39v-12.91a1.027,1.027,0,0,1,.077-.39,1.039,1.039,0,0,1,.221-.33,1.012,1.012,0,0,1,.331-.221,1.025,1.025,0,0,1,.39-.078H453.82a1.009,1.009,0,0,1,.391.076,1.029,1.029,0,0,1,.332.22,1.016,1.016,0,0,1,.221.332,1.026,1.026,0,0,1,.075.391Zm0-33.466a1.021,1.021,0,0,1-1.019,1.019H415.875a1.028,1.028,0,0,1-1.019-1.019V325.8a1.017,1.017,0,0,1,1.019-1.011H453.82a1.006,1.006,0,0,1,.72.293,1.014,1.014,0,0,1,.3.718Zm0-33.466a1.012,1.012,0,0,1-1.019,1.011H415.875a1.019,1.019,0,0,1-1.019-1.011v-12.94a1.028,1.028,0,0,1,1.019-1.019H453.82a1.019,1.019,0,0,1,1.019,1.019Zm0-33.474a1.026,1.026,0,0,1-.075.391,1.01,1.01,0,0,1-.944.628H415.875a1.024,1.024,0,0,1-.39-.077,1.018,1.018,0,0,1-.552-.552,1.023,1.023,0,0,1-.077-.39V258.888a1.019,1.019,0,0,1,.077-.39,1.044,1.044,0,0,1,.221-.331,1.017,1.017,0,0,1,.721-.3H453.82a1.012,1.012,0,0,1,.944.628,1.026,1.026,0,0,1,.075.391ZM544.8,472.608a1.019,1.019,0,0,1-1.02,1.012H505.834a1.016,1.016,0,0,1-.389-.075,1,1,0,0,1-.331-.219,1,1,0,0,1-.3-.718V459.7a1.017,1.017,0,0,1,1.019-1.019h37.952A1.024,1.024,0,0,1,544.8,459.7Zm0-33.473a1.021,1.021,0,0,1-1.02,1.019H505.834a1.009,1.009,0,0,1-.391-.076,1.029,1.029,0,0,1-.332-.22,1.009,1.009,0,0,1-.3-.723V426.21a1.013,1.013,0,0,1,1.019-1.019h37.952a1.019,1.019,0,0,1,1.019,1.019Zm0-33.466a1.028,1.028,0,0,1-1.02,1.019H505.834a1.019,1.019,0,0,1-1.019-1.019V392.737a1.017,1.017,0,0,1,1.019-1.019h37.952a1.024,1.024,0,0,1,1.019,1.019Zm0-33.474a1.019,1.019,0,0,1-1.02,1.019H505.834a1.01,1.01,0,0,1-1.019-1.019v-12.9a1.009,1.009,0,0,1,.3-.723,1.029,1.029,0,0,1,.332-.22,1.009,1.009,0,0,1,.391-.076h37.952a1.019,1.019,0,0,1,1.019,1.019Zm0-33.466a1.026,1.026,0,0,1-1.02,1.019H505.834a1.017,1.017,0,0,1-1.019-1.019V325.8a1.009,1.009,0,0,1,1.019-1.011h37.952A1.017,1.017,0,0,1,544.8,325.8Zm0-33.466a1.019,1.019,0,0,1-1.012,1.034H505.834a1.009,1.009,0,0,1-1.019-1.011V292.331a1.017,1.017,0,0,1,1.019-1.019h37.952a1.026,1.026,0,0,1,1.019,1.019Zm0-33.473a1.021,1.021,0,0,1-1.02,1.019H505.834a1.01,1.01,0,0,1-1.019-1.019v-12.9a1.01,1.01,0,0,1,1.019-1.019h37.952a1.017,1.017,0,0,1,1.019,1.019Z" fill="#2386c8" opacity="0.1"/><path d="M280.2,169.451a21.836,21.836,0,0,0-12.666,1.374,18.671,18.671,0,0,1-15.279-.037,21.323,21.323,0,0,0-17.884.354,11.145,11.145,0,0,1-5.151,1.284c-7.251,0-13.285-7.3-14.539-16.933a13.908,13.908,0,0,0,3.625-3.9c4.252-6.847,10.838-11.249,18.232-11.249s13.9,4.349,18.126,11.12a13.984,13.984,0,0,0,12.047,6.614h.189C272.731,158.075,277.731,162.7,280.2,169.451Z" fill="#2386c8" opacity="0.1"/><path d="M302.254,139.216l-11.721,7.429,7.114-12.932a11.585,11.585,0,0,0-7.092-2.529h-.188a13.749,13.749,0,0,1-2.432-.181l-3.958,2.521,1.707-3.1a14.126,14.126,0,0,1-6.948-5.284l-7.115,4.529,4.479-8.183c-4.162-4.99-9.766-8.048-15.929-8.048-7.394,0-13.98,4.394-18.232,11.241a13.631,13.631,0,0,1-12.084,6.5h-.4c-8.164,0-14.78,9.248-14.78,20.662s6.616,20.663,14.78,20.663a11.043,11.043,0,0,0,5.151-1.291,21.318,21.318,0,0,1,17.884-.347,18.673,18.673,0,0,0,15.211,0,21.313,21.313,0,0,1,17.734.339,11.062,11.062,0,0,0,5.09,1.261c8.164,0,14.781-9.255,14.781-20.662A26.246,26.246,0,0,0,302.254,139.216Z" fill="#2386c8" opacity="0.1"/><path d="M628.375,307.2a15.35,15.35,0,0,0-8.867.959,13.046,13.046,0,0,1-10.649,0,14.93,14.93,0,0,0-12.522.249,7.763,7.763,0,0,1-3.6.9c-5.075,0-9.3-5.11-10.173-11.852a9.869,9.869,0,0,0,2.538-2.733c2.975-4.794,7.552-7.874,12.756-7.874s9.735,3.02,12.711,7.784a9.774,9.774,0,0,0,8.428,4.627h.136C623.133,299.246,626.63,302.485,628.375,307.2Z" fill="#2386c8" opacity="0.1"/><path d="M643.8,286.065l-8.2,5.2,4.977-9.059a8.109,8.109,0,0,0-4.962-1.767h-.128a9.781,9.781,0,0,1-1.7-.128l-2.787,1.759,1.194-2.159a9.97,9.97,0,0,1-4.864-3.692l-4.992,3.14,3.142-5.714a14.5,14.5,0,0,0-11.148-5.64c-5.174,0-9.818,3.08-12.764,7.874a9.533,9.533,0,0,1-8.436,4.53h-.249c-5.71,0-10.347,6.47-10.347,14.457s4.637,14.464,10.347,14.464a7.768,7.768,0,0,0,3.6-.9A14.9,14.9,0,0,1,609,308.192a13.122,13.122,0,0,0,10.65,0,14.923,14.923,0,0,1,12.408.242,7.83,7.83,0,0,0,3.565.876c5.718,0,10.347-6.47,10.347-14.465A18.379,18.379,0,0,0,643.8,286.065Z" fill="#2386c8" opacity="0.1"/><path d="M180.22,258.888a15.348,15.348,0,0,1,8.866.959,13.03,13.03,0,0,0,10.642,0,14.93,14.93,0,0,1,12.522.249,7.8,7.8,0,0,0,3.6.9c5.075,0,9.305-5.111,10.181-11.852a9.769,9.769,0,0,1-2.538-2.733c-2.961-4.809-7.59-7.9-12.779-7.9s-9.728,3.019-12.7,7.783a9.822,9.822,0,0,1-8.444,4.643h-.129C185.423,250.931,181.919,254.169,180.22,258.888Z" fill="#2386c8" opacity="0.1"/><path d="M164.752,237.75l8.2,5.179-4.985-9.06a8.131,8.131,0,0,1,4.962-1.766h.136a9.981,9.981,0,0,0,1.7-.128l2.779,1.759-1.193-2.16a9.968,9.968,0,0,0,4.871-3.691l4.977,3.155-3.149-5.714a14.573,14.573,0,0,1,11.155-5.64c5.174,0,9.818,3.08,12.764,7.874a9.524,9.524,0,0,0,8.436,4.53h.272c5.717,0,10.347,6.47,10.347,14.457s-4.63,14.464-10.347,14.464a7.815,7.815,0,0,1-3.6-.9,14.9,14.9,0,0,0-12.522-.242,13.1,13.1,0,0,1-10.641,0,14.934,14.934,0,0,0-12.417.242,7.8,7.8,0,0,1-3.565.875c-5.709,0-10.347-6.469-10.347-14.464A18.378,18.378,0,0,1,164.752,237.75Z" fill="#2386c8" opacity="0.1"/><path d="M165.16,528.5c10.226,6.492,24.961-.076,35.255,6.318,2.659,1.646,4.8,4.069,7.553,5.564,3.3,1.8,7.182,2.129,10.936,2.265,31.434,1.215,63.4-7.549,94.045-.468,8.572,1.978,16.955,5.194,25.739,5.662,15.173.823,29.712-6.576,44.9-6.983,23.035-.619,45.67,14.789,67.9,8.712,7.311-2,14.017-6.266,21.562-6.983,8.406-.755,16.488,2.906,24.66,5.042,28.979,7.55,59.159-4.68,89.12-5.594,19.539-.6,38.888,3.662,58.412,4.643,13.881.7,27.793-.279,41.66-1.245,5.286-.37,10.823-.823,15.248-3.722s7.145-9.127,4.411-13.657Z" fill="#3f3d56"/><path d="M165.16,528.5c10.226,6.492,24.961-.076,35.255,6.318,2.659,1.646,4.8,4.069,7.553,5.564,3.3,1.8,7.182,2.129,10.936,2.265,31.434,1.215,63.4-7.549,94.045-.468,8.572,1.978,16.955,5.194,25.739,5.662,15.173.823,29.712-6.576,44.9-6.983,23.035-.619,45.67,14.789,67.9,8.712,7.311-2,14.017-6.266,21.562-6.983,8.406-.755,16.488,2.906,24.66,5.042,28.979,7.55,59.159-4.68,89.12-5.594,19.539-.6,38.888,3.662,58.412,4.643,13.881.7,27.793-.279,41.66-1.245,5.286-.37,10.823-.823,15.248-3.722s7.145-9.127,4.411-13.657Z" opacity="0.1"/><path d="M165.16,524.721c10.226,6.492,24.961-.076,35.255,6.319,2.659,1.645,4.8,4.069,7.553,5.563,3.3,1.8,7.182,2.129,10.936,2.265,31.434,1.216,63.4-7.549,94.045-.468,8.572,1.978,16.955,5.194,25.739,5.662,15.173.823,29.712-6.575,44.9-6.983,23.035-.619,45.67,14.789,67.9,8.712,7.311-2,14.017-6.266,21.562-6.983,8.406-.755,16.488,2.906,24.66,5.043,28.979,7.549,59.159-4.681,89.12-5.594,19.539-.6,38.888,3.661,58.412,4.643,13.881.694,27.793-.28,41.66-1.246,5.286-.37,10.823-.823,15.248-3.722s7.145-9.127,4.411-13.657Z" fill="#3f3d56"/><g opacity="0.1"><path d="M92.406,431.714a18.455,18.455,0,0,1-2.439,9.346,19.123,19.123,0,0,1,0,18.692,17.164,17.164,0,0,1,1.843,4.529,342.741,342.741,0,0,1-22.726-33.972,18.117,18.117,0,0,1,2.387-7.972,18.448,18.448,0,0,1-2.439-9.346,19.214,19.214,0,0,1,1.1-6.5,16.179,16.179,0,0,1,1.337-2.846c2.13-3.616,5.483-5.948,9.244-5.948s7.122,2.332,9.252,5.948a16.829,16.829,0,0,1,1.307,2.756,19.337,19.337,0,0,1,1.133,6.59,18.45,18.45,0,0,1-2.439,9.346A18.455,18.455,0,0,1,92.406,431.714Z" fill="#3f3d56" opacity="0.1"/><path d="M80.715,409.632c6.453,0,11.684-6.848,11.684-15.295s-5.231-15.3-11.684-15.3-11.684,6.848-11.684,15.3S74.262,409.632,80.715,409.632Z" fill="#3f3d56" opacity="0.1"/><path d="M80.715,390.94c6.453,0,11.684-6.848,11.684-15.3S87.167,360.35,80.715,360.35,69.031,367.2,69.031,375.645,74.262,390.94,80.715,390.94Z" fill="#3f3d56" opacity="0.1"/><path d="M136.453,282.291a55.69,55.69,0,0,1-11.986,34.6A55.962,55.962,0,0,1,91.235,406.4c-1.344.272-2.711.483-4.093.649a56.542,56.542,0,0,1-12.839.068q-2.13-.227-4.207-.627a55.335,55.335,0,0,1-17.371-6.349,557.339,557.339,0,0,1-26.291-63.255,55.7,55.7,0,0,1,10.037-19.968,55.988,55.988,0,0,1-9.063-52.55l42.506,14.26-39.863-20.7a56.182,56.182,0,0,1,6.382-10.207A55.978,55.978,0,1,1,128.9,185.1L87.806,215.3l44.561-23.1a56.008,56.008,0,0,1-1.073,44.337l-33.231-.249,30.709,5.043a56.2,56.2,0,0,1-4.358,6.4A55.707,55.707,0,0,1,136.453,282.291Z" fill="#2386c8" opacity="0.1"/><path d="M136.453,351.518a55.987,55.987,0,0,1-45.18,54.913c-1.344.272-2.711.483-4.094.649a56.542,56.542,0,0,1-12.839.068q-2.13-.227-4.207-.626a55.385,55.385,0,0,1-17.371-6.349,557.452,557.452,0,0,1-26.328-63.286,55.7,55.7,0,0,1,10.037-19.968,55.72,55.72,0,0,1-11.986-34.628c0-6.281,107.488,25.078,99.982,34.6A55.686,55.686,0,0,1,136.453,351.518Z" opacity="0.1"/></g><g opacity="0.1"><path d="M766.512,417.159c-2.191,6.99-4.532,13.928-6.934,20.707a19.368,19.368,0,0,1-1-6.2C758.581,424.927,761.9,419.2,766.512,417.159Z" fill="#3f3d56" opacity="0.1"/><path d="M790,296.7c0,13.249-2.674,34.183-7.553,58.13a638.167,638.167,0,0,1-15.973,62.327c-2.191,6.99-4.532,13.928-6.934,20.707-2.756,7.7-5.664,15.19-8.708,22.354a56.162,56.162,0,0,1-24.855-87.4,56.2,56.2,0,0,1-9.063-52.664l42.506,14.291L719.557,313.7a56.347,56.347,0,0,1,6.382-10.229,56.16,56.16,0,0,1,21.993-86.251,96.3,96.3,0,0,1,36.819,48.263l-7.364,5.481,7.9-4.1a95.8,95.8,0,0,1,4.6,25.147h-2.221l2.266.37C790,293.811,790,295.245,790,296.7Z" fill="#2386c8" opacity="0.1"/><path d="M782.485,354.832a638.184,638.184,0,0,1-15.973,62.327c-2.191,6.99-4.532,13.928-6.934,20.707-2.757,7.7-5.664,15.19-8.708,22.354a56.162,56.162,0,0,1-24.855-87.4,55.925,55.925,0,0,1-11.979-34.667C714.036,334.381,753.1,344.27,782.485,354.832Z" opacity="0.1"/></g><path d="M789.9,292.369v-.355a95.8,95.8,0,0,0-4.6-25.147c-.151-.46-.3-.928-.46-1.381A95.853,95.853,0,0,0,622.529,232.73a135.366,135.366,0,0,0-7.636-26.778,430.335,430.335,0,0,1-76,2.831,306.7,306.7,0,0,0,48.185,17.492l-.589,2.189a309.616,309.616,0,0,1-53.865-20.156l-5.219-2.529,5.786.377A430.49,430.49,0,0,0,614,203.838,136.163,136.163,0,0,0,590.2,166.032c-43.472-4.379-86.6-13.5-126.883-31.579l.929-2.061C503.448,150,545.463,159.056,587.878,163.51a135.793,135.793,0,0,0-215.8,22.927A186.344,186.344,0,0,0,325.826,81.578a435.69,435.69,0,0,1-71.576,21.674,433.087,433.087,0,0,1-111.884,8.9,306.672,306.672,0,0,0,48.186,17.492l-.589,2.189a309.462,309.462,0,0,1-53.85-20.156l-5.219-2.529,5.785.377A430.076,430.076,0,0,0,324.255,79.819q-3.361-3.677-6.918-7.187C243,74.142,162.048,73.387,88.758,46.715A186.848,186.848,0,0,0,0,205.907c0,35.074,9.645,83.306,26.434,131.7A559.37,559.37,0,0,0,52.8,401.018c5.128,10.418,10.574,20.542,16.291,30.235a343.238,343.238,0,0,0,22.726,33.972q2.221,2.922,4.494,5.737a207.273,207.273,0,0,0,28.307,29.345q3.149,2.627,6.336,5.005a120.765,120.765,0,0,0,18.126,11.324,83.622,83.622,0,0,0,34.214,9.27c.936.038,1.88.061,2.817.061v.385H693.644v-.385h.378a25.711,25.711,0,0,0,8.58-1.51c17.944-6.364,34.469-31.919,48.208-64.215,3.021-7.164,5.951-14.653,8.708-22.353,2.432-6.794,4.743-13.717,6.933-20.708a638.451,638.451,0,0,0,15.974-62.327c4.841-23.946,7.552-44.88,7.552-58.129C790,295.245,790,293.811,789.9,292.369Z" fill="#2386c8" opacity="0.1"/><path d="M252.3,504.134l14.455-8.5a34.812,34.812,0,0,0-7.394-8.841l-27.272,8.478,21.374-12.554a34.737,34.737,0,0,0-51.433,30.461c0,19.175,15.55,19.84,34.741,19.84s34.742-.665,34.742-19.84a34.545,34.545,0,0,0-2.983-14.094Z" fill="#2386c8"/><path d="M255.98,522.773a26.989,26.989,0,0,0-5.121-4.016c-2.628-1.744-5.34-3.526-8.436-4.114-2.719-.521-5.521-.083-8.308-.242a19.383,19.383,0,0,1-12.7-5.813c-1.971-2.038-3.527-4.529-5.9-6.107a12.973,12.973,0,0,0-8.844-1.623,21.767,21.767,0,0,0-2.613.536,34.584,34.584,0,0,0-2.054,11.784c0,19.175,15.551,19.84,34.742,19.84,9.312,0,17.763-.159,24-2.507l-1.042-1.948A27.531,27.531,0,0,0,255.98,522.773Z" opacity="0.1"/><path d="M413.383,167.232a26.989,26.989,0,1,0-27-26.989A26.994,26.994,0,0,0,413.383,167.232Z" fill="#3f3d56"/><path d="M397.719,350.189c2.787,19.545-.612,39.475-5.906,58.492a43.468,43.468,0,0,1-3.9,10.289c-1.85,3.179-4.426,5.912-6.6,8.9-4.531,6.236-7.19,13.589-9.675,20.866A588.546,588.546,0,0,0,354.4,510.128a4.205,4.205,0,0,0,0,2.62c.657,1.51,2.651,1.706,4.29,1.7l21.193-.113c.755-1.449-.642-3.02-1.511-4.409-3.021-4.7-.121-10.8,2.545-15.71a168.828,168.828,0,0,0,14.939-37.746c1.451-5.534,2.629-11.188,4.985-16.4,2.847-6.326,7.311-11.769,10.936-17.688,4.215-6.877,7.289-14.343,10.34-21.84,4.259-10.4,8.557-20.934,10.234-32.047,1.578-10.433.8-21.062-.227-31.563a1.994,1.994,0,0,0-2.311-2.265L401.374,333.2c-5.86-.3-7.25-1.585-6.359,4.168C395.634,341.658,397.1,345.84,397.719,350.189Z" fill="#3f3d56"/><path d="M397.719,350.189c2.787,19.545-.612,39.475-5.906,58.492a43.468,43.468,0,0,1-3.9,10.289c-1.85,3.179-4.426,5.912-6.6,8.9-4.531,6.236-7.19,13.589-9.675,20.866A588.546,588.546,0,0,0,354.4,510.128a4.205,4.205,0,0,0,0,2.62c.657,1.51,2.651,1.706,4.29,1.7l21.193-.113c.755-1.449-.642-3.02-1.511-4.409-3.021-4.7-.121-10.8,2.545-15.71a168.828,168.828,0,0,0,14.939-37.746c1.451-5.534,2.629-11.188,4.985-16.4,2.847-6.326,7.311-11.769,10.936-17.688,4.215-6.877,7.289-14.343,10.34-21.84,4.259-10.4,8.557-20.934,10.234-32.047,1.578-10.433.8-21.062-.227-31.563a1.994,1.994,0,0,0-2.311-2.265L401.374,333.2c-5.86-.3-7.25-1.585-6.359,4.168C395.634,341.658,397.1,345.84,397.719,350.189Z" opacity="0.1"/><path d="M403.308,302.674c-5.778,8.3-11.835,17.861-9.917,27.8,1.458,7.549,7.213,13.4,12.643,18.873,21.706,21.787,43.05,45.99,50.436,75.848,1.9,7.715,2.825,15.634,4.464,23.4,2.976,14.118,8.308,27.616,13.6,41.031L488.7,525.378a21.42,21.42,0,0,0,20.468-13.589c-1.858-.143-4.283-1.94-5.37-3.45-6.042-8.357-7.281-19.107-8.829-29.3-1.715-11.263-4-22.436-6.3-33.6l-10.151-49.4c-1.17-5.7-2.341-11.407-3.866-17.024-5.907-21.757-17.1-42.276-18.829-64.773-.257-3.306-.415-6.938-2.659-9.391-2.356-2.59-6.223-3.02-9.72-3.224C429.3,300.718,417.091,299.337,403.308,302.674Z" fill="#3f3d56"/><path d="M365.145,509.622a22.608,22.608,0,0,0-4.7-.6,9.757,9.757,0,0,0-7.673,4.19,19.025,19.025,0,0,0-2.062,4.53l-2.047,5.873c-.6,1.721-1.193,3.707-.3,5.285a5.608,5.608,0,0,0,2.75,2.121c4.954,2.2,10.573,2.325,15.935,2.854,5.242.513,10.438,1.434,15.612,2.4,1.782.34,3.557.68,5.362.861a63.918,63.918,0,0,0,12.129-.362l4.162-.4a15.008,15.008,0,0,0,4.093-.754,5.155,5.155,0,0,0,3.021-2.711c1.028-2.544-1.178-5.556-3.874-6.084-1.1-.212-2.266-.114-3.338-.257a15.768,15.768,0,0,1-3.656-1.095c-5.287-2.091-10.7-4.205-15.384-7.5-1.3-.914-2.659-2.189-2.515-3.775a7.7,7.7,0,0,1,.672-1.955,7.137,7.137,0,0,0,.06-5.05c-.257-.695-.755-1.427-1.457-1.51-1.994-.242-1.753,2.665-2.047,3.774-.4,1.51-1.126,1.646-2.545,1.51C373.271,510.6,369.193,510.392,365.145,509.622Z" fill="#f2f2f2"/><path d="M484.377,529.907a13.327,13.327,0,0,0,2.885,8.116,6.316,6.316,0,0,0,2.055,1.653,8.238,8.238,0,0,0,3.776.6,30.255,30.255,0,0,0,10.491-2.121,29.956,29.956,0,0,1,3.625-1.366,40.685,40.685,0,0,1,4.713-.68c6.246-.9,11.729-4.582,17.763-6.447a37.363,37.363,0,0,0,5.287-1.736,24.241,24.241,0,0,0,6.216-4.854,14.918,14.918,0,0,0,2.855-3.42c1.11-2.061,1.178-4.53,1.223-6.863a1.953,1.953,0,0,0-.181-1.064,1.59,1.59,0,0,0-.68-.536c-1.835-.906-4.01-.453-6.042-.1-7.341,1.306-14.856,1.064-22.31.823a3.242,3.242,0,0,1-3.429-1.955l-2.832-4.53c-.808-1.3-2.092-2.786-3.558-2.34-1.17.354-1.646,1.789-1.6,3.019a16.1,16.1,0,0,1,.189,3.654A4.992,4.992,0,0,1,502.4,512.9a15.431,15.431,0,0,1-3.776,1.449c-4.169,1.178-9.018,2.514-12.243,5.579C484.015,522.1,484.234,526.971,484.377,529.907Z" fill="#f2f2f2"/><path d="M482.912,230.4a17.51,17.51,0,0,0,4.124-4.484,18.288,18.288,0,0,0,1.76-6.2l1.185-7.489c.657-4.13,1.428-8.5,4.184-11.649s8.248-4.273,11.05-1.163a9.694,9.694,0,0,1,2.009,5.013,36.485,36.485,0,0,1-8.927,30.2c-3.391,3.715-7.553,6.666-11.14,10.177-3.127,3.02-5.839,6.485-8.724,9.769a120.413,120.413,0,0,1-23.768,20.76c.106-5.617.824-11.641,0-17.22-.611-4.031-2.265-6.2,1.639-8.84C465.367,243.11,474.514,237.538,482.912,230.4Z" fill="#fbbebe"/><path d="M406.752,175.151c-.3,4.016-1.964,8.123-5.287,10.441q14.117,4.937,27.846,10.886c-1.767-1.7-2.3-4.3-2.386-6.749-.234-6.4,1.979-12.683,5.211-18.194a4.414,4.414,0,0,0,.853-2.4c-.105-1.781-2.22-2.6-3.957-3.019a97.246,97.246,0,0,0-18.066-2.62c-2.605-.083-5.694-.906-5.105,2.408A36.479,36.479,0,0,1,406.752,175.151Z" fill="#fbbebe"/><path d="M424.954,177.3a22.067,22.067,0,1,0-22.077-22.067A22.072,22.072,0,0,0,424.954,177.3Z" fill="#fbbebe"/><path d="M446.811,214.838a26.719,26.719,0,0,0-2.8-4.7c-4-5.745-8.112-11.482-13.248-16.238a82.374,82.374,0,0,0-12.575-9.233,28.566,28.566,0,0,0-7.869-3.775,30.853,30.853,0,0,0-5.053-.687l-5.732-.468a4.7,4.7,0,0,0-1.511.045c-1.556.393-2.266,2.326-1.933,3.888a9.56,9.56,0,0,0,2.552,4.016c.257,11.694-4.947,23.23-5.649,34.908-1.231,20.421,11.238,39.415,12.235,59.851a6.45,6.45,0,0,1-.287,2.741c-.166.422-.415.807-.6,1.223a11.925,11.925,0,0,0-.672,4.152,21.085,21.085,0,0,1-6.216,13.3,9.234,9.234,0,0,0,3.5,2.673c2.41,1.049,5.287,1.14,7.848,1.872,6.676,1.948,13.519,3.911,20.459,3.495a18.008,18.008,0,0,0,1.579-5.941c.982-.611,2.115.7,2.266,1.842s-.068,2.484.755,3.314a3.108,3.108,0,0,0,2.87.574c4.237-.536,8.308-1.963,12.462-2.922s8.6-1.419,12.635-.045c.816-1.034.468-2.567-.2-3.7a16.459,16.459,0,0,1-1.986-3.39,7.562,7.562,0,0,1-.242-2.227c0-6.454,1.329-12.977.068-19.311-.37-1.857-.959-3.669-1.337-5.533a47.73,47.73,0,0,1-.544-11.037c.1-3.692-.347-7.686-.423-11.43a36.367,36.367,0,0,0-.3-4.628c-.257-1.608-.755-3.178-.891-4.8-.408-4.122,1.254-8.214,1-12.351C456.561,224.04,449.258,220.628,446.811,214.838Z" fill="#ff6f61"/><path d="M396.986,211.878c-5.347,14.178-7.96,29.216-10.573,44.149L380.371,291.1c-1.715,9.912-3.437,19.884-3.369,29.94,0,2.824.181,5.7-.559,8.425-.966,3.578-3.368,6.56-5.188,9.814a32.275,32.275,0,0,0-3.474,21.84c.619,3.133,2.311,6.689,5.49,7.051,2.613.287,4.872-1.789,6.4-3.933,3.505-4.914,5.242-10.848,6.8-16.691a377.456,377.456,0,0,0,10.475-58.2,56.588,56.588,0,0,1,1.05-7.4,52.386,52.386,0,0,1,2.553-7.368q3.467-8.592,6.94-17.182c5.34-13.234,10.71-26.529,18.044-38.774-7.251-2.083-14.8-4.529-22.046-6.59C401.389,211.418,399.146,211.788,396.986,211.878Z" fill="#fbbebe"/><path d="M409.554,222.651c-5.076-1.094-10.325-.755-15.506-.883a3.35,3.35,0,0,1-2.084-.544c-1.05-.9-.6-2.582-.076-3.857l2.508-6.04a8.79,8.79,0,0,1,2.009-3.337,8.525,8.525,0,0,1,4.765-1.615c5.506-.634,11.171-.846,16.51.642s10.363,4.869,12.749,9.874c1,2.084,1.458,4.711.136,6.606-1.964,2.816-6.367,5.964-9.652,4.424C416.978,226.056,413.965,223.587,409.554,222.651Z" fill="#ff6f61"/><path d="M436.539,120.962a22.306,22.306,0,0,0-12.31,3.548,27.009,27.009,0,0,0-26.51-6.205,15.431,15.431,0,1,0-17.824,17.846,27,27,0,0,0,51.826,15.167,24.221,24.221,0,0,0,4.841.491c10.649,0,19.289-6.908,19.289-15.424S447.173,120.962,436.539,120.962Z" fill="#3f3d56"/><path d="M440.383,144.093a23.507,23.507,0,0,1-4.841-.49,26.84,26.84,0,0,1-3.534,7.768,24.343,24.343,0,0,0,4.531.438c9.955,0,18.126-6.04,19.176-13.77A21.281,21.281,0,0,1,440.383,144.093Z" opacity="0.1"/><path d="M409.524,163.374a27.026,27.026,0,0,1-25.815-34.938,15.424,15.424,0,0,1-12.756-15.189,15.055,15.055,0,0,1,.249-2.763,15.423,15.423,0,0,0,8.655,25.667,27,27,0,0,0,51.577,15.99,26.955,26.955,0,0,1-21.91,11.233Z" opacity="0.1"/><path d="M508.018,208.877a.253.253,0,1,0-.412-.294l-2.132,2.987a.253.253,0,1,0,.412.294Z" fill="#3a3768"/><path d="M496.082,196.2a.144.144,0,0,0-.234-.167l-.631.885a.143.143,0,1,0,.233.167Z" fill="#3a3768"/><path d="M494.615,198.279a.158.158,0,1,0-.258-.184l-1.207,1.69a.159.159,0,0,0,.259.184Z" fill="#3a3768"/><path d="M492.742,200.9a.151.151,0,0,0-.246-.176l-1.229,1.721a.151.151,0,0,0,.246.175Z" fill="#3a3768"/><path d="M511.679,202.466l-10.722-7.647a1.9,1.9,0,0,0-2.655.443l-17.833,24.981a1.9,1.9,0,0,0,.444,2.653l10.722,7.648a1.9,1.9,0,0,0,2.655-.444l17.832-24.98A1.9,1.9,0,0,0,511.679,202.466Z" fill="#3a3768"/><path d="M511.679,202.466l-10.722-7.647a1.9,1.9,0,0,0-2.655.443l-17.833,24.981a1.9,1.9,0,0,0,.444,2.653l10.722,7.648a1.9,1.9,0,0,0,2.655-.444l17.832-24.98A1.9,1.9,0,0,0,511.679,202.466Z" opacity="0.1"/><path d="M510.979,201.059l-10.722-7.648a1.9,1.9,0,0,0-2.655.444l-17.833,24.98a1.9,1.9,0,0,0,.444,2.654l10.722,7.647a1.9,1.9,0,0,0,2.655-.443l17.832-24.981A1.9,1.9,0,0,0,510.979,201.059Z" fill="#3a3768"/><path d="M510.011,201.513l-1.579-1.132-.136.189a1.1,1.1,0,0,1-1.51.264l-5.045-3.6a1.11,1.11,0,0,1-.257-1.548l.136-.189-1.511-1.057a1.341,1.341,0,0,0-1-.235,1.329,1.329,0,0,0-.493.185,1.355,1.355,0,0,0-.383.36L480.8,219.171a1.351,1.351,0,0,0,.31,1.88l9.924,7.073a1.33,1.33,0,0,0,.48.217,1.348,1.348,0,0,0,1.4-.534l17.431-24.414a1.357,1.357,0,0,0,.214-.482,1.345,1.345,0,0,0-.546-1.4Z" fill="#2386c8"/><path d="M505.415,198.366l-1.537-1.1a.242.242,0,1,0-.28.394l1.536,1.1a.242.242,0,1,0,.281-.393Z" fill="#e6e8ec"/><path d="M505.947,199.362a.272.272,0,1,0-.272-.272A.272.272,0,0,0,505.947,199.362Z" fill="#e6e8ec"/><path d="M506.023,10.516a50.591,50.591,0,0,0-50.6,50.58c0,27.932,53.019,120.442,53.019,120.442S556.625,89.066,556.625,61.1a50.591,50.591,0,0,0-50.6-50.58Zm0,84.31a5.274,5.274,0,1,1,0,.023Z" fill="#2386c8"/><path d="M506.023,10.516a50.591,50.591,0,0,0-50.6,50.58c0,27.932,53.019,120.442,53.019,120.442S556.625,89.066,556.625,61.1a50.591,50.591,0,0,0-50.6-50.58Zm0,84.31a5.274,5.274,0,1,1,0,.023Z" opacity="0.1"/><path d="M506.023,0a50.591,50.591,0,0,0-50.6,50.58c0,27.932,53.019,130.98,53.019,130.98S556.625,78.528,556.625,50.588A50.6,50.6,0,0,0,506.023,0Zm0,84.311a26.514,26.514,0,1,1,10.145-2.017A26.519,26.519,0,0,1,506.023,84.311Z" fill="#2386c8"/></g></svg>