<svg width="676" height="622" viewBox="0 0 676 622" fill="none" xmlns="http://www.w3.org/2000/svg">
<path fill-rule="evenodd" clip-rule="evenodd" d="M381 590C543.924 590 676 457.924 676 295C676 132.076 543.924 0 381 0C305.358 0 236.365 28.4697 184.152 75.2784C201.955 85.1807 214 104.184 214 126C214 158.033 188.033 184 156 184C140.034 184 125.575 177.549 115.087 167.111C96.4463 205.8 86 249.18 86 295C86 457.924 218.076 590 381 590Z" fill="#2386C8"/>
<g clip-path="url(#clip0)">
<path d="M312.12 369.133L266.399 356.959L212.732 558.504L258.454 570.678L312.12 369.133Z" fill="url(#paint0_linear)"/>
<path d="M309.11 368.332L270.607 358.08L217.901 556.018L256.404 566.27L309.11 368.332Z" fill="#ECEFF1"/>
<path d="M460.299 240.429L254.386 185.6C247.26 183.895 239.87 183.593 232.629 184.708C209.227 188.411 193.167 199.728 181.128 231.103L161.263 305.706L106.854 290.6C95.8816 287.678 87.2761 303.862 84.1711 315.522L452.739 413.663L486.123 288.288C491.751 267.154 480.21 245.731 460.299 240.429Z" fill="url(#paint1_linear)"/>
<path d="M259.799 195.416L463.819 249.742C470.448 251.507 476.103 255.833 479.542 261.768C482.981 267.703 483.922 274.761 482.157 281.389L449.082 405.603L220.069 344.623L259.799 195.416Z" fill="#AADDF9"/>
<path d="M254.976 194.132C269.655 198.041 282.181 207.621 289.797 220.765C297.413 233.909 299.495 249.54 295.587 264.219L277.807 330.989C275.894 338.173 271.206 344.303 264.773 348.03C258.341 351.757 250.691 352.777 243.507 350.864L186.985 335.813C179.801 333.9 173.671 329.212 169.944 322.779C166.216 316.347 165.197 308.697 167.11 301.513L184.889 234.743C188.798 220.064 198.378 207.538 211.522 199.922C224.666 192.306 240.296 190.224 254.976 194.132Z" fill="#AADDF9"/>
<path opacity="0.2" d="M254.976 194.132C269.655 198.041 282.181 207.621 289.797 220.765C297.413 233.909 299.495 249.54 295.587 264.219L277.807 330.989C275.894 338.173 271.206 344.303 264.773 348.03C258.341 351.757 250.691 352.777 243.507 350.864L186.985 335.813C179.801 333.9 173.671 329.212 169.944 322.779C166.216 316.347 165.197 308.697 167.11 301.513L184.889 234.743C188.798 220.064 198.378 207.538 211.522 199.922C224.666 192.306 240.296 190.224 254.976 194.132Z" fill="black"/>
<path d="M407.674 213.534L379.099 205.925L361.952 201.359L352.904 235.34L341.768 277.161L362.522 282.687L373.657 240.866L398.626 247.515L407.674 213.534Z" fill="url(#paint2_linear)"/>
<path d="M404.061 212.572L379.996 206.164L365.559 202.32L357.229 233.604L346.976 272.106L361.414 275.951L371.666 237.448L395.731 243.856L404.061 212.572Z" fill="#FFCC80"/>
<path d="M192.491 207.998L174.346 253.247L247.973 282.771L266.118 237.522L192.491 207.998Z" fill="url(#paint3_linear)"/>
<path d="M192.944 209.485L176.011 251.712L247.142 280.235L264.075 238.008L192.944 209.485Z" fill="#FAF8E4"/>
<g opacity="0.6">
<path opacity="0.6" d="M192.037 220.644L201.089 224.274L203.775 217.576L194.723 213.946L192.037 220.644Z" fill="#AADDF9"/>
<path opacity="0.6" d="M194.237 236.648L228.988 250.583L229.859 248.412L195.108 234.477L194.237 236.648Z" fill="#AADDF9"/>
<path opacity="0.6" d="M201.763 245.131L227.102 255.292L227.682 253.846L202.343 243.685L201.763 245.131Z" fill="#AADDF9"/>
</g>
<path d="M220.756 226.54L202.612 271.789L276.239 301.313L294.383 256.064L220.756 226.54Z" fill="url(#paint4_linear)"/>
<path d="M221.207 228.033L204.274 270.261L275.405 298.784L292.338 256.556L221.207 228.033Z" fill="#FAF8E4"/>
<g opacity="0.6">
<path opacity="0.6" d="M220.305 239.195L229.358 242.825L232.043 236.127L222.991 232.497L220.305 239.195Z" fill="#AADDF9"/>
<path opacity="0.6" d="M222.505 255.199L257.257 269.134L258.127 266.963L223.376 253.028L222.505 255.199Z" fill="#AADDF9"/>
<path opacity="0.6" d="M230.02 263.678L255.359 273.839L255.938 272.393L230.599 262.232L230.02 263.678Z" fill="#AADDF9"/>
</g>
<path d="M153.708 213.395L129.113 274.731L228.912 314.749L253.507 253.414L153.708 213.395Z" fill="url(#paint5_linear)"/>
<path d="M154.33 215.403L131.375 272.648L227.792 311.311L250.747 254.065L154.33 215.403Z" fill="white"/>
<g opacity="0.6">
<path opacity="0.6" d="M153.1 230.534L165.368 235.454L169.007 226.378L156.739 221.459L153.1 230.534Z" fill="#AADDF9"/>
<path opacity="0.6" d="M156.07 252.231L203.178 271.121L204.359 268.177L157.251 249.287L156.07 252.231Z" fill="#AADDF9"/>
<path opacity="0.6" d="M166.276 263.726L200.626 277.5L201.414 275.535L167.064 261.761L166.276 263.726Z" fill="#AADDF9"/>
</g>
<path d="M192.025 238.53L167.429 299.865L267.228 339.884L291.823 278.548L192.025 238.53Z" fill="url(#paint6_linear)"/>
<path d="M192.636 240.547L169.681 297.793L266.098 336.455L289.053 279.209L192.636 240.547Z" fill="white"/>
<g opacity="0.6">
<path opacity="0.6" d="M191.411 255.678L203.679 260.597L207.318 251.521L195.05 246.602L191.411 255.678Z" fill="#AADDF9"/>
<path opacity="0.6" d="M194.381 277.375L241.489 296.265L242.67 293.32L195.562 274.43L194.381 277.375Z" fill="#AADDF9"/>
<path opacity="0.6" d="M204.587 288.869L238.937 302.643L239.724 300.678L205.375 286.904L204.587 288.869Z" fill="#AADDF9"/>
</g>
<path opacity="0.2" d="M254.226 194.577C246.987 192.643 239.438 192.154 232.01 193.136C234.716 193.456 237.396 193.967 240.03 194.666C247.299 196.601 254.115 199.949 260.089 204.519C266.064 209.089 271.08 214.79 274.851 221.298C278.622 227.807 281.074 234.994 282.068 242.45C283.061 249.906 282.576 257.484 280.641 264.753L257.247 352.608L270.481 356.132L294.836 264.664C298.745 249.984 296.663 234.354 289.047 221.21C281.431 208.066 268.905 198.486 254.226 194.577Z" fill="black"/>
<path d="M116.907 296.534L275.734 338.825L270.607 358.08L92.5252 310.661C93.885 305.555 97.2176 301.197 101.79 298.548C106.362 295.898 111.8 295.174 116.907 296.534Z" fill="#AADDF9"/>
<path opacity="0.2" d="M116.907 296.534L275.734 338.825L270.607 358.08L92.5252 310.661C93.885 305.555 97.2176 301.197 101.79 298.548C106.362 295.898 111.8 295.174 116.907 296.534Z" fill="white"/>
<path d="M511.577 204.903L509.515 205.308L509.823 204.988L509.651 204.995L509.922 204.89L546.162 167.675L555.877 181.743L564.007 194.599L560.508 195.286L562.351 202.349L511.577 204.903Z" fill="url(#paint7_linear)"/>
<path d="M554.332 182.555L561.752 194.321L511.161 204.634L543.051 180.492L554.332 182.555Z" fill="#AADDF9"/>
<path opacity="0.2" d="M554.332 182.555L561.752 194.321L511.161 204.634L543.051 180.492L554.332 182.555Z" fill="black"/>
<path d="M545.442 169.687L511.161 204.634L554.332 182.555L545.442 169.687Z" fill="#AADDF9"/>
<path d="M560.158 201.469L511.291 204.346L556.298 186.316L560.158 201.469Z" fill="#AADDF9"/>
<path d="M179.776 127.336L182.592 128.573L182.252 128.022L182.504 128.089L182.147 127.849L142.257 63.0335L123.864 80.0251L108.123 95.8019L112.905 97.9044L108.004 107.416L179.776 127.336Z" fill="url(#paint8_linear)"/>
<path d="M125.817 81.6835L111.432 96.1239L180.456 127.083L142.601 82.3498L125.817 81.6835Z" fill="#AADDF9"/>
<path opacity="0.2" d="M125.817 81.6835L111.432 96.1239L180.456 127.083L142.601 82.3498L125.817 81.6835Z" fill="black"/>
<path d="M142.646 66.1437L180.456 127.083L125.817 81.6834L142.646 66.1437Z" fill="#AADDF9"/>
<path d="M111.422 106.859L180.364 126.637L121.795 86.4352L111.422 106.859Z" fill="#AADDF9"/>
</g>
<defs>
<linearGradient id="paint0_linear" x1="235.593" y1="564.591" x2="289.259" y2="363.046" gradientUnits="userSpaceOnUse">
<stop stop-color="#808080" stop-opacity="0.25"/>
<stop offset="0.54" stop-color="#808080" stop-opacity="0.12"/>
<stop offset="1" stop-color="#808080" stop-opacity="0.1"/>
</linearGradient>
<linearGradient id="paint1_linear" x1="72176.6" y1="82744.4" x2="293299" y2="141624" gradientUnits="userSpaceOnUse">
<stop stop-color="#808080" stop-opacity="0.25"/>
<stop offset="0.54" stop-color="#808080" stop-opacity="0.12"/>
<stop offset="1" stop-color="#808080" stop-opacity="0.1"/>
</linearGradient>
<linearGradient id="paint2_linear" x1="16627.4" y1="24755.7" x2="19117.7" y2="15403.4" gradientUnits="userSpaceOnUse">
<stop stop-color="#808080" stop-opacity="0.25"/>
<stop offset="0.54" stop-color="#808080" stop-opacity="0.12"/>
<stop offset="1" stop-color="#808080" stop-opacity="0.1"/>
</linearGradient>
<linearGradient id="paint3_linear" x1="-23081.3" y1="23536.3" x2="-20817.4" y2="17890.6" gradientUnits="userSpaceOnUse">
<stop stop-color="#808080" stop-opacity="0.25"/>
<stop offset="0.54" stop-color="#808080" stop-opacity="0.12"/>
<stop offset="1" stop-color="#808080" stop-opacity="0.1"/>
</linearGradient>
<linearGradient id="paint4_linear" x1="-21067.6" y1="25255.3" x2="-18803.7" y2="19609.5" gradientUnits="userSpaceOnUse">
<stop stop-color="#808080" stop-opacity="0.25"/>
<stop offset="0.54" stop-color="#808080" stop-opacity="0.12"/>
<stop offset="1" stop-color="#808080" stop-opacity="0.1"/>
</linearGradient>
<linearGradient id="paint5_linear" x1="-35554.2" y1="36865.6" x2="-31394.6" y2="26492.5" gradientUnits="userSpaceOnUse">
<stop stop-color="#808080" stop-opacity="0.25"/>
<stop offset="0.54" stop-color="#808080" stop-opacity="0.12"/>
<stop offset="1" stop-color="#808080" stop-opacity="0.1"/>
</linearGradient>
<linearGradient id="paint6_linear" x1="-31837.6" y1="40024.5" x2="-27678.1" y2="29651.5" gradientUnits="userSpaceOnUse">
<stop stop-color="#808080" stop-opacity="0.25"/>
<stop offset="0.54" stop-color="#808080" stop-opacity="0.12"/>
<stop offset="1" stop-color="#808080" stop-opacity="0.1"/>
</linearGradient>
<linearGradient id="paint7_linear" x1="-15922.1" y1="31971" x2="-17463.6" y2="29732.3" gradientUnits="userSpaceOnUse">
<stop stop-color="#808080" stop-opacity="0.25"/>
<stop offset="0.54" stop-color="#808080" stop-opacity="0.12"/>
<stop offset="1" stop-color="#808080" stop-opacity="0.1"/>
</linearGradient>
<linearGradient id="paint8_linear" x1="-7239.09" y1="39834.5" x2="-3856.51" y2="36709.9" gradientUnits="userSpaceOnUse">
<stop stop-color="#808080" stop-opacity="0.25"/>
<stop offset="0.54" stop-color="#808080" stop-opacity="0.12"/>
<stop offset="1" stop-color="#808080" stop-opacity="0.1"/>
</linearGradient>
<clipPath id="clip0">
<rect width="466.35" height="463.464" fill="white" transform="translate(119.253 54) rotate(14.9105)"/>
</clipPath>
</defs>
</svg>
