<svg width="790" height="551" viewBox="0 0 790 551" fill="none" xmlns="http://www.w3.org/2000/svg">
<g clip-path="url(#clip0)">
<path opacity="0.1" d="M315.056 70.4349C285.617 42.3883 247.804 24.7433 207.39 20.1945C166.977 15.6456 126.185 24.4429 91.2427 45.2429C162.977 70.9105 242.128 71.8541 315.056 70.4349Z" fill="#2386C8"/>
<path opacity="0.1" d="M730.818 487.292L652.483 351.669C652.265 351.287 651.95 350.97 651.57 350.75C651.19 350.53 650.758 350.414 650.319 350.414C649.879 350.414 649.448 350.53 649.068 350.75C648.688 350.97 648.373 351.287 648.155 351.669L569.82 487.292C569.591 487.671 569.468 488.105 569.464 488.548C569.459 488.991 569.572 489.427 569.792 489.812C570.012 490.197 570.331 490.516 570.716 490.736C571.1 490.956 571.536 491.07 571.98 491.066H595.347C596.01 491.068 596.644 491.332 597.113 491.8C597.581 492.268 597.845 492.903 597.847 493.565V522.509C597.847 523.17 598.11 523.805 598.577 524.273C599.044 524.742 599.678 525.006 600.34 525.008H630.829C631.492 525.008 632.128 524.745 632.597 524.276C633.066 523.807 633.329 523.172 633.329 522.509V508.52C633.329 507.859 633.592 507.226 634.059 506.759C634.527 506.291 635.161 506.029 635.822 506.029H664.808C665.47 506.029 666.105 506.291 666.573 506.758C667.042 507.225 667.306 507.859 667.308 508.52V522.509C667.308 523.172 667.572 523.807 668.041 524.276C668.509 524.745 669.145 525.008 669.808 525.008H700.29C700.953 525.008 701.589 524.745 702.058 524.276C702.527 523.807 702.79 523.172 702.79 522.509V493.535C702.79 492.872 703.054 492.237 703.523 491.768C703.991 491.299 704.627 491.036 705.29 491.036H728.658C729.096 491.035 729.526 490.919 729.904 490.699C730.283 490.48 730.598 490.165 730.816 489.785C731.035 489.406 731.15 488.976 731.151 488.539C731.151 488.101 731.036 487.671 730.818 487.292ZM621.577 502.3C621.347 502.536 621.073 502.725 620.769 502.854C620.466 502.984 620.14 503.052 619.81 503.054H608.836C608.173 503.054 607.537 502.791 607.069 502.323C606.6 501.854 606.336 501.218 606.336 500.556C606.336 499.893 606.6 499.257 607.069 498.789C607.537 498.32 608.173 498.057 608.836 498.057H619.833C620.327 498.057 620.81 498.204 621.221 498.478C621.632 498.753 621.953 499.143 622.142 499.6C622.331 500.056 622.38 500.558 622.284 501.043C622.188 501.528 621.95 501.973 621.6 502.322L621.577 502.3ZM693.538 502.3C693.309 502.536 693.034 502.725 692.73 502.854C692.427 502.984 692.101 503.052 691.771 503.054H680.805C680.142 503.054 679.506 502.791 679.037 502.323C678.568 501.854 678.305 501.218 678.305 500.556C678.305 499.893 678.568 499.257 679.037 498.789C679.506 498.32 680.142 498.057 680.805 498.057H691.816C692.311 498.057 692.794 498.204 693.205 498.478C693.616 498.753 693.936 499.143 694.125 499.6C694.314 500.056 694.364 500.558 694.268 501.043C694.171 501.528 693.933 501.973 693.584 502.322L693.538 502.3Z" fill="#2386C8"/>
<path opacity="0.1" d="M246.63 488.484L168.294 352.861C168.075 352.482 167.759 352.167 167.379 351.948C167 351.729 166.569 351.614 166.13 351.614C165.692 351.614 165.261 351.729 164.881 351.948C164.502 352.167 164.186 352.482 163.967 352.861L96.303 470.004C104.756 480.652 114.241 490.441 124.618 499.227H135.644C136.307 499.227 136.943 499.49 137.412 499.959C137.881 500.427 138.144 501.063 138.144 501.726C138.144 502.388 137.881 503.024 137.412 503.493C136.943 503.961 136.307 504.225 135.644 504.225H130.992C136.69 508.508 142.756 512.279 149.118 515.496V509.72C149.118 509.058 149.382 508.422 149.85 507.954C150.319 507.485 150.955 507.222 151.618 507.222H180.605C181.267 507.224 181.901 507.488 182.368 507.956C182.835 508.425 183.097 509.059 183.097 509.72V523.702C183.096 524.065 183.176 524.423 183.331 524.751C183.532 525.183 183.851 525.55 184.253 525.806C184.654 526.063 185.121 526.2 185.597 526.201H216.087C216.474 526.202 216.856 526.112 217.201 525.937C217.546 525.763 217.845 525.509 218.073 525.197C218.409 524.765 218.587 524.233 218.579 523.687V494.735C218.579 494.072 218.843 493.437 219.311 492.968C219.78 492.5 220.416 492.236 221.079 492.236H244.447C244.888 492.24 245.322 492.127 245.705 491.909C246.088 491.69 246.406 491.375 246.628 490.994C246.85 490.613 246.966 490.18 246.967 489.739C246.967 489.299 246.851 488.866 246.63 488.484ZM194.857 499.959C195.087 499.723 195.361 499.534 195.665 499.405C195.968 499.275 196.294 499.207 196.624 499.204H207.62C208.283 499.204 208.919 499.468 209.388 499.936C209.857 500.405 210.12 501.04 210.12 501.703C210.12 502.366 209.857 503.001 209.388 503.47C208.919 503.939 208.283 504.202 207.62 504.202H196.616C196.122 504.202 195.639 504.055 195.228 503.781C194.817 503.506 194.497 503.116 194.308 502.659C194.118 502.203 194.069 501.701 194.165 501.216C194.262 500.731 194.5 500.286 194.849 499.937L194.857 499.959ZM145.652 449.772C144.989 449.772 144.353 449.508 143.884 449.04C143.415 448.571 143.152 447.935 143.152 447.273V428.294C143.152 427.631 143.415 426.996 143.884 426.527C144.353 426.058 144.989 425.795 145.652 425.795H186.624C187.286 425.797 187.92 426.061 188.387 426.53C188.854 426.998 189.117 427.632 189.117 428.294V447.273C189.117 447.934 188.854 448.569 188.387 449.037C187.92 449.505 187.286 449.77 186.624 449.772H145.652Z" fill="#2386C8"/>
<path opacity="0.1" d="M556.27 244.854H459.333V223.897C459.333 222.567 458.805 221.292 457.864 220.352C456.924 219.412 455.648 218.884 454.318 218.884H425.852V196.561C425.852 195.724 425.52 194.921 424.928 194.329C424.336 193.738 423.533 193.405 422.695 193.405H386.028C385.19 193.405 384.387 193.738 383.795 194.329C383.203 194.921 382.871 195.724 382.871 196.561V218.877H349.405C348.075 218.877 346.799 219.405 345.859 220.345C344.919 221.285 344.39 222.56 344.39 223.889V244.846H251.954C251.685 244.848 251.428 244.956 251.238 245.147C251.048 245.338 250.942 245.596 250.942 245.865V524.079C250.942 524.348 251.048 524.606 251.238 524.797C251.428 524.988 251.685 525.096 251.954 525.098H313.387C313.657 525.098 313.917 524.991 314.108 524.8C314.299 524.609 314.406 524.35 314.406 524.079V486.65C314.408 486.38 314.516 486.122 314.707 485.931C314.898 485.741 315.156 485.633 315.426 485.631H341.377C341.646 485.633 341.905 485.741 342.095 485.931C342.286 486.122 342.394 486.38 342.396 486.65V524.079C342.396 524.348 342.503 524.606 342.692 524.797C342.882 524.988 343.139 525.096 343.408 525.098H464.816C465.086 525.096 465.344 524.988 465.535 524.798C465.726 524.607 465.834 524.349 465.836 524.079V486.65C465.836 486.381 465.942 486.123 466.132 485.932C466.321 485.741 466.579 485.633 466.848 485.631H492.798C493.069 485.631 493.328 485.738 493.519 485.929C493.711 486.12 493.818 486.38 493.818 486.65V524.079C493.82 524.349 493.928 524.607 494.119 524.798C494.31 524.988 494.568 525.096 494.838 525.098H556.27C556.54 525.096 556.798 524.988 556.989 524.798C557.18 524.607 557.288 524.349 557.29 524.079V245.873C557.288 245.603 557.18 245.345 556.989 245.154C556.798 244.964 556.54 244.856 556.27 244.854ZM303.41 472.631C303.41 472.899 303.303 473.156 303.113 473.346C302.924 473.536 302.666 473.642 302.398 473.642H264.454C264.32 473.643 264.188 473.618 264.064 473.568C263.94 473.517 263.828 473.443 263.733 473.349C263.638 473.255 263.563 473.143 263.512 473.02C263.46 472.896 263.434 472.764 263.434 472.631V459.699C263.434 459.429 263.541 459.169 263.733 458.978C263.924 458.787 264.183 458.68 264.454 458.68H302.398C302.667 458.682 302.924 458.79 303.114 458.981C303.303 459.172 303.41 459.43 303.41 459.699V472.631ZM303.41 439.157C303.411 439.291 303.385 439.423 303.335 439.547C303.285 439.67 303.21 439.783 303.116 439.877C303.022 439.972 302.91 440.047 302.787 440.099C302.664 440.15 302.531 440.176 302.398 440.176H264.454C264.319 440.177 264.186 440.152 264.062 440.101C263.938 440.05 263.825 439.975 263.73 439.88C263.636 439.785 263.56 439.673 263.51 439.548C263.459 439.424 263.433 439.291 263.434 439.157V426.21C263.433 426.076 263.459 425.943 263.51 425.819C263.56 425.695 263.636 425.582 263.73 425.487C263.825 425.393 263.938 425.317 264.062 425.267C264.186 425.216 264.319 425.19 264.454 425.191H302.398C302.531 425.191 302.664 425.217 302.787 425.269C302.91 425.32 303.022 425.395 303.116 425.49C303.21 425.585 303.285 425.697 303.335 425.821C303.385 425.944 303.411 426.077 303.41 426.21V439.157ZM303.41 405.691C303.41 405.96 303.303 406.218 303.114 406.409C302.924 406.6 302.667 406.708 302.398 406.71H264.454C264.32 406.71 264.187 406.684 264.063 406.633C263.94 406.582 263.827 406.507 263.733 406.412C263.638 406.317 263.563 406.205 263.512 406.081C263.46 405.958 263.434 405.825 263.434 405.691V392.737C263.434 392.466 263.541 392.207 263.733 392.016C263.924 391.825 264.183 391.718 264.454 391.718H302.398C302.667 391.72 302.924 391.828 303.114 392.019C303.303 392.21 303.41 392.468 303.41 392.737V405.691ZM303.41 372.218C303.411 372.351 303.385 372.484 303.335 372.607C303.285 372.731 303.21 372.843 303.116 372.938C303.022 373.033 302.91 373.108 302.787 373.159C302.664 373.21 302.531 373.237 302.398 373.237H264.454C264.319 373.238 264.186 373.212 264.062 373.161C263.938 373.11 263.825 373.035 263.73 372.941C263.636 372.846 263.56 372.733 263.51 372.609C263.459 372.485 263.433 372.352 263.434 372.218V359.293C263.433 359.159 263.459 359.026 263.51 358.902C263.56 358.778 263.636 358.665 263.73 358.57C263.825 358.476 263.938 358.401 264.062 358.35C264.186 358.299 264.319 358.273 264.454 358.274H302.398C302.531 358.274 302.664 358.301 302.787 358.352C302.91 358.403 303.022 358.478 303.116 358.573C303.21 358.668 303.285 358.78 303.335 358.904C303.385 359.027 303.411 359.16 303.41 359.293V372.218ZM303.41 338.752C303.41 339.021 303.303 339.279 303.114 339.47C302.924 339.661 302.667 339.769 302.398 339.771H264.454C264.183 339.771 263.924 339.663 263.733 339.472C263.541 339.281 263.434 339.022 263.434 338.752V325.797C263.434 325.664 263.46 325.531 263.512 325.408C263.563 325.285 263.638 325.173 263.733 325.079C263.828 324.985 263.94 324.911 264.064 324.86C264.188 324.81 264.32 324.785 264.454 324.786H302.398C302.666 324.786 302.924 324.892 303.113 325.082C303.303 325.272 303.41 325.529 303.41 325.797V338.752ZM303.41 305.286C303.41 305.554 303.303 305.811 303.113 306.001C302.924 306.191 302.666 306.297 302.398 306.297H264.454C264.32 306.298 264.188 306.273 264.064 306.223C263.94 306.172 263.828 306.098 263.733 306.004C263.638 305.91 263.563 305.798 263.512 305.675C263.46 305.551 263.434 305.419 263.434 305.286V292.331C263.434 292.061 263.541 291.802 263.733 291.61C263.924 291.419 264.183 291.312 264.454 291.312H302.398C302.667 291.314 302.924 291.422 303.114 291.613C303.303 291.804 303.41 292.062 303.41 292.331V305.286ZM303.41 271.812C303.411 271.946 303.385 272.078 303.335 272.202C303.285 272.325 303.21 272.438 303.116 272.532C303.022 272.627 302.91 272.702 302.787 272.754C302.664 272.805 302.531 272.831 302.398 272.831H264.454C264.319 272.832 264.186 272.807 264.062 272.756C263.938 272.705 263.825 272.63 263.73 272.535C263.636 272.44 263.56 272.327 263.51 272.203C263.459 272.079 263.433 271.946 263.434 271.812V258.888C263.433 258.754 263.459 258.621 263.51 258.497C263.56 258.372 263.636 258.26 263.73 258.165C263.825 258.07 263.938 257.995 264.062 257.944C264.186 257.893 264.319 257.868 264.454 257.869H302.398C302.531 257.869 302.664 257.895 302.787 257.946C302.91 257.998 303.022 258.073 303.116 258.168C303.21 258.262 303.285 258.375 303.335 258.498C303.385 258.622 303.411 258.754 303.41 258.888V271.812ZM393.369 472.623C393.369 472.757 393.342 472.889 393.291 473.012C393.24 473.135 393.164 473.247 393.07 473.341C392.975 473.435 392.862 473.51 392.739 473.56C392.615 473.61 392.483 473.636 392.349 473.635H354.405C354.136 473.635 353.878 473.529 353.687 473.339C353.496 473.15 353.387 472.892 353.385 472.623V459.699C353.387 459.429 353.495 459.171 353.686 458.98C353.877 458.79 354.135 458.682 354.405 458.68H392.349C392.619 458.68 392.879 458.787 393.07 458.978C393.261 459.169 393.369 459.429 393.369 459.699V472.623ZM393.369 439.15C393.37 439.284 393.344 439.417 393.293 439.541C393.242 439.665 393.167 439.778 393.072 439.873C392.977 439.967 392.865 440.042 392.74 440.093C392.616 440.144 392.483 440.17 392.349 440.169H354.405C354.271 440.169 354.138 440.143 354.015 440.091C353.891 440.04 353.779 439.965 353.684 439.87C353.589 439.776 353.514 439.663 353.463 439.54C353.412 439.416 353.385 439.284 353.385 439.15V426.21C353.385 426.076 353.412 425.944 353.463 425.82C353.514 425.697 353.589 425.584 353.684 425.49C353.779 425.395 353.891 425.32 354.015 425.269C354.138 425.217 354.271 425.191 354.405 425.191H392.349C392.483 425.19 392.616 425.216 392.74 425.267C392.865 425.317 392.977 425.393 393.072 425.487C393.167 425.582 393.242 425.695 393.293 425.819C393.344 425.943 393.37 426.076 393.369 426.21V439.15ZM393.369 405.684C393.369 405.954 393.261 406.213 393.07 406.404C392.879 406.596 392.619 406.703 392.349 406.703H354.405C354.135 406.701 353.877 406.593 353.686 406.402C353.495 406.211 353.387 405.953 353.385 405.684V392.737C353.387 392.467 353.495 392.209 353.686 392.018C353.877 391.828 354.135 391.72 354.405 391.718H392.349C392.619 391.718 392.879 391.825 393.07 392.016C393.261 392.207 393.369 392.466 393.369 392.737V405.684ZM393.369 372.21C393.37 372.344 393.344 372.477 393.293 372.601C393.242 372.725 393.167 372.838 393.072 372.933C392.977 373.028 392.865 373.103 392.74 373.154C392.616 373.205 392.483 373.23 392.349 373.229H354.405C354.271 373.229 354.138 373.203 354.015 373.152C353.891 373.101 353.779 373.025 353.684 372.931C353.589 372.836 353.514 372.724 353.463 372.6C353.412 372.477 353.385 372.344 353.385 372.21V359.293C353.385 359.16 353.412 359.027 353.463 358.903C353.514 358.78 353.589 358.667 353.684 358.573C353.779 358.478 353.891 358.403 354.015 358.352C354.138 358.301 354.271 358.274 354.405 358.274H392.349C392.483 358.273 392.616 358.299 392.74 358.35C392.865 358.401 392.977 358.476 393.072 358.57C393.167 358.665 393.242 358.778 393.293 358.902C393.344 359.026 393.37 359.159 393.369 359.293V372.21ZM393.369 338.744C393.369 339.014 393.261 339.274 393.07 339.465C392.879 339.656 392.619 339.763 392.349 339.763H354.405C354.135 339.761 353.877 339.653 353.686 339.463C353.495 339.272 353.387 339.014 353.385 338.744V325.797C353.387 325.528 353.496 325.271 353.687 325.081C353.878 324.892 354.136 324.786 354.405 324.786H392.349C392.483 324.785 392.615 324.81 392.739 324.86C392.862 324.911 392.975 324.985 393.07 325.079C393.164 325.173 393.24 325.285 393.291 325.408C393.342 325.531 393.369 325.664 393.369 325.797V338.744ZM393.369 305.278C393.369 305.412 393.342 305.544 393.291 305.667C393.24 305.79 393.164 305.902 393.07 305.996C392.975 306.09 392.862 306.165 392.739 306.215C392.615 306.265 392.483 306.291 392.349 306.29H354.405C354.136 306.29 353.878 306.183 353.687 305.994C353.496 305.804 353.387 305.547 353.385 305.278V292.331C353.387 292.061 353.495 291.803 353.686 291.613C353.877 291.422 354.135 291.314 354.405 291.312H392.349C392.619 291.312 392.879 291.419 393.07 291.61C393.261 291.802 393.369 292.061 393.369 292.331V305.278ZM393.369 271.805C393.37 271.939 393.344 272.072 393.293 272.196C393.242 272.32 393.167 272.433 393.072 272.528C392.977 272.622 392.865 272.697 392.74 272.748C392.616 272.799 392.483 272.825 392.349 272.824H354.405C354.271 272.824 354.138 272.797 354.015 272.746C353.891 272.695 353.779 272.62 353.684 272.525C353.589 272.431 353.514 272.318 353.463 272.195C353.412 272.071 353.385 271.938 353.385 271.805V258.888C353.385 258.754 353.412 258.621 353.463 258.498C353.514 258.374 353.589 258.262 353.684 258.167C353.779 258.073 353.891 257.997 354.015 257.946C354.138 257.895 354.271 257.869 354.405 257.869H392.349C392.483 257.868 392.616 257.893 392.74 257.944C392.865 257.995 392.977 258.07 393.072 258.165C393.167 258.26 393.242 258.372 393.293 258.497C393.344 258.621 393.37 258.754 393.369 258.888V271.805ZM454.839 472.616C454.839 472.749 454.813 472.881 454.761 473.005C454.71 473.128 454.635 473.24 454.54 473.334C454.445 473.428 454.333 473.502 454.209 473.553C454.085 473.603 453.953 473.628 453.82 473.627H415.875C415.606 473.627 415.348 473.521 415.157 473.332C414.966 473.142 414.858 472.885 414.856 472.616V459.699C414.858 459.429 414.966 459.171 415.157 458.98C415.347 458.79 415.606 458.682 415.875 458.68H453.82C454.09 458.68 454.349 458.787 454.54 458.978C454.732 459.169 454.839 459.429 454.839 459.699V472.616ZM454.839 439.142C454.84 439.276 454.814 439.409 454.764 439.533C454.713 439.657 454.638 439.77 454.543 439.865C454.448 439.96 454.335 440.035 454.211 440.086C454.087 440.137 453.954 440.162 453.82 440.161H415.875C415.741 440.161 415.609 440.135 415.485 440.084C415.361 440.033 415.249 439.957 415.154 439.863C415.06 439.768 414.985 439.656 414.933 439.532C414.882 439.409 414.856 439.276 414.856 439.142V426.21C414.856 426.076 414.882 425.944 414.933 425.82C414.985 425.697 415.06 425.584 415.154 425.49C415.249 425.395 415.361 425.32 415.485 425.269C415.609 425.217 415.741 425.191 415.875 425.191H453.82C453.954 425.19 454.087 425.216 454.211 425.267C454.335 425.317 454.448 425.393 454.543 425.487C454.638 425.582 454.713 425.695 454.764 425.819C454.814 425.943 454.84 426.076 454.839 426.21V439.142ZM454.839 405.676C454.839 405.946 454.732 406.206 454.54 406.397C454.349 406.588 454.09 406.695 453.82 406.695H415.875C415.606 406.693 415.347 406.585 415.157 406.395C414.966 406.204 414.858 405.946 414.856 405.676V392.737C414.858 392.467 414.966 392.209 415.157 392.018C415.347 391.828 415.606 391.72 415.875 391.718H453.82C454.09 391.718 454.349 391.825 454.54 392.016C454.732 392.207 454.839 392.466 454.839 392.737V405.676ZM454.839 372.203C454.84 372.337 454.814 372.47 454.764 372.594C454.713 372.718 454.638 372.831 454.543 372.926C454.448 373.02 454.335 373.095 454.211 373.146C454.087 373.197 453.954 373.223 453.82 373.222H415.875C415.741 373.222 415.609 373.195 415.485 373.144C415.361 373.093 415.249 373.018 415.154 372.923C415.06 372.829 414.985 372.716 414.933 372.593C414.882 372.469 414.856 372.336 414.856 372.203V359.293C414.856 359.16 414.882 359.027 414.933 358.903C414.985 358.78 415.06 358.667 415.154 358.573C415.249 358.478 415.361 358.403 415.485 358.352C415.609 358.301 415.741 358.274 415.875 358.274H453.82C453.954 358.273 454.087 358.299 454.211 358.35C454.335 358.401 454.448 358.476 454.543 358.57C454.638 358.665 454.713 358.778 454.764 358.902C454.814 359.026 454.84 359.159 454.839 359.293V372.203ZM454.839 338.737C454.839 339.007 454.732 339.266 454.54 339.457C454.349 339.648 454.09 339.756 453.82 339.756H415.875C415.606 339.754 415.347 339.646 415.157 339.455C414.966 339.264 414.858 339.006 414.856 338.737V325.797C414.858 325.528 414.966 325.271 415.157 325.081C415.348 324.892 415.606 324.786 415.875 324.786H453.82C453.953 324.785 454.085 324.81 454.209 324.86C454.333 324.911 454.445 324.985 454.54 325.079C454.635 325.173 454.71 325.285 454.761 325.408C454.813 325.531 454.839 325.664 454.839 325.797V338.737ZM454.839 305.271C454.839 305.404 454.813 305.536 454.761 305.659C454.71 305.783 454.635 305.895 454.54 305.989C454.445 306.083 454.333 306.157 454.209 306.207C454.085 306.258 453.953 306.283 453.82 306.282H415.875C415.606 306.282 415.348 306.176 415.157 305.986C414.966 305.797 414.858 305.54 414.856 305.271V292.331C414.858 292.061 414.966 291.803 415.157 291.613C415.347 291.422 415.606 291.314 415.875 291.312H453.82C454.09 291.312 454.349 291.419 454.54 291.61C454.732 291.802 454.839 292.061 454.839 292.331V305.271ZM454.839 271.797C454.84 271.931 454.814 272.064 454.764 272.188C454.713 272.312 454.638 272.425 454.543 272.52C454.448 272.615 454.335 272.69 454.211 272.741C454.087 272.792 453.954 272.817 453.82 272.816H415.875C415.741 272.816 415.609 272.79 415.485 272.739C415.361 272.687 415.249 272.612 415.154 272.518C415.06 272.423 414.985 272.311 414.933 272.187C414.882 272.063 414.856 271.931 414.856 271.797V258.888C414.856 258.754 414.882 258.621 414.933 258.498C414.985 258.374 415.06 258.262 415.154 258.167C415.249 258.073 415.361 257.997 415.485 257.946C415.609 257.895 415.741 257.869 415.875 257.869H453.82C453.954 257.868 454.087 257.893 454.211 257.944C454.335 257.995 454.448 258.07 454.543 258.165C454.638 258.26 454.713 258.372 454.764 258.497C454.814 258.621 454.84 258.754 454.839 258.888V271.797ZM544.798 472.608C544.796 472.877 544.688 473.134 544.497 473.324C544.306 473.513 544.047 473.62 543.778 473.62H505.834C505.701 473.621 505.568 473.595 505.445 473.545C505.321 473.495 505.208 473.42 505.114 473.326C505.019 473.232 504.944 473.12 504.892 472.997C504.841 472.874 504.815 472.742 504.815 472.608V459.699C504.815 459.429 504.922 459.169 505.113 458.978C505.304 458.787 505.564 458.68 505.834 458.68H543.786C544.056 458.682 544.314 458.79 544.505 458.98C544.695 459.171 544.803 459.429 544.805 459.699L544.798 472.608ZM544.798 439.135C544.798 439.405 544.69 439.664 544.499 439.855C544.308 440.046 544.049 440.154 543.778 440.154H505.834C505.7 440.155 505.567 440.129 505.443 440.078C505.319 440.027 505.206 439.952 505.111 439.858C505.016 439.763 504.941 439.65 504.89 439.526C504.839 439.402 504.814 439.269 504.815 439.135V426.21C504.814 426.076 504.839 425.943 504.89 425.819C504.941 425.695 505.016 425.582 505.111 425.487C505.206 425.393 505.319 425.317 505.443 425.267C505.567 425.216 505.7 425.19 505.834 425.191H543.786C544.056 425.191 544.316 425.298 544.507 425.49C544.698 425.681 544.805 425.94 544.805 426.21L544.798 439.135ZM544.798 405.669C544.796 405.938 544.688 406.196 544.497 406.387C544.306 406.578 544.048 406.686 543.778 406.688H505.834C505.564 406.688 505.304 406.58 505.113 406.389C504.922 406.198 504.815 405.939 504.815 405.669V392.737C504.815 392.466 504.922 392.207 505.113 392.016C505.304 391.825 505.564 391.718 505.834 391.718H543.786C544.056 391.72 544.314 391.828 544.505 392.018C544.695 392.209 544.803 392.467 544.805 392.737L544.798 405.669ZM544.798 372.195C544.798 372.465 544.69 372.725 544.499 372.916C544.308 373.107 544.049 373.214 543.778 373.214H505.834C505.7 373.215 505.567 373.19 505.443 373.139C505.319 373.088 505.206 373.013 505.111 372.918C505.016 372.823 504.941 372.71 504.89 372.586C504.839 372.462 504.814 372.329 504.815 372.195V359.293C504.814 359.159 504.839 359.026 504.89 358.902C504.941 358.778 505.016 358.665 505.111 358.57C505.206 358.476 505.319 358.401 505.443 358.35C505.567 358.299 505.7 358.273 505.834 358.274H543.786C544.056 358.274 544.316 358.382 544.507 358.573C544.698 358.764 544.805 359.023 544.805 359.293L544.798 372.195ZM544.798 338.729C544.796 338.999 544.688 339.257 544.497 339.448C544.306 339.638 544.048 339.746 543.778 339.748H505.834C505.564 339.748 505.304 339.641 505.113 339.45C504.922 339.259 504.815 338.999 504.815 338.729V325.797C504.815 325.664 504.841 325.531 504.892 325.408C504.944 325.285 505.019 325.173 505.114 325.079C505.208 324.985 505.321 324.911 505.445 324.86C505.568 324.81 505.701 324.785 505.834 324.786H543.786C544.055 324.786 544.313 324.892 544.504 325.081C544.695 325.271 544.803 325.528 544.805 325.797L544.798 338.729ZM544.798 305.263C544.8 305.398 544.775 305.531 544.725 305.656C544.675 305.781 544.601 305.895 544.507 305.991C544.413 306.087 544.301 306.164 544.177 306.216C544.053 306.269 543.92 306.296 543.786 306.297H505.834C505.701 306.298 505.568 306.273 505.445 306.223C505.321 306.172 505.208 306.098 505.114 306.004C505.019 305.91 504.944 305.798 504.892 305.675C504.841 305.551 504.815 305.419 504.815 305.286V292.331C504.815 292.061 504.922 291.802 505.113 291.61C505.304 291.419 505.564 291.312 505.834 291.312H543.786C544.056 291.314 544.314 291.422 544.505 291.613C544.695 291.803 544.803 292.061 544.805 292.331L544.798 305.263ZM544.798 271.79C544.798 272.06 544.69 272.319 544.499 272.51C544.308 272.701 544.049 272.809 543.778 272.809H505.834C505.7 272.81 505.567 272.784 505.443 272.733C505.319 272.682 505.206 272.607 505.111 272.512C505.016 272.418 504.941 272.305 504.89 272.181C504.839 272.057 504.814 271.924 504.815 271.79V258.888C504.814 258.754 504.839 258.621 504.89 258.497C504.941 258.372 505.016 258.26 505.111 258.165C505.206 258.07 505.319 257.995 505.443 257.944C505.567 257.893 505.7 257.868 505.834 257.869H543.786C544.056 257.869 544.316 257.976 544.507 258.167C544.698 258.358 544.805 258.617 544.805 258.888L544.798 271.79Z" fill="#2386C8"/>
<path opacity="0.1" d="M280.201 169.451C275.936 168.64 271.526 169.118 267.535 170.825C265.13 171.897 262.525 172.447 259.892 172.441C257.258 172.434 254.656 171.871 252.256 170.788C249.427 169.548 246.363 168.938 243.275 168.999C240.187 169.06 237.149 169.791 234.372 171.142C232.783 171.979 231.016 172.419 229.221 172.426C221.97 172.426 215.936 165.126 214.682 155.493C216.131 154.437 217.362 153.112 218.307 151.59C222.559 144.743 229.145 140.341 236.539 140.341C243.933 140.341 250.436 144.69 254.665 151.461C255.934 153.507 257.709 155.191 259.82 156.35C261.93 157.508 264.304 158.103 266.712 158.075H266.901C272.731 158.075 277.731 162.702 280.201 169.451Z" fill="#2386C8"/>
<path opacity="0.1" d="M302.254 139.216L290.533 146.645L297.647 133.713C295.631 132.104 293.135 131.214 290.555 131.184H290.367C289.552 131.196 288.738 131.135 287.935 131.003L283.977 133.524L285.684 130.429C282.868 129.445 280.435 127.595 278.736 125.145L271.621 129.674L276.1 121.491C271.938 116.501 266.334 113.443 260.171 113.443C252.777 113.443 246.191 117.837 241.939 124.684C240.68 126.739 238.898 128.423 236.775 129.565C234.652 130.707 232.265 131.265 229.855 131.184H229.455C221.291 131.184 214.675 140.432 214.675 151.846C214.675 163.261 221.291 172.509 229.455 172.509C231.251 172.504 233.02 172.061 234.606 171.218C237.384 169.868 240.422 169.138 243.51 169.078C246.598 169.018 249.662 169.63 252.49 170.871C254.884 171.938 257.475 172.49 260.096 172.49C262.717 172.49 265.308 171.938 267.701 170.871C270.508 169.651 273.545 169.05 276.605 169.108C279.665 169.167 282.677 169.884 285.435 171.21C287.006 172.032 288.752 172.465 290.525 172.471C298.689 172.471 305.306 163.216 305.306 151.809C305.357 147.422 304.308 143.093 302.254 139.216Z" fill="#2386C8"/>
<path opacity="0.1" d="M628.375 307.203C625.389 306.638 622.303 306.972 619.508 308.162C617.833 308.911 616.019 309.298 614.183 309.298C612.348 309.298 610.534 308.911 608.859 308.162C606.878 307.294 604.733 306.867 602.57 306.91C600.408 306.953 598.281 307.465 596.337 308.411C595.226 308.997 593.99 309.306 592.734 309.309C587.659 309.309 583.437 304.199 582.561 297.457C583.573 296.716 584.434 295.788 585.099 294.724C588.074 289.93 592.651 286.85 597.855 286.85C603.059 286.85 607.59 289.87 610.566 294.634C611.452 296.066 612.694 297.245 614.171 298.055C615.648 298.866 617.31 299.282 618.994 299.261H619.13C623.133 299.246 626.63 302.485 628.375 307.203Z" fill="#2386C8"/>
<path opacity="0.1" d="M643.797 286.065L635.595 291.267L640.572 282.208C639.161 281.083 637.415 280.462 635.61 280.441H635.482C634.913 280.448 634.344 280.405 633.782 280.313L630.995 282.072L632.189 279.913C630.221 279.221 628.52 277.93 627.325 276.221L622.333 279.361L625.475 273.647C622.567 270.151 618.677 268.007 614.327 268.007C609.153 268.007 604.509 271.087 601.563 275.881C600.682 277.313 599.437 278.486 597.955 279.282C596.474 280.077 594.808 280.467 593.127 280.411H592.878C587.168 280.411 582.531 286.881 582.531 294.868C582.531 302.855 587.168 309.332 592.878 309.332C594.134 309.328 595.37 309.02 596.48 308.434C598.425 307.487 600.552 306.975 602.715 306.933C604.877 306.892 607.023 307.321 609.002 308.192C610.679 308.936 612.493 309.321 614.327 309.321C616.161 309.321 617.975 308.936 619.652 308.192C621.616 307.34 623.741 306.92 625.882 306.962C628.024 307.003 630.131 307.505 632.06 308.434C633.162 309.004 634.384 309.305 635.625 309.31C641.343 309.31 645.972 302.84 645.972 294.845C645.99 291.783 645.242 288.765 643.797 286.065Z" fill="#2386C8"/>
<path opacity="0.1" d="M180.22 258.888C183.205 258.323 186.291 258.657 189.086 259.847C190.76 260.596 192.573 260.983 194.407 260.983C196.241 260.983 198.054 260.596 199.728 259.847C201.709 258.979 203.854 258.552 206.017 258.595C208.179 258.638 210.306 259.15 212.25 260.096C213.361 260.681 214.597 260.989 215.853 260.994C220.928 260.994 225.158 255.883 226.034 249.142C225.02 248.402 224.158 247.474 223.496 246.409C220.535 241.6 215.906 238.505 210.717 238.505C205.528 238.505 200.989 241.524 198.014 246.288C197.124 247.722 195.88 248.903 194.401 249.716C192.922 250.529 191.258 250.948 189.57 250.931H189.441C185.423 250.931 181.919 254.169 180.22 258.888Z" fill="#2386C8"/>
<path opacity="0.1" d="M164.752 237.75L172.954 242.929L167.969 233.869C169.381 232.746 171.127 232.125 172.931 232.103H173.067C173.636 232.109 174.205 232.066 174.767 231.975L177.546 233.734L176.353 231.574C178.323 230.884 180.027 229.593 181.224 227.883L186.201 231.038L183.052 225.324C185.967 221.828 189.887 219.684 194.207 219.684C199.381 219.684 204.025 222.764 206.971 227.558C207.852 228.991 209.096 230.164 210.578 230.96C212.06 231.756 213.726 232.145 215.407 232.088H215.679C221.396 232.088 226.026 238.558 226.026 246.545C226.026 254.532 221.396 261.009 215.679 261.009C214.423 261.004 213.188 260.695 212.076 260.111C210.132 259.164 208.004 258.652 205.842 258.61C203.68 258.569 201.534 258.998 199.554 259.869C197.879 260.613 196.067 260.998 194.233 260.998C192.4 260.998 190.588 260.613 188.913 259.869C186.947 259.017 184.821 258.597 182.678 258.638C180.536 258.68 178.427 259.182 176.496 260.111C175.395 260.682 174.173 260.982 172.931 260.986C167.222 260.986 162.584 254.517 162.584 246.522C162.565 243.463 163.311 240.448 164.752 237.75Z" fill="#2386C8"/>
<path d="M165.16 528.496C175.386 534.988 190.121 528.42 200.415 534.814C203.074 536.46 205.219 538.883 207.968 540.378C211.268 542.182 215.15 542.507 218.904 542.643C250.338 543.858 282.3 535.094 312.949 542.175C321.521 544.153 329.904 547.369 338.688 547.837C353.861 548.66 368.4 541.261 383.588 540.854C406.623 540.235 429.258 555.643 451.486 549.566C458.797 547.565 465.503 543.3 473.048 542.583C481.454 541.828 489.536 545.489 497.708 547.625C526.687 555.175 556.867 542.945 586.828 542.031C606.367 541.435 625.716 545.693 645.24 546.674C659.121 547.369 673.033 546.395 686.9 545.429C692.186 545.059 697.723 544.606 702.148 541.707C706.574 538.808 709.293 532.58 706.559 528.05L165.16 528.496Z" fill="#3F3D56"/>
<path opacity="0.1" d="M165.16 528.496C175.386 534.988 190.121 528.42 200.415 534.814C203.074 536.46 205.219 538.883 207.968 540.378C211.268 542.182 215.15 542.507 218.904 542.643C250.338 543.858 282.3 535.094 312.949 542.175C321.521 544.153 329.904 547.369 338.688 547.837C353.861 548.66 368.4 541.261 383.588 540.854C406.623 540.235 429.258 555.643 451.486 549.566C458.797 547.565 465.503 543.3 473.048 542.583C481.454 541.828 489.536 545.489 497.708 547.625C526.687 555.175 556.867 542.945 586.828 542.031C606.367 541.435 625.716 545.693 645.24 546.674C659.121 547.369 673.033 546.395 686.9 545.429C692.186 545.059 697.723 544.606 702.148 541.707C706.574 538.808 709.293 532.58 706.559 528.05L165.16 528.496Z" fill="black"/>
<path d="M165.16 524.721C175.386 531.213 190.121 524.645 200.415 531.04C203.074 532.685 205.219 535.109 207.968 536.603C211.268 538.408 215.15 538.732 218.904 538.868C250.338 540.084 282.3 531.319 312.949 538.4C321.521 540.378 329.904 543.594 338.688 544.062C353.861 544.885 368.4 537.487 383.588 537.079C406.623 536.46 429.258 551.868 451.486 545.791C458.797 543.79 465.503 539.525 473.048 538.808C481.454 538.053 489.536 541.714 497.708 543.851C526.687 551.4 556.867 539.17 586.828 538.257C606.367 537.66 625.716 541.918 645.24 542.9C659.121 543.594 673.033 542.62 686.9 541.654C692.186 541.284 697.723 540.831 702.148 537.932C706.574 535.033 709.293 528.805 706.559 524.275L165.16 524.721Z" fill="#3F3D56"/>
<g opacity="0.1">
<path opacity="0.1" d="M92.4059 431.714C92.437 434.99 91.595 438.216 89.9664 441.06C91.5659 443.915 92.4059 447.133 92.4059 450.406C92.4059 453.678 91.5659 456.896 89.9664 459.752C90.7936 461.166 91.4142 462.691 91.8092 464.281C83.5649 453.419 75.9761 442.075 69.0835 430.309C69.2495 427.503 70.0666 424.774 71.4701 422.337C69.8414 419.494 68.9994 416.268 69.0306 412.991C69.0209 410.777 69.394 408.578 70.1333 406.491C70.4852 405.502 70.933 404.548 71.4701 403.645C73.5999 400.029 76.9533 397.697 80.7145 397.697C84.4757 397.697 87.8366 400.029 89.9664 403.645C90.4845 404.522 90.9218 405.445 91.273 406.401C92.0304 408.515 92.4138 410.745 92.4059 412.991C92.437 416.268 91.595 419.494 89.9664 422.337C91.6003 425.19 92.4424 428.427 92.4059 431.714Z" fill="#3F3D56"/>
<path opacity="0.1" d="M80.7145 409.632C87.1673 409.632 92.3983 402.784 92.3983 394.337C92.3983 385.89 87.1673 379.042 80.7145 379.042C74.2617 379.042 69.0306 385.89 69.0306 394.337C69.0306 402.784 74.2617 409.632 80.7145 409.632Z" fill="#3F3D56"/>
<path opacity="0.1" d="M80.7145 390.94C87.1673 390.94 92.3983 384.092 92.3983 375.645C92.3983 367.198 87.1673 360.35 80.7145 360.35C74.2617 360.35 69.0306 367.198 69.0306 375.645C69.0306 384.092 74.2617 390.94 80.7145 390.94Z" fill="#3F3D56"/>
<path opacity="0.1" d="M136.453 282.291C136.472 294.844 132.248 307.036 124.467 316.889C130.393 324.421 134.285 333.348 135.77 342.815C137.255 352.281 136.284 361.971 132.949 370.954C129.613 379.938 124.026 387.915 116.722 394.122C109.418 400.328 100.642 404.556 91.2352 406.401C89.8908 406.673 88.5238 406.884 87.1417 407.05C82.8784 407.56 78.5708 407.583 74.3023 407.118C72.8824 406.967 71.4802 406.758 70.0955 406.491C63.99 405.364 58.1177 403.218 52.7246 400.142C42.6724 379.616 33.8923 358.491 26.4341 336.887C28.3962 329.622 31.8107 322.829 36.4714 316.919C30.7099 309.603 26.8639 300.967 25.2815 291.791C23.6991 282.616 24.43 273.191 27.4083 264.369L69.9143 278.629L30.0517 257.929C31.8073 254.308 33.9469 250.886 36.4337 247.722C31.6796 241.683 28.2209 234.73 26.2728 227.296C24.3248 219.863 23.9293 212.108 25.111 204.514C26.2926 196.921 29.0261 189.653 33.1411 183.162C37.2562 176.67 42.6645 171.096 49.0291 166.786C55.3937 162.475 62.5782 159.521 70.1349 158.108C77.6916 156.695 85.4586 156.852 92.9518 158.57C100.445 160.288 107.504 163.531 113.689 168.095C119.873 172.66 125.051 178.449 128.9 185.101L87.8063 215.298L132.367 192.197C135.216 199.272 136.59 206.853 136.406 214.476C136.221 222.1 134.482 229.606 131.294 236.534L98.0627 236.285L128.772 241.328C127.468 243.56 126.012 245.699 124.414 247.73C132.205 257.567 136.447 269.744 136.453 282.291Z" fill="#2386C8"/>
<path opacity="0.1" d="M136.453 351.518C136.45 364.485 131.945 377.049 123.704 387.064C115.464 397.08 104.001 403.925 91.273 406.431C89.9286 406.703 88.5616 406.914 87.1795 407.08C82.9161 407.59 78.6086 407.613 74.3401 407.148C72.9202 406.997 71.518 406.788 70.1333 406.522C64.0278 405.394 58.1555 403.248 52.7624 400.173C42.6962 379.637 33.9035 358.502 26.4341 336.887C28.3962 329.622 31.8107 322.829 36.4715 316.919C28.6859 307.056 24.4622 294.854 24.4855 282.291C24.4855 276.01 131.974 307.369 124.467 316.889C132.255 326.75 136.479 338.954 136.453 351.518Z" fill="black"/>
</g>
<g opacity="0.1">
<path opacity="0.1" d="M766.512 417.159C764.321 424.149 761.98 431.087 759.578 437.866C758.911 435.868 758.574 433.775 758.581 431.668C758.581 424.927 761.904 419.205 766.512 417.159Z" fill="#3F3D56"/>
<path opacity="0.1" d="M790 296.702C790 309.951 787.326 330.885 782.447 354.832C778.174 375.863 772.843 396.665 766.474 417.159C764.283 424.149 761.942 431.087 759.54 437.866C756.784 445.567 753.876 453.056 750.832 460.22C742.511 457.166 735.03 452.189 729.001 445.693C722.972 439.198 718.566 431.369 716.142 422.847C713.718 414.324 713.346 405.349 715.055 396.655C716.764 387.961 720.507 379.794 725.977 372.822C720.214 365.484 716.368 356.828 714.786 347.635C713.204 338.441 713.935 328.999 716.914 320.158L759.42 334.449L719.557 313.703C721.312 310.075 723.452 306.646 725.939 303.474C720.63 296.707 716.945 288.812 715.171 280.397C713.396 271.982 713.578 263.273 715.703 254.939C717.828 246.606 721.839 238.872 727.427 232.332C733.015 225.793 740.03 220.624 747.932 217.223C765.089 228.923 778.004 245.852 784.751 265.486L777.387 270.967L785.287 266.867C787.937 275.007 789.484 283.464 789.887 292.014H787.666L789.932 292.384C790 293.811 790 295.245 790 296.702Z" fill="#2386C8"/>
<path opacity="0.1" d="M782.485 354.832C778.212 375.863 772.881 396.665 766.512 417.159C764.321 424.149 761.98 431.087 759.578 437.866C756.821 445.567 753.914 453.056 750.87 460.22C742.549 457.166 735.068 452.189 729.039 445.693C723.01 439.198 718.604 431.369 716.18 422.847C713.756 414.324 713.383 405.349 715.093 396.655C716.802 387.961 720.544 379.794 726.015 372.822C718.238 362.94 714.018 350.728 714.036 338.155C714.036 334.381 753.098 344.27 782.485 354.832Z" fill="black"/>
</g>
<path opacity="0.1" d="M789.902 292.369C789.902 292.256 789.902 292.135 789.902 292.014C789.499 283.464 787.952 275.007 785.302 266.867C785.151 266.407 785 265.939 784.842 265.486C778.094 245.852 765.18 228.923 748.023 217.223C728.791 204.126 705.447 198.476 682.352 201.33C659.256 204.184 637.991 215.346 622.529 232.73C620.911 223.565 618.352 214.592 614.893 205.952C589.693 209.137 564.26 210.084 538.892 208.783C554.437 215.948 570.555 221.799 587.077 226.275L586.488 228.464C567.946 223.431 549.913 216.683 532.623 208.308L527.404 205.779L533.19 206.156C560.14 207.92 587.197 207.144 614.002 203.838C608.203 190.012 600.159 177.238 590.196 166.032C546.724 161.653 503.591 152.533 463.313 134.453L464.242 132.392C503.448 150.004 545.463 159.056 587.878 163.51C573.521 148.126 555.782 136.29 536.062 128.935C516.343 121.581 495.182 118.91 474.253 121.134C453.323 123.357 433.197 130.414 415.465 141.748C397.733 153.081 382.879 168.381 372.078 186.437C368.06 147.496 351.878 110.808 325.826 81.5776C302.633 90.8405 278.686 98.0918 254.25 103.252C217.5 111.059 179.889 114.051 142.366 112.152C157.911 119.317 174.029 125.168 190.552 129.644L189.963 131.833C171.426 126.8 153.398 120.052 136.113 111.677L130.894 109.148L136.679 109.525C200.638 113.724 264.727 103.574 324.255 79.8186C322.014 77.3676 319.708 74.972 317.337 72.6317C243.004 74.1416 162.048 73.3866 88.7579 46.715C61.5995 63.4704 39.1846 86.8965 23.6479 114.762C8.11123 142.628 -0.0298423 174.006 2.08273e-05 205.907C2.08273e-05 240.981 9.64467 289.213 26.4341 337.604C33.9156 359.262 42.7209 380.44 52.8001 401.018C57.9283 411.436 63.3737 421.56 69.091 431.253C75.9844 443.018 83.5731 454.362 91.8167 465.225C93.2971 467.173 94.795 469.085 96.3105 470.962C104.759 481.65 114.24 491.479 124.618 500.307C126.717 502.058 128.829 503.726 130.954 505.312C136.649 509.615 142.715 513.404 149.08 516.636C160.16 522.184 171.595 525.438 183.294 525.906C184.23 525.944 185.174 525.967 186.111 525.967V526.352H693.644V525.967H694.022C696.947 525.955 699.849 525.445 702.602 524.457C720.547 518.093 737.071 492.538 750.81 460.242C753.831 453.078 756.761 445.589 759.518 437.889C761.95 431.095 764.261 424.172 766.451 417.181C772.82 396.687 778.151 375.885 782.425 354.854C787.266 330.908 789.977 309.974 789.977 296.725C790 295.245 790 293.811 789.902 292.369Z" fill="#2386C8"/>
<path d="M252.302 504.134L266.757 495.634C264.801 492.297 262.302 489.309 259.363 486.793L232.091 495.271L253.465 482.717C248.174 479.82 242.219 478.35 236.187 478.451C230.155 478.553 224.254 480.223 219.064 483.297C213.874 486.371 209.574 490.743 206.587 495.982C203.601 501.221 202.031 507.148 202.032 513.178C202.032 532.353 217.582 533.018 236.773 533.018C255.965 533.018 271.515 532.353 271.515 513.178C271.522 508.323 270.506 503.52 268.532 499.084L252.302 504.134Z" fill="#2386C8"/>
<path opacity="0.1" d="M255.98 522.773C254.441 521.233 252.722 519.884 250.859 518.757C248.231 517.013 245.519 515.231 242.423 514.643C239.704 514.122 236.902 514.56 234.115 514.401C229.307 514.108 224.781 512.035 221.419 508.588C219.448 506.55 217.892 504.059 215.52 502.481C212.96 500.805 209.713 500.442 206.676 500.858C205.795 500.983 204.923 501.162 204.063 501.394C202.699 505.173 202.004 509.161 202.009 513.178C202.009 532.353 217.56 533.018 236.751 533.018C246.063 533.018 254.514 532.859 260.753 530.511L259.711 528.563C258.715 526.485 257.461 524.539 255.98 522.773Z" fill="black"/>
<path d="M413.383 167.232C428.295 167.232 440.383 155.149 440.383 140.243C440.383 125.338 428.295 113.254 413.383 113.254C398.471 113.254 386.383 125.338 386.383 140.243C386.383 155.149 398.471 167.232 413.383 167.232Z" fill="#3F3D56"/>
<path d="M397.719 350.189C400.506 369.734 397.107 389.664 391.813 408.681C390.823 412.221 389.758 415.792 387.908 418.97C386.058 422.149 383.482 424.882 381.307 427.871C376.776 434.107 374.117 441.46 371.632 448.737C364.782 468.875 359.028 489.368 354.397 510.128C354.118 510.979 354.118 511.897 354.397 512.748C355.054 514.258 357.048 514.454 358.687 514.446L379.88 514.333C380.635 512.884 379.238 511.313 378.369 509.924C375.348 505.229 378.248 499.129 380.914 494.214C387.394 482.278 392.41 469.604 395.853 456.468C397.304 450.934 398.482 445.28 400.838 440.063C403.685 433.737 408.149 428.294 411.774 422.375C415.989 415.498 419.063 408.032 422.114 400.535C426.373 390.132 430.671 379.601 432.348 368.488C433.926 358.055 433.148 347.426 432.121 336.925C432.169 336.612 432.141 336.293 432.041 335.993C431.941 335.694 431.772 335.422 431.546 335.201C431.32 334.979 431.045 334.815 430.743 334.721C430.441 334.627 430.121 334.606 429.81 334.66L401.374 333.195C395.514 332.893 394.124 331.61 395.015 337.363C395.634 341.658 397.1 345.84 397.719 350.189Z" fill="#3F3D56"/>
<path opacity="0.1" d="M397.719 350.189C400.506 369.734 397.107 389.664 391.813 408.681C390.823 412.221 389.758 415.792 387.908 418.97C386.058 422.149 383.482 424.882 381.307 427.871C376.776 434.107 374.117 441.46 371.632 448.737C364.782 468.875 359.028 489.368 354.397 510.128C354.118 510.979 354.118 511.897 354.397 512.748C355.054 514.258 357.048 514.454 358.687 514.446L379.88 514.333C380.635 512.884 379.238 511.313 378.369 509.924C375.348 505.229 378.248 499.129 380.914 494.214C387.394 482.278 392.41 469.604 395.853 456.468C397.304 450.934 398.482 445.28 400.838 440.063C403.685 433.737 408.149 428.294 411.774 422.375C415.989 415.498 419.063 408.032 422.114 400.535C426.373 390.132 430.671 379.601 432.348 368.488C433.926 358.055 433.148 347.426 432.121 336.925C432.169 336.612 432.141 336.293 432.041 335.993C431.941 335.694 431.772 335.422 431.546 335.201C431.32 334.979 431.045 334.815 430.743 334.721C430.441 334.627 430.121 334.606 429.81 334.66L401.374 333.195C395.514 332.893 394.124 331.61 395.015 337.363C395.634 341.658 397.1 345.84 397.719 350.189Z" fill="black"/>
<path d="M403.308 302.674C397.53 310.978 391.473 320.535 393.391 330.478C394.849 338.027 400.604 343.878 406.034 349.351C427.74 371.138 449.084 395.341 456.47 425.199C458.374 432.914 459.295 440.833 460.934 448.601C463.91 462.719 469.242 476.217 474.529 489.632L488.697 525.378C493.092 525.486 497.413 524.24 501.074 521.809C504.736 519.378 507.56 515.88 509.165 511.789C507.307 511.646 504.882 509.849 503.795 508.339C497.753 499.982 496.514 489.232 494.966 479.04C493.251 467.777 490.963 456.604 488.667 445.438L478.516 396.036C477.346 390.336 476.175 384.629 474.65 379.012C468.743 357.255 457.55 336.736 455.821 314.239C455.564 310.933 455.406 307.301 453.162 304.848C450.806 302.258 446.939 301.828 443.442 301.624C429.296 300.718 417.091 299.337 403.308 302.674Z" fill="#3F3D56"/>
<path d="M365.145 509.622C363.604 509.257 362.03 509.054 360.447 509.018C358.93 509.072 357.447 509.479 356.114 510.206C354.782 510.934 353.638 511.961 352.774 513.208C351.891 514.622 351.198 516.144 350.712 517.738L348.665 523.611C348.061 525.332 347.472 527.318 348.37 528.896C349.039 529.876 350.002 530.619 351.12 531.017C356.074 533.221 361.693 533.342 367.055 533.871C372.297 534.384 377.493 535.305 382.667 536.271C384.449 536.611 386.224 536.951 388.029 537.132C392.062 537.54 396.125 537.132 400.158 536.77L404.32 536.369C405.713 536.309 407.091 536.055 408.413 535.615C409.074 535.391 409.683 535.035 410.202 534.569C410.721 534.103 411.14 533.537 411.434 532.904C412.462 530.36 410.256 527.348 407.56 526.82C406.465 526.608 405.294 526.706 404.222 526.563C402.963 526.347 401.736 525.98 400.566 525.468C395.279 523.377 389.864 521.263 385.182 517.972C383.883 517.058 382.523 515.783 382.667 514.197C382.802 513.518 383.028 512.861 383.339 512.242C383.974 510.622 383.995 508.826 383.399 507.192C383.142 506.497 382.644 505.765 381.942 505.682C379.948 505.44 380.189 508.347 379.895 509.456C379.495 510.966 378.769 511.102 377.35 510.966C373.271 510.596 369.193 510.392 365.145 509.622Z" fill="#F2F2F2"/>
<path d="M484.377 529.907C484.414 532.857 485.428 535.711 487.262 538.023C487.823 538.712 488.523 539.276 489.317 539.676C490.511 540.168 491.805 540.372 493.093 540.272C496.688 540.194 500.241 539.476 503.584 538.151C504.761 537.618 505.972 537.162 507.209 536.785C508.765 536.466 510.339 536.24 511.922 536.105C518.168 535.207 523.651 531.523 529.685 529.658C531.488 529.212 533.255 528.631 534.972 527.922C537.359 526.797 539.292 524.902 541.188 523.068C542.306 522.077 543.268 520.924 544.043 519.648C545.153 517.587 545.221 515.118 545.266 512.785C545.307 512.421 545.244 512.052 545.085 511.721C544.912 511.483 544.677 511.297 544.405 511.185C542.57 510.279 540.395 510.732 538.363 511.087C531.022 512.393 523.507 512.151 516.053 511.91C515.346 512.007 514.626 511.868 514.006 511.514C513.386 511.161 512.9 510.612 512.624 509.955L509.792 505.425C508.984 504.126 507.7 502.639 506.234 503.085C505.064 503.439 504.588 504.874 504.633 506.104C504.679 507.335 505.056 508.558 504.822 509.758C504.655 510.419 504.355 511.038 503.939 511.578C503.523 512.119 503.001 512.568 502.405 512.899C501.216 513.545 499.946 514.033 498.629 514.348C494.46 515.526 489.611 516.862 486.386 519.927C484.015 522.101 484.234 526.971 484.377 529.907Z" fill="#F2F2F2"/>
<path d="M482.912 230.397C484.538 229.155 485.934 227.637 487.036 225.913C487.985 223.967 488.581 221.868 488.796 219.715L489.981 212.226C490.638 208.096 491.409 203.725 494.165 200.577C496.922 197.429 502.413 196.304 505.215 199.414C506.438 200.766 506.922 202.623 507.224 204.427C508.086 209.807 507.731 215.312 506.186 220.538C504.641 225.763 501.946 230.576 498.297 234.624C494.906 238.339 490.744 241.29 487.157 244.801C484.03 247.821 481.318 251.286 478.433 254.57C471.456 262.502 463.465 269.482 454.665 275.33C454.771 269.713 455.489 263.689 454.665 258.11C454.054 254.079 452.4 251.905 456.304 249.27C465.367 243.11 474.514 237.538 482.912 230.397Z" fill="#FBBEBE"/>
<path d="M406.752 175.151C406.457 179.167 404.788 183.274 401.465 185.592C410.876 188.883 420.158 192.512 429.311 196.478C427.544 194.779 427.008 192.175 426.925 189.729C426.691 183.334 428.904 177.046 432.136 171.535C432.65 170.836 432.947 170.001 432.989 169.134C432.884 167.353 430.769 166.53 429.032 166.115C423.105 164.677 417.057 163.8 410.966 163.495C408.361 163.412 405.272 162.589 405.861 165.903C406.419 168.998 406.986 172.018 406.752 175.151Z" fill="#FBBEBE"/>
<path d="M424.954 177.303C437.146 177.303 447.03 167.423 447.03 155.236C447.03 143.049 437.146 133.169 424.954 133.169C412.761 133.169 402.877 143.049 402.877 155.236C402.877 167.423 412.761 177.303 424.954 177.303Z" fill="#FBBEBE"/>
<path d="M446.811 214.838C446.04 213.181 445.101 211.607 444.009 210.142C440.006 204.397 435.897 198.66 430.761 193.904C426.871 190.436 422.661 187.344 418.186 184.671C415.772 183.017 413.118 181.744 410.317 180.896C408.654 180.528 406.964 180.298 405.264 180.209L399.532 179.741C399.029 179.674 398.519 179.69 398.021 179.786C396.465 180.179 395.755 182.112 396.088 183.674C396.42 185.237 397.598 186.505 398.64 187.69C398.897 199.384 393.693 210.92 392.991 222.598C391.76 243.019 404.229 262.013 405.226 282.449C405.329 283.373 405.231 284.307 404.939 285.19C404.773 285.612 404.524 285.997 404.335 286.413C403.746 287.696 403.768 289.153 403.663 290.565C403.251 295.6 401.046 300.32 397.447 303.866C398.382 305.027 399.585 305.944 400.951 306.539C403.361 307.588 406.238 307.679 408.799 308.411C415.475 310.359 422.318 312.322 429.258 311.906C430.121 310.031 430.655 308.021 430.837 305.965C431.819 305.354 432.952 306.66 433.103 307.807C433.254 308.955 433.035 310.291 433.858 311.121C434.681 311.952 435.723 311.823 436.728 311.695C440.965 311.159 445.036 309.732 449.19 308.773C453.344 307.815 457.785 307.354 461.825 308.728C462.641 307.694 462.293 306.161 461.629 305.029C460.964 303.897 460.02 302.9 459.643 301.639C459.452 300.913 459.371 300.163 459.401 299.412C459.401 292.958 460.73 286.435 459.469 280.101C459.099 278.244 458.51 276.432 458.132 274.568C457.377 270.952 457.49 267.222 457.588 263.531C457.686 259.839 457.241 255.845 457.165 252.101C457.163 250.554 457.062 249.008 456.863 247.473C456.606 245.865 456.108 244.295 455.972 242.672C455.564 238.55 457.226 234.458 456.976 230.321C456.561 224.04 449.258 220.628 446.811 214.838Z" fill="#FF6F61"/>
<path d="M396.986 211.878C391.639 226.056 389.026 241.094 386.413 256.027L380.371 291.101C378.656 301.013 376.934 310.985 377.002 321.041C377.002 323.865 377.183 326.741 376.443 329.466C375.477 333.044 373.075 336.026 371.255 339.28C367.561 345.925 366.331 353.658 367.781 361.12C368.4 364.253 370.092 367.809 373.271 368.171C375.884 368.458 378.143 366.382 379.668 364.238C383.173 359.324 384.91 353.39 386.466 347.547C391.474 328.451 394.977 308.992 396.941 289.349C397.128 286.863 397.478 284.391 397.991 281.951C398.658 279.435 399.511 276.972 400.544 274.583C402.855 268.855 405.168 263.128 407.484 257.401C412.824 244.167 418.194 230.872 425.528 218.627C418.277 216.544 410.732 214.098 403.482 212.037C401.389 211.418 399.146 211.788 396.986 211.878Z" fill="#FBBEBE"/>
<path d="M409.554 222.651C404.478 221.557 399.229 221.896 394.048 221.768C393.313 221.821 392.58 221.63 391.964 221.224C390.914 220.326 391.36 218.642 391.888 217.367L394.396 211.327C394.807 210.079 395.494 208.939 396.405 207.99C397.681 206.858 399.479 206.579 401.17 206.375C406.676 205.741 412.341 205.529 417.68 207.017C423.02 208.504 428.043 211.886 430.429 216.891C431.426 218.975 431.887 221.602 430.565 223.497C428.601 226.313 424.198 229.461 420.913 227.921C416.978 226.056 413.965 223.587 409.554 222.651Z" fill="#FF6F61"/>
<path d="M436.539 120.962C432.177 120.916 427.896 122.149 424.229 124.51C420.756 121.221 416.471 118.914 411.814 117.823C407.156 116.733 402.291 116.899 397.719 118.305C397.234 115.522 395.993 112.925 394.132 110.798C392.271 108.672 389.862 107.097 387.166 106.246C384.471 105.395 381.594 105.3 378.849 105.972C376.103 106.644 373.595 108.057 371.598 110.056C369.601 112.056 368.192 114.565 367.525 117.31C366.857 120.056 366.957 122.931 367.813 125.624C368.669 128.317 370.248 130.722 372.379 132.579C374.51 134.435 377.109 135.671 379.895 136.151C378.899 139.553 378.582 143.117 378.964 146.641C379.346 150.164 380.418 153.578 382.12 156.688C383.822 159.797 386.12 162.541 388.882 164.763C391.645 166.984 394.818 168.64 398.221 169.636C401.624 170.632 405.19 170.948 408.715 170.567C412.24 170.185 415.656 169.113 418.766 167.412C421.877 165.711 424.622 163.414 426.845 160.653C429.068 157.891 430.724 154.719 431.721 151.318C433.314 151.644 434.936 151.808 436.562 151.809C447.211 151.809 455.851 144.901 455.851 136.385C455.851 127.87 447.173 120.962 436.539 120.962Z" fill="#3F3D56"/>
<path opacity="0.1" d="M440.383 144.093C438.757 144.098 437.135 143.933 435.542 143.603C434.786 146.364 433.593 148.986 432.008 151.371C433.501 151.658 435.018 151.805 436.539 151.809C446.494 151.809 454.665 145.769 455.715 138.039C452.173 141.723 446.622 144.093 440.383 144.093Z" fill="black"/>
<path opacity="0.1" d="M409.524 163.374C405.299 163.368 401.135 162.373 397.364 160.467C393.594 158.562 390.323 155.801 387.813 152.404C385.303 149.007 383.625 145.07 382.912 140.907C382.199 136.745 382.472 132.474 383.709 128.436C380.135 127.808 376.898 125.94 374.565 123.163C372.232 120.385 370.953 116.874 370.953 113.247C370.951 112.32 371.034 111.395 371.202 110.484C369.318 112.518 368.018 115.022 367.437 117.733C366.857 120.443 367.018 123.26 367.904 125.887C368.789 128.514 370.367 130.853 372.471 132.659C374.574 134.466 377.126 135.672 379.857 136.151C377.778 142.976 378.486 150.346 381.828 156.65C385.169 162.953 390.871 167.679 397.688 169.792C404.505 171.905 411.881 171.235 418.205 167.927C424.528 164.619 429.285 158.944 431.434 152.141C428.937 155.619 425.648 158.452 421.837 160.405C418.027 162.359 413.806 163.377 409.524 163.374Z" fill="black"/>
<path d="M508.018 208.877C508.1 208.762 508.075 208.602 507.961 208.521C507.848 208.44 507.688 208.468 507.606 208.583L505.474 211.57C505.392 211.685 505.417 211.845 505.531 211.926C505.645 212.007 505.804 211.979 505.886 211.864L508.018 208.877Z" fill="#3A3768"/>
<path d="M496.082 196.195C496.128 196.13 496.113 196.041 496.048 195.995C495.984 195.949 495.894 195.964 495.848 196.028L495.217 196.913C495.171 196.977 495.186 197.067 495.25 197.113C495.315 197.159 495.404 197.144 495.45 197.08L496.082 196.195Z" fill="#3A3768"/>
<path d="M494.615 198.279C494.666 198.208 494.649 198.109 494.578 198.058C494.507 198.007 494.408 198.024 494.357 198.095L493.15 199.785C493.099 199.856 493.116 199.955 493.187 200.006C493.259 200.057 493.358 200.04 493.409 199.969L494.615 198.279Z" fill="#3A3768"/>
<path d="M492.742 200.901C492.79 200.833 492.774 200.738 492.706 200.69C492.638 200.642 492.544 200.657 492.496 200.725L491.267 202.446C491.219 202.514 491.235 202.608 491.303 202.656C491.37 202.705 491.465 202.689 491.513 202.621L492.742 200.901Z" fill="#3A3768"/>
<path d="M511.679 202.466L500.957 194.819C500.101 194.208 498.912 194.407 498.302 195.262L480.469 220.243C479.859 221.098 480.057 222.286 480.913 222.896L491.635 230.544C492.491 231.154 493.679 230.955 494.29 230.1L512.122 205.12C512.733 204.264 512.534 203.076 511.679 202.466Z" fill="#3A3768"/>
<path opacity="0.1" d="M511.679 202.466L500.957 194.819C500.101 194.208 498.912 194.407 498.302 195.262L480.469 220.243C479.859 221.098 480.057 222.286 480.913 222.896L491.635 230.544C492.491 231.154 493.679 230.955 494.29 230.1L512.122 205.12C512.733 204.264 512.534 203.076 511.679 202.466Z" fill="black"/>
<path d="M510.979 201.059L500.257 193.411C499.401 192.801 498.213 193 497.602 193.855L479.769 218.835C479.159 219.691 479.357 220.879 480.213 221.489L490.935 229.136C491.791 229.747 492.979 229.548 493.59 228.693L511.422 203.712C512.033 202.857 511.834 201.669 510.979 201.059Z" fill="#3A3768"/>
<path d="M510.011 201.513L508.432 200.381L508.296 200.57C508.128 200.801 507.876 200.958 507.595 201.007C507.313 201.056 507.023 200.994 506.786 200.834L501.741 197.233C501.501 197.061 501.34 196.802 501.292 196.512C501.244 196.222 501.313 195.924 501.484 195.685L501.62 195.496L500.109 194.439C499.966 194.336 499.803 194.262 499.63 194.221C499.458 194.181 499.279 194.175 499.105 194.204C498.93 194.232 498.763 194.295 498.612 194.389C498.462 194.483 498.332 194.605 498.229 194.749L480.797 219.171C480.59 219.462 480.506 219.822 480.564 220.175C480.622 220.527 480.817 220.842 481.107 221.051L491.031 228.124C491.175 228.228 491.338 228.301 491.511 228.341C491.684 228.381 491.863 228.386 492.037 228.357C492.212 228.327 492.379 228.264 492.529 228.169C492.679 228.075 492.809 227.952 492.912 227.807L510.343 203.393C510.445 203.248 510.518 203.084 510.557 202.911C510.596 202.738 510.6 202.559 510.569 202.384C510.538 202.209 510.473 202.042 510.377 201.893C510.281 201.743 510.157 201.614 510.011 201.513Z" fill="#2386C8"/>
<path d="M505.415 198.366L503.878 197.269C503.77 197.192 503.619 197.217 503.541 197.326C503.464 197.434 503.489 197.585 503.598 197.663L505.134 198.759C505.243 198.836 505.394 198.811 505.472 198.703C505.549 198.594 505.524 198.443 505.415 198.366Z" fill="#E6E8EC"/>
<path d="M505.947 199.362C506.098 199.362 506.219 199.24 506.219 199.09C506.219 198.94 506.098 198.818 505.947 198.818C505.797 198.818 505.675 198.94 505.675 199.09C505.675 199.24 505.797 199.362 505.947 199.362Z" fill="#E6E8EC"/>
<path d="M506.023 10.5162C492.602 10.5162 479.731 15.8452 470.242 25.3308C460.752 34.8164 455.421 47.6817 455.421 61.0964C455.421 89.0288 508.44 181.538 508.44 181.538C508.44 181.538 556.625 89.0665 556.625 61.0964C556.625 47.6817 551.294 34.8164 541.804 25.3308C532.314 15.8452 519.444 10.5162 506.023 10.5162ZM506.023 94.8266C500.78 94.8266 495.655 93.2726 491.295 90.3609C486.936 87.4493 483.538 83.3109 481.531 78.469C479.525 73.6271 479 68.2992 480.023 63.1591C481.046 58.019 483.57 53.2975 487.278 49.5917C490.985 45.8859 495.709 43.3622 500.851 42.3398C505.994 41.3173 511.324 41.8421 516.168 43.8477C521.012 45.8532 525.152 49.2496 528.065 53.6071C530.978 57.9647 532.532 63.0878 532.532 68.3286C532.536 71.8106 531.854 75.2592 530.523 78.4771C529.193 81.6951 527.24 84.6193 524.778 87.0824C522.316 89.5456 519.392 91.4994 516.174 92.8321C512.956 94.1648 509.506 94.8503 506.023 94.8493V94.8266Z" fill="#2386C8"/>
<path opacity="0.1" d="M506.023 10.5162C492.602 10.5162 479.731 15.8452 470.242 25.3308C460.752 34.8164 455.421 47.6817 455.421 61.0964C455.421 89.0288 508.44 181.538 508.44 181.538C508.44 181.538 556.625 89.0665 556.625 61.0964C556.625 47.6817 551.294 34.8164 541.804 25.3308C532.314 15.8452 519.444 10.5162 506.023 10.5162ZM506.023 94.8266C500.78 94.8266 495.655 93.2726 491.295 90.3609C486.936 87.4493 483.538 83.3109 481.531 78.469C479.525 73.6271 479 68.2992 480.023 63.1591C481.046 58.019 483.57 53.2975 487.278 49.5917C490.985 45.8859 495.709 43.3622 500.851 42.3398C505.994 41.3173 511.324 41.8421 516.168 43.8477C521.012 45.8532 525.152 49.2496 528.065 53.6071C530.978 57.9647 532.532 63.0878 532.532 68.3286C532.536 71.8106 531.854 75.2592 530.523 78.4771C529.193 81.6951 527.24 84.6193 524.778 87.0824C522.316 89.5456 519.392 91.4994 516.174 92.8321C512.956 94.1648 509.506 94.8503 506.023 94.8493V94.8266Z" fill="black"/>
<path d="M506.023 0C492.602 0 479.731 5.32898 470.242 14.8146C460.752 24.3002 455.421 37.1655 455.421 50.5802C455.421 78.5126 508.44 181.56 508.44 181.56C508.44 181.56 556.625 78.5277 556.625 50.5878C556.626 43.9449 555.318 37.3668 552.776 31.2293C550.233 25.0917 546.506 19.5149 541.807 14.8173C537.108 10.1197 531.529 6.39328 525.389 3.85091C519.249 1.30855 512.669 -7.39912e-08 506.023 0ZM506.023 84.3105C500.78 84.3105 495.655 82.7564 491.295 79.8447C486.936 76.9331 483.538 72.7947 481.531 67.9528C479.525 63.1109 479 57.7831 480.023 52.6429C481.046 47.5028 483.57 42.7814 487.278 39.0755C490.985 35.3697 495.709 32.846 500.851 31.8236C505.994 30.8012 511.324 31.3259 516.168 33.3315C521.012 35.3371 525.152 38.7334 528.065 43.091C530.978 47.4485 532.532 52.5716 532.532 57.8125C532.532 61.2922 531.847 64.7379 530.515 67.9528C529.182 71.1677 527.23 74.0888 524.768 76.5494C522.306 79.0099 519.384 80.9618 516.168 82.2934C512.951 83.6251 509.504 84.3105 506.023 84.3105Z" fill="#2386C8"/>
</g>
<defs>
<clipPath id="clip0">
<rect width="790" height="551" fill="white"/>
</clipPath>
</defs>
</svg>
