<svg width="40" height="40" viewBox="0 0 40 40" fill="none" xmlns="http://www.w3.org/2000/svg">
<path d="M20.0282 25.6722C23.2973 25.6722 25.9474 23.1041 25.9474 19.9363C25.9474 16.7685 23.2973 14.2004 20.0282 14.2004C16.7591 14.2004 14.109 16.7685 14.109 19.9363C14.109 23.1041 16.7591 25.6722 20.0282 25.6722Z" fill="#2386C8"/>
<path d="M29.19 20.2562C29.19 25.1589 25.0881 29.1327 20.0282 29.1327C14.9684 29.1327 10.8665 25.1589 10.8665 20.2562C10.8665 19.3776 10.9991 18.5289 11.2446 17.7273H8.53729V30.1782C8.53729 30.8232 9.06435 31.3498 9.70885 31.3498H30.2343C30.8792 31.3498 31.4067 30.8232 31.4067 30.1782V17.7273H28.8119C29.057 18.5289 29.19 19.3776 29.19 20.2562Z" fill="#2386C8"/>
<path d="M26.7343 14.3673H30.0657C30.7957 14.3673 31.3923 13.7707 31.3923 13.0407V9.86441C31.3923 9.13398 30.7957 8.53735 30.0657 8.53735H26.7343C26.0039 8.53735 25.4073 9.13398 25.4073 9.86441V13.0407C25.4068 13.7703 26.0039 14.3673 26.7343 14.3673Z" fill="#2386C8"/>
<path d="M20 0C8.95427 0 0 8.95427 0 20C0 31.0457 8.95427 40 20 40C31.0457 40 40 31.0457 40 20C40 8.95427 31.0457 0 20 0ZM30.9545 34.738H9.04593C6.9643 34.738 5.2624 33.1973 5.2624 30.9553V9.04552C5.2624 6.80266 6.9643 5.2624 9.04593 5.2624H30.9545C33.0357 5.2624 34.738 6.80266 34.738 9.04552V30.9553C34.738 33.1973 33.0353 34.738 30.9545 34.738Z" fill="#2386C8"/>
</svg>
