<svg width="13" height="19" viewBox="0 0 13 19" fill="none" xmlns="http://www.w3.org/2000/svg">
<path d="M12.3381 4.96618H9.53494C9.37492 3.42115 8.5417 1.98647 7.32223 1.1036H12.3381C12.6416 1.1036 12.8899 0.855287 12.8899 0.551798C12.8899 0.248309 12.6416 0 12.3381 0H0.662027C0.358538 0 0.110229 0.248309 0.110229 0.551798C0.110229 0.855287 0.358538 1.1036 0.662027 1.1036H4.00592C6.27933 1.1036 8.15544 2.81417 8.42583 4.96618H0.662027C0.358538 4.96618 0.110229 5.21449 0.110229 5.51798C0.110229 5.82147 0.358538 6.06978 0.662027 6.06978H8.42583C8.14993 8.30456 6.25174 9.98202 4.00592 9.98754H0.667545C0.358538 9.99306 0.110229 10.2469 0.115747 10.5559C0.115747 10.7049 0.181963 10.8483 0.286805 10.9532L8.63551 18.8494C8.85623 19.0591 9.20386 19.0481 9.41354 18.8273C9.62323 18.6011 9.61219 18.2535 9.39147 18.0383L2.04704 11.0911H4.00041C6.88079 11.0911 9.25904 8.88395 9.53494 6.06978H12.3381C12.6416 6.06978 12.8899 5.82147 12.8899 5.51798C12.8899 5.21449 12.6416 4.96618 12.3381 4.96618Z" fill="#2386C8"/>
</svg>
