<svg width="40" height="40" viewBox="0 0 40 40" fill="none" xmlns="http://www.w3.org/2000/svg">
<path d="M20 0C8.95427 0 0 8.95427 0 20C0 31.0457 8.95427 40 20 40C31.0457 40 40 31.0457 40 20C40 8.95427 31.0457 0 20 0ZM32.0941 14.6664C32.1035 14.9025 32.1084 15.139 32.1084 15.3768C32.1084 23.9202 25.6074 32.757 14.7282 32.757C11.4026 32.757 8.1645 31.8081 5.3643 30.0121C5.30578 29.9748 5.28164 29.9024 5.30496 29.8373C5.32829 29.7727 5.39417 29.7326 5.46169 29.7404C5.93146 29.7964 6.41187 29.8242 6.88859 29.8242C9.47601 29.8242 11.9255 29.0242 13.9973 27.5065C11.5139 27.297 9.37944 25.6164 8.61176 23.2188C8.59581 23.1689 8.60726 23.1145 8.64164 23.0752C8.67642 23.0359 8.72962 23.0187 8.78036 23.0281C9.46865 23.1587 10.1684 23.1673 10.8428 23.0576C8.28153 22.2617 6.48143 19.8625 6.48143 17.131L6.48225 17.0517C6.48348 16.9997 6.51171 16.9522 6.55673 16.9264C6.60133 16.9003 6.65698 16.8998 6.70199 16.9252C7.36982 17.296 8.10885 17.5341 8.86711 17.6254C7.39519 16.4522 6.53095 14.6738 6.53095 12.7714C6.53095 11.6739 6.82148 10.5952 7.37146 9.65197C7.39601 9.60982 7.43939 9.58281 7.48767 9.57913C7.53637 9.57422 7.58343 9.5955 7.61412 9.63315C10.6267 13.3283 15.058 15.6035 19.7966 15.8961C19.7176 15.4983 19.6775 15.0883 19.6775 14.6746C19.6775 11.2532 22.461 8.47018 25.8819 8.47018C27.5638 8.47018 29.1892 9.16133 30.3542 10.3693C31.6673 10.1017 32.9183 9.61882 34.0739 8.93381C34.1266 8.9023 34.1929 8.90721 34.2416 8.94527C34.2891 8.98373 34.3087 9.04757 34.2899 9.1065C33.8983 10.3313 33.1347 11.3997 32.1089 12.171C33.075 12.0029 34.0125 11.7189 34.9041 11.3232C34.9639 11.2958 35.0347 11.3129 35.0776 11.3633C35.1202 11.414 35.1239 11.4864 35.0871 11.5413C34.2748 12.757 33.2681 13.8083 32.0941 14.6664Z" fill="#2386C8"/>
</svg>
